<ttFont>
    <TTGlyph name="A" xMin="-51" yMin="-156" xMax="669" yMax="645">
      <contour>
        <pt x="281" y="152" on="1"/>
        <pt x="282" y="156" on="0"/>
        <pt x="282" y="160" on="0"/>
        <pt x="279" y="160" on="0"/>
        <pt x="270" y="150" on="0"/>
        <pt x="256" y="132" on="0"/>
        <pt x="211" y="82" on="0"/>
        <pt x="187" y="60" on="1"/>
        <pt x="122" y="-2" on="0"/>
        <pt x="57" y="-35" on="1"/>
        <pt x="41" y="-43" on="0"/>
        <pt x="22" y="-43" on="1"/>
        <pt x="-51" y="-43" on="0"/>
        <pt x="-51" y="67" on="1"/>
        <pt x="-51" y="165" on="0"/>
        <pt x="42" y="303" on="1"/>
        <pt x="86" y="367" on="0"/>
        <pt x="209" y="490" on="0"/>
        <pt x="347" y="586" on="0"/>
        <pt x="509" y="645" on="0"/>
        <pt x="586" y="645" on="1"/>
        <pt x="599" y="645" on="0"/>
        <pt x="621" y="636" on="1"/>
        <pt x="658" y="620" on="0"/>
        <pt x="658" y="602" on="1"/>
        <pt x="658" y="592" on="0"/>
        <pt x="645" y="591" on="1"/>
        <pt x="640" y="591" on="0"/>
        <pt x="640" y="583" on="0"/>
        <pt x="669" y="560" on="0"/>
        <pt x="669" y="539" on="0"/>
        <pt x="662" y="531" on="1"/>
        <pt x="612" y="476" on="0"/>
        <pt x="552" y="403" on="0"/>
        <pt x="521" y="367" on="0"/>
        <pt x="482" y="320" on="0"/>
        <pt x="434" y="249" on="0"/>
        <pt x="414" y="214" on="1"/>
        <pt x="368" y="129" on="0"/>
        <pt x="368" y="-12" on="0"/>
        <pt x="394" y="-139" on="0"/>
        <pt x="408" y="-153" on="1"/>
        <pt x="408" y="-156" on="0"/>
        <pt x="401" y="-156" on="1"/>
        <pt x="355" y="-156" on="0"/>
        <pt x="322" y="-120" on="1"/>
        <pt x="262" y="-53" on="0"/>
        <pt x="262" y="56" on="1"/>
        <pt x="262" y="95" on="0"/>
      </contour>
      <contour>
        <pt x="412" y="377" on="1"/>
        <pt x="604" y="570" on="1"/>
        <pt x="611" y="577" on="0"/>
        <pt x="611" y="583" on="0"/>
        <pt x="606" y="583" on="1"/>
        <pt x="529" y="571" on="0"/>
        <pt x="357" y="469" on="0"/>
        <pt x="217" y="335" on="0"/>
        <pt x="99" y="195" on="0"/>
        <pt x="34" y="83" on="0"/>
        <pt x="34" y="59" on="1"/>
        <pt x="34" y="55" on="0"/>
        <pt x="45" y="55" on="0"/>
        <pt x="77" y="70" on="0"/>
        <pt x="266" y="231" on="0"/>
      </contour>
    </TTGlyph>
    <TTGlyph name="AE" xMin="-78" yMin="-156" xMax="1009" yMax="645">
      <contour>
        <pt x="254" y="152" on="1"/>
        <pt x="255" y="156" on="0"/>
        <pt x="255" y="160" on="0"/>
        <pt x="252" y="160" on="0"/>
        <pt x="243" y="150" on="0"/>
        <pt x="229" y="132" on="0"/>
        <pt x="184" y="82" on="0"/>
        <pt x="160" y="60" on="1"/>
        <pt x="95" y="-2" on="0"/>
        <pt x="30" y="-35" on="1"/>
        <pt x="14" y="-43" on="0"/>
        <pt x="-5" y="-43" on="1"/>
        <pt x="-78" y="-43" on="0"/>
        <pt x="-78" y="179" on="0"/>
        <pt x="158" y="493" on="0"/>
        <pt x="319" y="579" on="1"/>
        <pt x="321" y="581" on="0"/>
        <pt x="322" y="581" on="1"/>
        <pt x="445" y="645" on="0"/>
        <pt x="559" y="645" on="1"/>
        <pt x="596" y="639" on="0"/>
        <pt x="617" y="624" on="1"/>
        <pt x="674" y="629" on="0"/>
        <pt x="778" y="629" on="0"/>
        <pt x="857" y="624" on="0"/>
        <pt x="901" y="616" on="1"/>
        <pt x="994" y="599" on="0"/>
        <pt x="1008" y="546" on="1"/>
        <pt x="1009" y="542" on="1"/>
        <pt x="1009" y="533" on="0"/>
        <pt x="994" y="533" on="1"/>
        <pt x="763" y="526" on="0"/>
        <pt x="610" y="503" on="1"/>
        <pt x="552" y="436" on="0"/>
        <pt x="525" y="403" on="0"/>
        <pt x="518" y="395" on="1"/>
        <pt x="475" y="346" on="0"/>
        <pt x="475" y="343" on="1"/>
        <pt x="476" y="341" on="1"/>
        <pt x="476" y="338" on="0"/>
        <pt x="481" y="338" on="0"/>
        <pt x="491" y="340" on="1"/>
        <pt x="555" y="344" on="0"/>
        <pt x="664" y="344" on="0"/>
        <pt x="674" y="338" on="1"/>
        <pt x="727" y="306" on="0"/>
        <pt x="737" y="296" on="1"/>
        <pt x="749" y="284" on="0"/>
        <pt x="751" y="274" on="1"/>
        <pt x="751" y="266" on="0"/>
        <pt x="732" y="263" on="1"/>
        <pt x="451" y="237" on="0"/>
        <pt x="408" y="238" on="0"/>
        <pt x="402" y="238" on="1"/>
        <pt x="401" y="238" on="1"/>
        <pt x="341" y="134" on="0"/>
        <pt x="341" y="56" on="1"/>
        <pt x="341" y="52" on="1"/>
        <pt x="342" y="51" on="1"/>
        <pt x="341" y="50" on="0"/>
        <pt x="341" y="48" on="1"/>
        <pt x="341" y="37" on="1"/>
        <pt x="342" y="36" on="0"/>
        <pt x="348" y="36" on="0"/>
        <pt x="356" y="40" on="1"/>
        <pt x="445" y="55" on="0"/>
        <pt x="609" y="55" on="0"/>
        <pt x="650" y="50" on="1"/>
        <pt x="705" y="50" on="0"/>
        <pt x="790" y="-31" on="1"/>
        <pt x="797" y="-38" on="0"/>
        <pt x="799" y="-43" on="1"/>
        <pt x="799" y="-45" on="1"/>
        <pt x="799" y="-50" on="0"/>
        <pt x="786" y="-50" on="1"/>
        <pt x="537" y="-50" on="0"/>
        <pt x="409" y="-60" on="1"/>
        <pt x="405" y="-61" on="0"/>
        <pt x="371" y="-61" on="0"/>
        <pt x="350" y="-52" on="1"/>
        <pt x="363" y="-135" on="0"/>
        <pt x="381" y="-153" on="1"/>
        <pt x="381" y="-156" on="0"/>
        <pt x="374" y="-156" on="1"/>
        <pt x="328" y="-156" on="0"/>
        <pt x="295" y="-120" on="1"/>
        <pt x="235" y="-53" on="0"/>
        <pt x="235" y="56" on="1"/>
        <pt x="235" y="95" on="0"/>
      </contour>
      <contour>
        <pt x="495" y="487" on="1"/>
        <pt x="577" y="570" on="1"/>
        <pt x="584" y="577" on="0"/>
        <pt x="584" y="583" on="0"/>
        <pt x="579" y="583" on="1"/>
        <pt x="502" y="571" on="0"/>
        <pt x="330" y="469" on="0"/>
        <pt x="190" y="335" on="0"/>
        <pt x="72" y="195" on="0"/>
        <pt x="7" y="83" on="0"/>
        <pt x="7" y="59" on="1"/>
        <pt x="7" y="55" on="0"/>
        <pt x="18" y="55" on="0"/>
        <pt x="49" y="70" on="0"/>
        <pt x="238" y="232" on="0"/>
        <pt x="481" y="479" on="0"/>
      </contour>
    </TTGlyph>
    <TTGlyph name="Aacute" xMin="-78" yMin="-156" xMax="763" yMax="869">
      <contour>
        <pt x="254" y="152" on="1"/>
        <pt x="235" y="95" on="0"/>
        <pt x="235" y="10" on="0"/>
        <pt x="262" y="-83" on="0"/>
        <pt x="328" y="-156" on="0"/>
        <pt x="374" y="-156" on="1"/>
        <pt x="381" y="-156" on="0"/>
        <pt x="381" y="-153" on="1"/>
        <pt x="367" y="-139" on="0"/>
        <pt x="341" y="-12" on="0"/>
        <pt x="341" y="93" on="0"/>
        <pt x="368" y="178" on="0"/>
        <pt x="407" y="249" on="0"/>
        <pt x="455" y="320" on="0"/>
        <pt x="474" y="344" on="1"/>
        <pt x="518" y="396" on="0"/>
        <pt x="526" y="404" on="1"/>
        <pt x="635" y="531" on="1"/>
        <pt x="642" y="539" on="0"/>
        <pt x="642" y="560" on="0"/>
        <pt x="613" y="583" on="0"/>
        <pt x="613" y="587" on="1"/>
        <pt x="618" y="591" on="1"/>
        <pt x="631" y="592" on="0"/>
        <pt x="631" y="616" on="0"/>
        <pt x="595" y="638" on="0"/>
        <pt x="577" y="642" on="1"/>
        <pt x="559" y="645" on="1"/>
        <pt x="482" y="645" on="0"/>
        <pt x="320" y="586" on="0"/>
        <pt x="182" y="490" on="0"/>
        <pt x="59" y="367" on="0"/>
        <pt x="16" y="303" on="1"/>
        <pt x="-78" y="165" on="0"/>
        <pt x="-78" y="-43" on="0"/>
        <pt x="-5" y="-43" on="1"/>
        <pt x="12" y="-43" on="0"/>
        <pt x="30" y="-35" on="1"/>
        <pt x="120" y="11" on="0"/>
        <pt x="206" y="106" on="1"/>
        <pt x="226" y="128" on="0"/>
        <pt x="236" y="142" on="1"/>
        <pt x="247" y="155" on="1"/>
        <pt x="252" y="160" on="0"/>
        <pt x="255" y="160" on="0"/>
        <pt x="255" y="158" on="1"/>
      </contour>
      <contour>
        <pt x="577" y="570" on="1"/>
        <pt x="385" y="377" on="1"/>
        <pt x="239" y="231" on="0"/>
        <pt x="52" y="70" on="0"/>
        <pt x="32" y="62" on="1"/>
        <pt x="11" y="55" on="1"/>
        <pt x="7" y="55" on="0"/>
        <pt x="7" y="59" on="1"/>
        <pt x="7" y="83" on="0"/>
        <pt x="72" y="195" on="0"/>
        <pt x="190" y="335" on="0"/>
        <pt x="330" y="469" on="0"/>
        <pt x="502" y="571" on="0"/>
        <pt x="579" y="583" on="1"/>
        <pt x="584" y="583" on="0"/>
        <pt x="584" y="577" on="0"/>
      </contour>
      <contour>
        <pt x="551" y="696" on="1"/>
        <pt x="551" y="705" on="0"/>
        <pt x="568" y="722" on="1"/>
        <pt x="612" y="748" on="0"/>
        <pt x="678" y="815" on="0"/>
        <pt x="689" y="835" on="1"/>
        <pt x="700" y="855" on="1"/>
        <pt x="710" y="869" on="0"/>
        <pt x="742" y="869" on="0"/>
        <pt x="763" y="833" on="0"/>
        <pt x="763" y="814" on="1"/>
        <pt x="761" y="791" on="1"/>
        <pt x="740" y="752" on="0"/>
        <pt x="692" y="724" on="1"/>
        <pt x="616" y="681" on="0"/>
        <pt x="566" y="681" on="1"/>
        <pt x="551" y="681" on="0"/>
      </contour>
    </TTGlyph>
    <TTGlyph name="Acircumflex" xMin="-78" yMin="-156" xMax="726" yMax="851">
      <contour>
        <pt x="254" y="152" on="1"/>
        <pt x="235" y="95" on="0"/>
        <pt x="235" y="10" on="0"/>
        <pt x="262" y="-83" on="0"/>
        <pt x="328" y="-156" on="0"/>
        <pt x="374" y="-156" on="1"/>
        <pt x="381" y="-156" on="0"/>
        <pt x="381" y="-153" on="1"/>
        <pt x="367" y="-139" on="0"/>
        <pt x="341" y="-12" on="0"/>
        <pt x="341" y="93" on="0"/>
        <pt x="368" y="178" on="0"/>
        <pt x="407" y="249" on="0"/>
        <pt x="455" y="320" on="0"/>
        <pt x="474" y="344" on="1"/>
        <pt x="518" y="396" on="0"/>
        <pt x="526" y="404" on="1"/>
        <pt x="635" y="531" on="1"/>
        <pt x="642" y="539" on="0"/>
        <pt x="642" y="560" on="0"/>
        <pt x="613" y="583" on="0"/>
        <pt x="613" y="587" on="1"/>
        <pt x="618" y="591" on="1"/>
        <pt x="631" y="592" on="0"/>
        <pt x="631" y="616" on="0"/>
        <pt x="595" y="638" on="0"/>
        <pt x="577" y="642" on="1"/>
        <pt x="559" y="645" on="1"/>
        <pt x="482" y="645" on="0"/>
        <pt x="320" y="586" on="0"/>
        <pt x="182" y="490" on="0"/>
        <pt x="59" y="367" on="0"/>
        <pt x="16" y="303" on="1"/>
        <pt x="-78" y="165" on="0"/>
        <pt x="-78" y="-43" on="0"/>
        <pt x="-5" y="-43" on="1"/>
        <pt x="12" y="-43" on="0"/>
        <pt x="30" y="-35" on="1"/>
        <pt x="120" y="11" on="0"/>
        <pt x="206" y="106" on="1"/>
        <pt x="226" y="128" on="0"/>
        <pt x="236" y="142" on="1"/>
        <pt x="247" y="155" on="1"/>
        <pt x="252" y="160" on="0"/>
        <pt x="255" y="160" on="0"/>
        <pt x="255" y="158" on="1"/>
      </contour>
      <contour>
        <pt x="577" y="570" on="1"/>
        <pt x="385" y="377" on="1"/>
        <pt x="239" y="231" on="0"/>
        <pt x="52" y="70" on="0"/>
        <pt x="32" y="62" on="1"/>
        <pt x="11" y="55" on="1"/>
        <pt x="7" y="55" on="0"/>
        <pt x="7" y="59" on="1"/>
        <pt x="7" y="83" on="0"/>
        <pt x="72" y="195" on="0"/>
        <pt x="190" y="335" on="0"/>
        <pt x="330" y="469" on="0"/>
        <pt x="502" y="571" on="0"/>
        <pt x="579" y="583" on="1"/>
        <pt x="584" y="583" on="0"/>
        <pt x="584" y="577" on="0"/>
      </contour>
      <contour>
        <pt x="697" y="790" on="1"/>
        <pt x="697" y="752" on="0"/>
        <pt x="726" y="689" on="1"/>
        <pt x="725" y="677" on="0"/>
        <pt x="695" y="677" on="1"/>
        <pt x="677" y="677" on="0"/>
        <pt x="620" y="754" on="0"/>
        <pt x="620" y="763" on="1"/>
        <pt x="579" y="730" on="0"/>
        <pt x="446" y="679" on="0"/>
        <pt x="413" y="679" on="1"/>
        <pt x="402" y="679" on="0"/>
        <pt x="389" y="689" on="0"/>
        <pt x="389" y="694" on="1"/>
        <pt x="389" y="713" on="0"/>
        <pt x="402" y="713" on="1"/>
        <pt x="448" y="723" on="0"/>
        <pt x="549" y="792" on="0"/>
        <pt x="615" y="851" on="0"/>
        <pt x="630" y="851" on="0"/>
        <pt x="638" y="848" on="1"/>
        <pt x="657" y="840" on="0"/>
        <pt x="657" y="837" on="1"/>
        <pt x="663" y="839" on="0"/>
        <pt x="675" y="839" on="1"/>
        <pt x="704" y="836" on="0"/>
        <pt x="704" y="821" on="1"/>
      </contour>
    </TTGlyph>
    <TTGlyph name="Adieresis" xMin="-78" yMin="-156" xMax="746" yMax="789">
      <contour>
        <pt x="254" y="152" on="1"/>
        <pt x="255" y="156" on="0"/>
        <pt x="255" y="160" on="0"/>
        <pt x="252" y="160" on="0"/>
        <pt x="243" y="150" on="0"/>
        <pt x="229" y="132" on="0"/>
        <pt x="184" y="82" on="0"/>
        <pt x="160" y="60" on="1"/>
        <pt x="95" y="-2" on="0"/>
        <pt x="30" y="-35" on="1"/>
        <pt x="14" y="-43" on="0"/>
        <pt x="-5" y="-43" on="1"/>
        <pt x="-78" y="-43" on="0"/>
        <pt x="-78" y="67" on="1"/>
        <pt x="-78" y="165" on="0"/>
        <pt x="16" y="303" on="1"/>
        <pt x="59" y="367" on="0"/>
        <pt x="182" y="490" on="0"/>
        <pt x="320" y="586" on="0"/>
        <pt x="482" y="645" on="0"/>
        <pt x="559" y="645" on="1"/>
        <pt x="572" y="645" on="0"/>
        <pt x="594" y="636" on="1"/>
        <pt x="631" y="620" on="0"/>
        <pt x="631" y="602" on="1"/>
        <pt x="631" y="592" on="0"/>
        <pt x="618" y="591" on="1"/>
        <pt x="613" y="591" on="0"/>
        <pt x="613" y="583" on="0"/>
        <pt x="642" y="560" on="0"/>
        <pt x="642" y="539" on="0"/>
        <pt x="635" y="531" on="1"/>
        <pt x="585" y="476" on="0"/>
        <pt x="525" y="403" on="0"/>
        <pt x="494" y="367" on="0"/>
        <pt x="455" y="320" on="0"/>
        <pt x="407" y="249" on="0"/>
        <pt x="388" y="214" on="1"/>
        <pt x="341" y="129" on="0"/>
        <pt x="341" y="-12" on="0"/>
        <pt x="367" y="-139" on="0"/>
        <pt x="381" y="-153" on="1"/>
        <pt x="381" y="-156" on="0"/>
        <pt x="374" y="-156" on="1"/>
        <pt x="328" y="-156" on="0"/>
        <pt x="295" y="-120" on="1"/>
        <pt x="235" y="-53" on="0"/>
        <pt x="235" y="56" on="1"/>
        <pt x="235" y="95" on="0"/>
      </contour>
      <contour>
        <pt x="385" y="377" on="1"/>
        <pt x="577" y="570" on="1"/>
        <pt x="584" y="577" on="0"/>
        <pt x="584" y="583" on="0"/>
        <pt x="579" y="583" on="1"/>
        <pt x="502" y="571" on="0"/>
        <pt x="330" y="469" on="0"/>
        <pt x="190" y="335" on="0"/>
        <pt x="72" y="195" on="0"/>
        <pt x="7" y="83" on="0"/>
        <pt x="7" y="59" on="1"/>
        <pt x="7" y="55" on="0"/>
        <pt x="18" y="55" on="0"/>
        <pt x="50" y="70" on="0"/>
        <pt x="239" y="231" on="0"/>
      </contour>
      <contour>
        <pt x="552" y="789" on="1"/>
        <pt x="562" y="789" on="0"/>
        <pt x="565" y="785" on="1"/>
        <pt x="579" y="768" on="0"/>
        <pt x="579" y="747" on="0"/>
        <pt x="567" y="732" on="0"/>
        <pt x="550" y="713" on="0"/>
        <pt x="499" y="680" on="0"/>
        <pt x="475" y="680" on="1"/>
        <pt x="457" y="683" on="0"/>
        <pt x="457" y="702" on="1"/>
        <pt x="457" y="732" on="0"/>
        <pt x="529" y="789" on="0"/>
      </contour>
      <contour>
        <pt x="719" y="789" on="1"/>
        <pt x="729" y="789" on="0"/>
        <pt x="732" y="785" on="1"/>
        <pt x="746" y="768" on="0"/>
        <pt x="746" y="747" on="0"/>
        <pt x="734" y="732" on="0"/>
        <pt x="717" y="713" on="0"/>
        <pt x="666" y="680" on="0"/>
        <pt x="642" y="680" on="1"/>
        <pt x="624" y="683" on="0"/>
        <pt x="624" y="702" on="1"/>
        <pt x="624" y="732" on="0"/>
        <pt x="696" y="789" on="0"/>
      </contour>
    </TTGlyph>
    <TTGlyph name="Agrave" xMin="-78" yMin="-156" xMax="642" yMax="902">
      <contour>
        <pt x="254" y="152" on="1"/>
        <pt x="255" y="156" on="0"/>
        <pt x="255" y="160" on="0"/>
        <pt x="252" y="160" on="0"/>
        <pt x="243" y="150" on="0"/>
        <pt x="229" y="132" on="0"/>
        <pt x="184" y="82" on="0"/>
        <pt x="160" y="60" on="1"/>
        <pt x="95" y="-2" on="0"/>
        <pt x="30" y="-35" on="1"/>
        <pt x="14" y="-43" on="0"/>
        <pt x="-5" y="-43" on="1"/>
        <pt x="-78" y="-43" on="0"/>
        <pt x="-78" y="67" on="1"/>
        <pt x="-78" y="165" on="0"/>
        <pt x="16" y="303" on="1"/>
        <pt x="59" y="367" on="0"/>
        <pt x="182" y="490" on="0"/>
        <pt x="320" y="586" on="0"/>
        <pt x="482" y="645" on="0"/>
        <pt x="559" y="645" on="1"/>
        <pt x="572" y="645" on="0"/>
        <pt x="594" y="636" on="1"/>
        <pt x="631" y="620" on="0"/>
        <pt x="631" y="602" on="1"/>
        <pt x="631" y="592" on="0"/>
        <pt x="618" y="591" on="1"/>
        <pt x="613" y="591" on="0"/>
        <pt x="613" y="583" on="0"/>
        <pt x="642" y="560" on="0"/>
        <pt x="642" y="539" on="0"/>
        <pt x="635" y="531" on="1"/>
        <pt x="585" y="476" on="0"/>
        <pt x="525" y="403" on="0"/>
        <pt x="494" y="367" on="0"/>
        <pt x="455" y="320" on="0"/>
        <pt x="407" y="249" on="0"/>
        <pt x="388" y="214" on="1"/>
        <pt x="341" y="129" on="0"/>
        <pt x="341" y="-12" on="0"/>
        <pt x="367" y="-139" on="0"/>
        <pt x="381" y="-153" on="1"/>
        <pt x="381" y="-156" on="0"/>
        <pt x="374" y="-156" on="1"/>
        <pt x="328" y="-156" on="0"/>
        <pt x="295" y="-120" on="1"/>
        <pt x="235" y="-53" on="0"/>
        <pt x="235" y="56" on="1"/>
        <pt x="235" y="95" on="0"/>
      </contour>
      <contour>
        <pt x="385" y="377" on="1"/>
        <pt x="577" y="570" on="1"/>
        <pt x="584" y="577" on="0"/>
        <pt x="584" y="583" on="0"/>
        <pt x="579" y="583" on="1"/>
        <pt x="502" y="571" on="0"/>
        <pt x="330" y="469" on="0"/>
        <pt x="190" y="335" on="0"/>
        <pt x="72" y="195" on="0"/>
        <pt x="7" y="83" on="0"/>
        <pt x="7" y="59" on="1"/>
        <pt x="7" y="55" on="0"/>
        <pt x="18" y="55" on="0"/>
        <pt x="50" y="70" on="0"/>
        <pt x="239" y="231" on="0"/>
      </contour>
      <contour>
        <pt x="578" y="719" on="1"/>
        <pt x="588" y="705" on="0"/>
        <pt x="588" y="690" on="1"/>
        <pt x="584" y="679" on="0"/>
        <pt x="572" y="679" on="1"/>
        <pt x="559" y="682" on="0"/>
        <pt x="498" y="715" on="0"/>
        <pt x="419" y="793" on="0"/>
        <pt x="410" y="836" on="1"/>
        <pt x="415" y="863" on="1"/>
        <pt x="428" y="902" on="0"/>
        <pt x="457" y="902" on="1"/>
        <pt x="476" y="902" on="0"/>
        <pt x="485" y="882" on="1"/>
        <pt x="492" y="849" on="0"/>
        <pt x="543" y="756" on="0"/>
      </contour>
    </TTGlyph>
    <TTGlyph name="Aring" xMin="-78" yMin="-156" xMax="697" yMax="817">
      <contour>
        <pt x="254" y="152" on="1"/>
        <pt x="235" y="95" on="0"/>
        <pt x="235" y="10" on="0"/>
        <pt x="262" y="-83" on="0"/>
        <pt x="328" y="-156" on="0"/>
        <pt x="374" y="-156" on="1"/>
        <pt x="381" y="-156" on="0"/>
        <pt x="381" y="-153" on="1"/>
        <pt x="367" y="-139" on="0"/>
        <pt x="341" y="-12" on="0"/>
        <pt x="341" y="93" on="0"/>
        <pt x="368" y="178" on="0"/>
        <pt x="407" y="249" on="0"/>
        <pt x="455" y="320" on="0"/>
        <pt x="474" y="344" on="1"/>
        <pt x="518" y="396" on="0"/>
        <pt x="526" y="404" on="1"/>
        <pt x="635" y="531" on="1"/>
        <pt x="642" y="539" on="0"/>
        <pt x="642" y="560" on="0"/>
        <pt x="613" y="583" on="0"/>
        <pt x="613" y="587" on="1"/>
        <pt x="618" y="591" on="1"/>
        <pt x="631" y="592" on="0"/>
        <pt x="631" y="616" on="0"/>
        <pt x="595" y="638" on="0"/>
        <pt x="577" y="642" on="1"/>
        <pt x="559" y="645" on="1"/>
        <pt x="482" y="645" on="0"/>
        <pt x="320" y="586" on="0"/>
        <pt x="182" y="490" on="0"/>
        <pt x="59" y="367" on="0"/>
        <pt x="16" y="303" on="1"/>
        <pt x="-78" y="165" on="0"/>
        <pt x="-78" y="-43" on="0"/>
        <pt x="-5" y="-43" on="1"/>
        <pt x="12" y="-43" on="0"/>
        <pt x="30" y="-35" on="1"/>
        <pt x="120" y="11" on="0"/>
        <pt x="206" y="106" on="1"/>
        <pt x="226" y="128" on="0"/>
        <pt x="236" y="142" on="1"/>
        <pt x="247" y="155" on="1"/>
        <pt x="252" y="160" on="0"/>
        <pt x="255" y="160" on="0"/>
        <pt x="255" y="158" on="1"/>
      </contour>
      <contour>
        <pt x="577" y="570" on="1"/>
        <pt x="385" y="377" on="1"/>
        <pt x="239" y="231" on="0"/>
        <pt x="52" y="70" on="0"/>
        <pt x="32" y="62" on="1"/>
        <pt x="11" y="55" on="1"/>
        <pt x="7" y="55" on="0"/>
        <pt x="7" y="59" on="1"/>
        <pt x="7" y="83" on="0"/>
        <pt x="72" y="195" on="0"/>
        <pt x="190" y="335" on="0"/>
        <pt x="330" y="469" on="0"/>
        <pt x="502" y="571" on="0"/>
        <pt x="579" y="583" on="1"/>
        <pt x="584" y="583" on="0"/>
        <pt x="584" y="577" on="0"/>
      </contour>
      <contour>
        <pt x="643" y="817" on="1"/>
        <pt x="676" y="817" on="0"/>
        <pt x="691" y="789" on="1"/>
        <pt x="697" y="778" on="0"/>
        <pt x="697" y="763" on="1"/>
        <pt x="697" y="722" on="0"/>
        <pt x="648" y="667" on="0"/>
        <pt x="588" y="667" on="1"/>
        <pt x="568" y="667" on="0"/>
        <pt x="540" y="694" on="0"/>
        <pt x="540" y="732" on="0"/>
        <pt x="547" y="760" on="0"/>
        <pt x="556" y="778" on="1"/>
        <pt x="578" y="817" on="0"/>
      </contour>
      <contour>
        <pt x="634" y="705" on="0"/>
        <pt x="659" y="723" on="0"/>
        <pt x="659" y="780" on="0"/>
        <pt x="633" y="780" on="1"/>
        <pt x="597" y="780" on="0"/>
        <pt x="580" y="759" on="0"/>
        <pt x="580" y="726" on="1"/>
        <pt x="580" y="709" on="0"/>
        <pt x="595" y="705" on="1"/>
      </contour>
    </TTGlyph>
    <TTGlyph name="Atilde" xMin="-78" yMin="-156" xMax="761" yMax="787">
      <contour>
        <pt x="254" y="152" on="1"/>
        <pt x="255" y="156" on="0"/>
        <pt x="255" y="160" on="0"/>
        <pt x="252" y="160" on="0"/>
        <pt x="243" y="150" on="0"/>
        <pt x="229" y="132" on="0"/>
        <pt x="184" y="82" on="0"/>
        <pt x="160" y="60" on="1"/>
        <pt x="95" y="-2" on="0"/>
        <pt x="30" y="-35" on="1"/>
        <pt x="14" y="-43" on="0"/>
        <pt x="-5" y="-43" on="1"/>
        <pt x="-78" y="-43" on="0"/>
        <pt x="-78" y="67" on="1"/>
        <pt x="-78" y="165" on="0"/>
        <pt x="16" y="303" on="1"/>
        <pt x="59" y="367" on="0"/>
        <pt x="182" y="490" on="0"/>
        <pt x="320" y="586" on="0"/>
        <pt x="482" y="645" on="0"/>
        <pt x="559" y="645" on="1"/>
        <pt x="572" y="645" on="0"/>
        <pt x="594" y="636" on="1"/>
        <pt x="631" y="620" on="0"/>
        <pt x="631" y="602" on="1"/>
        <pt x="631" y="592" on="0"/>
        <pt x="618" y="591" on="1"/>
        <pt x="613" y="591" on="0"/>
        <pt x="613" y="583" on="0"/>
        <pt x="642" y="560" on="0"/>
        <pt x="642" y="539" on="0"/>
        <pt x="635" y="531" on="1"/>
        <pt x="585" y="476" on="0"/>
        <pt x="525" y="403" on="0"/>
        <pt x="494" y="367" on="0"/>
        <pt x="455" y="320" on="0"/>
        <pt x="407" y="249" on="0"/>
        <pt x="388" y="214" on="1"/>
        <pt x="341" y="129" on="0"/>
        <pt x="341" y="-12" on="0"/>
        <pt x="367" y="-139" on="0"/>
        <pt x="381" y="-153" on="1"/>
        <pt x="381" y="-156" on="0"/>
        <pt x="374" y="-156" on="1"/>
        <pt x="328" y="-156" on="0"/>
        <pt x="295" y="-120" on="1"/>
        <pt x="235" y="-53" on="0"/>
        <pt x="235" y="56" on="1"/>
        <pt x="235" y="95" on="0"/>
      </contour>
      <contour>
        <pt x="385" y="377" on="1"/>
        <pt x="577" y="570" on="1"/>
        <pt x="584" y="577" on="0"/>
        <pt x="584" y="583" on="0"/>
        <pt x="579" y="583" on="1"/>
        <pt x="502" y="571" on="0"/>
        <pt x="330" y="469" on="0"/>
        <pt x="190" y="335" on="0"/>
        <pt x="72" y="195" on="0"/>
        <pt x="7" y="83" on="0"/>
        <pt x="7" y="59" on="1"/>
        <pt x="7" y="55" on="0"/>
        <pt x="18" y="55" on="0"/>
        <pt x="50" y="70" on="0"/>
        <pt x="239" y="231" on="0"/>
      </contour>
      <contour>
        <pt x="404" y="716" on="0"/>
        <pt x="420" y="730" on="0"/>
        <pt x="448" y="751" on="0"/>
        <pt x="520" y="787" on="0"/>
        <pt x="560" y="787" on="0"/>
        <pt x="654" y="745" on="0"/>
        <pt x="695" y="745" on="1"/>
        <pt x="712" y="745" on="0"/>
        <pt x="738" y="769" on="1"/>
        <pt x="746" y="777" on="1"/>
        <pt x="761" y="777" on="0"/>
        <pt x="761" y="767" on="1"/>
        <pt x="761" y="756" on="0"/>
        <pt x="733" y="725" on="0"/>
        <pt x="719" y="715" on="1"/>
        <pt x="685" y="691" on="0"/>
        <pt x="634" y="691" on="1"/>
        <pt x="616" y="691" on="0"/>
        <pt x="525" y="729" on="0"/>
        <pt x="496" y="729" on="1"/>
        <pt x="481" y="729" on="0"/>
        <pt x="420" y="708" on="0"/>
        <pt x="404" y="708" on="0"/>
        <pt x="404" y="710" on="1"/>
      </contour>
    </TTGlyph>
    <TTGlyph name="B" xMin="-21" yMin="-44" xMax="741" yMax="676">
      <contour>
        <pt x="173" y="598" on="0"/>
        <pt x="421" y="676" on="0"/>
        <pt x="583" y="676" on="0"/>
        <pt x="682" y="641" on="0"/>
        <pt x="704" y="614" on="1"/>
        <pt x="741" y="568" on="0"/>
        <pt x="741" y="534" on="1"/>
        <pt x="741" y="493" on="0"/>
        <pt x="684" y="438" on="1"/>
        <pt x="655" y="410" on="0"/>
        <pt x="602" y="376" on="1"/>
        <pt x="591" y="370" on="1"/>
        <pt x="584" y="368" on="0"/>
        <pt x="584" y="364" on="1"/>
        <pt x="590" y="359" on="1"/>
        <pt x="629" y="343" on="0"/>
        <pt x="670" y="299" on="0"/>
        <pt x="670" y="256" on="1"/>
        <pt x="670" y="197" on="0"/>
        <pt x="565" y="90" on="0"/>
        <pt x="423" y="25" on="0"/>
        <pt x="299" y="-13" on="0"/>
        <pt x="246" y="-13" on="0"/>
        <pt x="204" y="0" on="0"/>
        <pt x="191" y="9" on="1"/>
        <pt x="164" y="28" on="0"/>
        <pt x="153" y="48" on="1"/>
        <pt x="149" y="53" on="0"/>
        <pt x="146" y="53" on="1"/>
        <pt x="139" y="53" on="0"/>
        <pt x="101" y="-35" on="0"/>
        <pt x="100" y="-35" on="1"/>
        <pt x="100" y="-34" on="1"/>
        <pt x="97" y="-44" on="0"/>
        <pt x="90" y="-44" on="1"/>
        <pt x="74" y="-44" on="0"/>
        <pt x="45" y="15" on="0"/>
        <pt x="45" y="48" on="0"/>
        <pt x="85" y="127" on="0"/>
        <pt x="105" y="155" on="1"/>
        <pt x="125" y="183" on="1"/>
        <pt x="148" y="233" on="0"/>
        <pt x="482" y="551" on="0"/>
        <pt x="504" y="551" on="1"/>
        <pt x="514" y="551" on="0"/>
        <pt x="527" y="538" on="0"/>
        <pt x="531" y="525" on="1"/>
        <pt x="531" y="517" on="0"/>
        <pt x="522" y="512" on="1"/>
        <pt x="381" y="360" on="1"/>
        <pt x="379" y="356" on="0"/>
        <pt x="379" y="353" on="0"/>
        <pt x="382" y="353" on="1"/>
        <pt x="404" y="353" on="0"/>
        <pt x="560" y="421" on="0"/>
        <pt x="707" y="519" on="0"/>
        <pt x="707" y="551" on="1"/>
        <pt x="707" y="586" on="0"/>
        <pt x="567" y="586" on="1"/>
        <pt x="478" y="586" on="0"/>
        <pt x="305" y="547" on="0"/>
        <pt x="182" y="492" on="0"/>
        <pt x="84" y="432" on="0"/>
        <pt x="36" y="388" on="0"/>
        <pt x="36" y="376" on="0"/>
        <pt x="41" y="376" on="1"/>
        <pt x="73" y="376" on="0"/>
        <pt x="220" y="445" on="0"/>
        <pt x="252" y="468" on="0"/>
        <pt x="261" y="468" on="0"/>
        <pt x="264" y="463" on="1"/>
        <pt x="227" y="402" on="0"/>
        <pt x="98" y="317" on="0"/>
        <pt x="26" y="317" on="0"/>
        <pt x="-21" y="376" on="0"/>
        <pt x="-21" y="398" on="1"/>
        <pt x="-21" y="465" on="0"/>
      </contour>
      <contour>
        <pt x="621" y="295" on="1"/>
        <pt x="621" y="305" on="0"/>
        <pt x="596" y="317" on="0"/>
        <pt x="583" y="318" on="1"/>
        <pt x="570" y="318" on="1"/>
        <pt x="507" y="318" on="0"/>
        <pt x="410" y="290" on="1"/>
        <pt x="377" y="281" on="0"/>
        <pt x="361" y="281" on="0"/>
        <pt x="350" y="293" on="0"/>
        <pt x="345" y="304" on="0"/>
        <pt x="340" y="304" on="1"/>
        <pt x="334" y="304" on="0"/>
        <pt x="327" y="297" on="1"/>
        <pt x="154" y="66" on="1"/>
        <pt x="154" y="65" on="1"/>
        <pt x="159" y="56" on="0"/>
        <pt x="174" y="56" on="1"/>
        <pt x="186" y="56" on="1"/>
        <pt x="261" y="56" on="0"/>
        <pt x="469" y="139" on="0"/>
        <pt x="621" y="254" on="0"/>
      </contour>
    </TTGlyph>
    <TTGlyph name="C" xMin="1" yMin="-44" xMax="820" yMax="676">
      <contour>
        <pt x="1" y="142" on="1"/>
        <pt x="2" y="235" on="0"/>
        <pt x="131" y="432" on="0"/>
        <pt x="323" y="581" on="0"/>
        <pt x="557" y="676" on="0"/>
        <pt x="660" y="676" on="1"/>
        <pt x="719" y="676" on="0"/>
        <pt x="820" y="627" on="0"/>
        <pt x="820" y="528" on="0"/>
        <pt x="707" y="413" on="0"/>
        <pt x="550" y="332" on="0"/>
        <pt x="491" y="332" on="1"/>
        <pt x="464" y="332" on="0"/>
        <pt x="406" y="362" on="0"/>
        <pt x="406" y="389" on="1"/>
        <pt x="406" y="404" on="0"/>
        <pt x="430" y="415" on="1"/>
        <pt x="515" y="449" on="0"/>
        <pt x="558" y="481" on="1"/>
        <pt x="567" y="491" on="0"/>
        <pt x="576" y="491" on="0"/>
        <pt x="576" y="483" on="1"/>
        <pt x="576" y="469" on="0"/>
        <pt x="542" y="450" on="1"/>
        <pt x="518" y="432" on="0"/>
        <pt x="518" y="428" on="0"/>
        <pt x="519" y="428" on="1"/>
        <pt x="539" y="428" on="0"/>
        <pt x="743" y="582" on="0"/>
        <pt x="743" y="604" on="1"/>
        <pt x="743" y="618" on="0"/>
        <pt x="716" y="618" on="1"/>
        <pt x="620" y="618" on="0"/>
        <pt x="422" y="527" on="0"/>
        <pt x="269" y="390" on="0"/>
        <pt x="145" y="237" on="0"/>
        <pt x="79" y="106" on="0"/>
        <pt x="79" y="70" on="1"/>
        <pt x="79" y="48" on="0"/>
        <pt x="100" y="48" on="1"/>
        <pt x="118" y="48" on="0"/>
        <pt x="226" y="80" on="0"/>
        <pt x="431" y="176" on="0"/>
        <pt x="526" y="243" on="1"/>
        <pt x="533" y="249" on="0"/>
        <pt x="538" y="249" on="0"/>
        <pt x="538" y="241" on="0"/>
        <pt x="503" y="181" on="0"/>
        <pt x="432" y="95" on="0"/>
        <pt x="342" y="14" on="0"/>
        <pt x="215" y="-44" on="0"/>
        <pt x="108" y="-44" on="0"/>
        <pt x="47" y="-6" on="0"/>
        <pt x="33" y="22" on="1"/>
        <pt x="4" y="78" on="0"/>
        <pt x="2" y="123" on="1"/>
      </contour>
    </TTGlyph>
    <TTGlyph name="Ccedilla" xMin="-63" yMin="-232" xMax="756" yMax="676">
      <contour>
        <pt x="86" y="-44" on="1"/>
        <pt x="78" y="-43" on="1"/>
        <pt x="76" y="-47" on="0"/>
        <pt x="52" y="-77" on="1"/>
        <pt x="64" y="-75" on="0"/>
        <pt x="97" y="-75" on="0"/>
        <pt x="126" y="-102" on="0"/>
        <pt x="126" y="-125" on="1"/>
        <pt x="126" y="-169" on="0"/>
        <pt x="37" y="-232" on="0"/>
        <pt x="-16" y="-232" on="1"/>
        <pt x="-46" y="-232" on="0"/>
        <pt x="-46" y="-218" on="1"/>
        <pt x="-46" y="-209" on="0"/>
        <pt x="7" y="-200" on="0"/>
        <pt x="54" y="-166" on="0"/>
        <pt x="54" y="-125" on="0"/>
        <pt x="35" y="-125" on="1"/>
        <pt x="21" y="-126" on="1"/>
        <pt x="9" y="-126" on="0"/>
        <pt x="9" y="-114" on="1"/>
        <pt x="9" y="-107" on="0"/>
        <pt x="44" y="-52" on="0"/>
        <pt x="49" y="-40" on="1"/>
        <pt x="18" y="-32" on="0"/>
        <pt x="-29" y="11" on="0"/>
        <pt x="-40" y="36" on="1"/>
        <pt x="-61" y="90" on="0"/>
        <pt x="-62" y="126" on="1"/>
        <pt x="-63" y="142" on="1"/>
        <pt x="-62" y="235" on="0"/>
        <pt x="67" y="432" on="0"/>
        <pt x="259" y="581" on="0"/>
        <pt x="493" y="676" on="0"/>
        <pt x="596" y="676" on="1"/>
        <pt x="655" y="676" on="0"/>
        <pt x="756" y="627" on="0"/>
        <pt x="756" y="528" on="0"/>
        <pt x="643" y="413" on="0"/>
        <pt x="486" y="332" on="0"/>
        <pt x="427" y="332" on="1"/>
        <pt x="400" y="332" on="0"/>
        <pt x="342" y="362" on="0"/>
        <pt x="342" y="389" on="1"/>
        <pt x="342" y="404" on="0"/>
        <pt x="366" y="415" on="1"/>
        <pt x="451" y="449" on="0"/>
        <pt x="494" y="481" on="1"/>
        <pt x="503" y="491" on="0"/>
        <pt x="512" y="491" on="0"/>
        <pt x="512" y="483" on="1"/>
        <pt x="512" y="469" on="0"/>
        <pt x="478" y="450" on="1"/>
        <pt x="454" y="432" on="0"/>
        <pt x="454" y="428" on="0"/>
        <pt x="455" y="428" on="1"/>
        <pt x="475" y="428" on="0"/>
        <pt x="679" y="582" on="0"/>
        <pt x="679" y="604" on="1"/>
        <pt x="679" y="618" on="0"/>
        <pt x="652" y="618" on="1"/>
        <pt x="556" y="618" on="0"/>
        <pt x="358" y="527" on="0"/>
        <pt x="205" y="390" on="0"/>
        <pt x="81" y="237" on="0"/>
        <pt x="15" y="106" on="0"/>
        <pt x="15" y="70" on="1"/>
        <pt x="15" y="48" on="0"/>
        <pt x="36" y="48" on="1"/>
        <pt x="54" y="48" on="0"/>
        <pt x="162" y="80" on="0"/>
        <pt x="367" y="176" on="0"/>
        <pt x="462" y="243" on="1"/>
        <pt x="469" y="249" on="0"/>
        <pt x="474" y="249" on="0"/>
        <pt x="474" y="241" on="0"/>
        <pt x="439" y="181" on="0"/>
        <pt x="368" y="95" on="0"/>
        <pt x="278" y="14" on="0"/>
        <pt x="151" y="-44" on="0"/>
      </contour>
    </TTGlyph>
    <TTGlyph name="D" xMin="-4" yMin="-76" xMax="895" yMax="644">
      <contour>
        <pt x="895" y="434" on="1"/>
        <pt x="895" y="374" on="0"/>
        <pt x="798" y="204" on="0"/>
        <pt x="646" y="46" on="0"/>
        <pt x="430" y="-66" on="0"/>
        <pt x="326" y="-67" on="1"/>
        <pt x="320" y="-67" on="0"/>
        <pt x="293" y="-56" on="0"/>
        <pt x="284" y="-48" on="1"/>
        <pt x="262" y="-27" on="0"/>
        <pt x="262" y="14" on="1"/>
        <pt x="269" y="51" on="0"/>
        <pt x="293" y="74" on="1"/>
        <pt x="301" y="82" on="0"/>
        <pt x="301" y="84" on="1"/>
        <pt x="300" y="84" on="1"/>
        <pt x="298" y="84" on="0"/>
        <pt x="290" y="79" on="1"/>
        <pt x="109" y="-56" on="1"/>
        <pt x="91" y="-76" on="0"/>
        <pt x="74" y="-76" on="1"/>
        <pt x="69" y="-76" on="0"/>
        <pt x="63" y="-73" on="1"/>
        <pt x="39" y="-50" on="1"/>
        <pt x="36" y="-48" on="0"/>
        <pt x="36" y="-31" on="0"/>
        <pt x="56" y="7" on="0"/>
        <pt x="118" y="98" on="0"/>
        <pt x="235" y="250" on="0"/>
        <pt x="422" y="435" on="0"/>
        <pt x="527" y="513" on="1"/>
        <pt x="548" y="533" on="0"/>
        <pt x="567" y="533" on="1"/>
        <pt x="572" y="533" on="0"/>
        <pt x="584" y="526" on="1"/>
        <pt x="600" y="518" on="0"/>
        <pt x="600" y="502" on="0"/>
        <pt x="595" y="498" on="1"/>
        <pt x="525" y="430" on="1"/>
        <pt x="279" y="176" on="0"/>
        <pt x="213" y="85" on="1"/>
        <pt x="205" y="76" on="0"/>
        <pt x="205" y="69" on="0"/>
        <pt x="210" y="69" on="0"/>
        <pt x="213" y="72" on="1"/>
        <pt x="292" y="125" on="0"/>
        <pt x="387" y="169" on="1"/>
        <pt x="394" y="173" on="0"/>
        <pt x="405" y="173" on="0"/>
        <pt x="408" y="169" on="1"/>
        <pt x="427" y="146" on="1"/>
        <pt x="431" y="140" on="0"/>
        <pt x="431" y="129" on="0"/>
        <pt x="427" y="126" on="1"/>
        <pt x="416" y="114" on="1"/>
        <pt x="357" y="56" on="0"/>
        <pt x="355" y="40" on="1"/>
        <pt x="356" y="35" on="0"/>
        <pt x="360" y="35" on="1"/>
        <pt x="419" y="35" on="0"/>
        <pt x="649" y="177" on="0"/>
        <pt x="839" y="372" on="0"/>
        <pt x="839" y="436" on="1"/>
        <pt x="839" y="458" on="0"/>
        <pt x="794" y="504" on="0"/>
        <pt x="769" y="518" on="1"/>
        <pt x="707" y="551" on="0"/>
        <pt x="523" y="551" on="0"/>
        <pt x="355" y="510" on="0"/>
        <pt x="226" y="450" on="0"/>
        <pt x="121" y="383" on="0"/>
        <pt x="65" y="328" on="0"/>
        <pt x="65" y="315" on="1"/>
        <pt x="65" y="312" on="0"/>
        <pt x="68" y="312" on="1"/>
        <pt x="99" y="312" on="0"/>
        <pt x="272" y="398" on="0"/>
        <pt x="300" y="425" on="1"/>
        <pt x="325" y="443" on="0"/>
        <pt x="332" y="443" on="1"/>
        <pt x="336" y="443" on="0"/>
        <pt x="336" y="428" on="0"/>
        <pt x="310" y="390" on="0"/>
        <pt x="260" y="337" on="0"/>
        <pt x="200" y="286" on="0"/>
        <pt x="122" y="250" on="0"/>
        <pt x="62" y="250" on="0"/>
        <pt x="-4" y="303" on="0"/>
        <pt x="-4" y="343" on="1"/>
        <pt x="-4" y="422" on="0"/>
        <pt x="198" y="566" on="0"/>
        <pt x="465" y="644" on="0"/>
        <pt x="653" y="644" on="0"/>
        <pt x="773" y="608" on="0"/>
        <pt x="838" y="558" on="0"/>
        <pt x="860" y="526" on="1"/>
        <pt x="892" y="478" on="0"/>
      </contour>
    </TTGlyph>
    <TTGlyph name="E" xMin="-57" yMin="-61" xMax="854" yMax="629">
      <contour>
        <pt x="16" y="514" on="1"/>
        <pt x="16" y="529" on="0"/>
        <pt x="36" y="540" on="1"/>
        <pt x="153" y="586" on="1"/>
        <pt x="157" y="588" on="0"/>
        <pt x="172" y="588" on="0"/>
        <pt x="184" y="574" on="0"/>
        <pt x="198" y="574" on="0"/>
        <pt x="243" y="585" on="0"/>
        <pt x="319" y="602" on="0"/>
        <pt x="366" y="610" on="1"/>
        <pt x="476" y="629" on="0"/>
        <pt x="595" y="629" on="1"/>
        <pt x="736" y="629" on="0"/>
        <pt x="797" y="608" on="1"/>
        <pt x="821" y="599" on="0"/>
        <pt x="854" y="568" on="0"/>
        <pt x="854" y="546" on="1"/>
        <pt x="854" y="533" on="0"/>
        <pt x="836" y="533" on="1"/>
        <pt x="586" y="526" on="0"/>
        <pt x="427" y="501" on="1"/>
        <pt x="411" y="499" on="0"/>
        <pt x="411" y="490" on="1"/>
        <pt x="411" y="487" on="0"/>
        <pt x="412" y="482" on="0"/>
        <pt x="404" y="473" on="1"/>
        <pt x="291" y="352" on="1"/>
        <pt x="284" y="345" on="0"/>
        <pt x="284" y="338" on="0"/>
        <pt x="289" y="338" on="0"/>
        <pt x="299" y="340" on="1"/>
        <pt x="364" y="344" on="0"/>
        <pt x="474" y="344" on="0"/>
        <pt x="482" y="338" on="1"/>
        <pt x="526" y="305" on="0"/>
        <pt x="541" y="285" on="0"/>
        <pt x="541" y="279" on="1"/>
        <pt x="541" y="266" on="0"/>
        <pt x="519" y="263" on="1"/>
        <pt x="255" y="237" on="0"/>
        <pt x="213" y="238" on="0"/>
        <pt x="207" y="238" on="1"/>
        <pt x="191" y="238" on="0"/>
        <pt x="171" y="213" on="1"/>
        <pt x="49" y="51" on="1"/>
        <pt x="44" y="43" on="0"/>
        <pt x="44" y="36" on="0"/>
        <pt x="52" y="36" on="0"/>
        <pt x="60" y="40" on="1"/>
        <pt x="154" y="55" on="0"/>
        <pt x="317" y="55" on="0"/>
        <pt x="357" y="50" on="1"/>
        <pt x="412" y="50" on="0"/>
        <pt x="475" y="-31" on="1"/>
        <pt x="480" y="-38" on="0"/>
        <pt x="480" y="-50" on="0"/>
        <pt x="465" y="-50" on="1"/>
        <pt x="216" y="-50" on="0"/>
        <pt x="86" y="-60" on="1"/>
        <pt x="81" y="-61" on="0"/>
        <pt x="73" y="-61" on="1"/>
        <pt x="30" y="-61" on="0"/>
        <pt x="14" y="-41" on="1"/>
        <pt x="11" y="-35" on="0"/>
        <pt x="-3" y="-35" on="0"/>
        <pt x="-14" y="-49" on="0"/>
        <pt x="-20" y="-49" on="0"/>
        <pt x="-38" y="-37" on="0"/>
        <pt x="-57" y="-8" on="0"/>
        <pt x="-57" y="25" on="0"/>
        <pt x="-44" y="53" on="0"/>
        <pt x="-23" y="97" on="0"/>
        <pt x="50" y="204" on="0"/>
        <pt x="90" y="242" on="1"/>
        <pt x="95" y="247" on="0"/>
        <pt x="95" y="256" on="0"/>
        <pt x="74" y="256" on="0"/>
        <pt x="53" y="271" on="0"/>
        <pt x="53" y="298" on="0"/>
        <pt x="88" y="307" on="1"/>
        <pt x="142" y="321" on="1"/>
        <pt x="143" y="321" on="0"/>
        <pt x="143" y="321" on="1"/>
        <pt x="159" y="321" on="0"/>
        <pt x="175" y="342" on="1"/>
        <pt x="291" y="455" on="0"/>
        <pt x="317" y="468" on="1"/>
        <pt x="326" y="474" on="0"/>
        <pt x="326" y="481" on="0"/>
        <pt x="314" y="481" on="0"/>
        <pt x="310" y="480" on="1"/>
        <pt x="217" y="465" on="0"/>
        <pt x="107" y="465" on="0"/>
        <pt x="57" y="475" on="0"/>
        <pt x="45" y="482" on="1"/>
        <pt x="19" y="499" on="0"/>
        <pt x="17" y="509" on="1"/>
      </contour>
    </TTGlyph>
    <TTGlyph name="Eacute" xMin="-57" yMin="-61" xMax="854" yMax="844">
      <contour>
        <pt x="126" y="465" on="1"/>
        <pt x="214" y="465" on="0"/>
        <pt x="284" y="476" on="1"/>
        <pt x="310" y="480" on="1"/>
        <pt x="314" y="481" on="0"/>
        <pt x="326" y="481" on="0"/>
        <pt x="326" y="478" on="1"/>
        <pt x="326" y="473" on="0"/>
        <pt x="316" y="468" on="1"/>
        <pt x="292" y="455" on="0"/>
        <pt x="204" y="370" on="1"/>
        <pt x="175" y="342" on="1"/>
        <pt x="160" y="323" on="0"/>
        <pt x="142" y="321" on="1"/>
        <pt x="88" y="307" on="1"/>
        <pt x="53" y="298" on="0"/>
        <pt x="53" y="271" on="0"/>
        <pt x="74" y="256" on="0"/>
        <pt x="95" y="256" on="0"/>
        <pt x="95" y="251" on="1"/>
        <pt x="90" y="242" on="1"/>
        <pt x="50" y="204" on="0"/>
        <pt x="-20" y="103" on="0"/>
        <pt x="-35" y="72" on="1"/>
        <pt x="-50" y="40" on="1"/>
        <pt x="-57" y="25" on="0"/>
        <pt x="-57" y="-8" on="0"/>
        <pt x="-38" y="-37" on="0"/>
        <pt x="-20" y="-49" on="0"/>
        <pt x="-16" y="-49" on="1"/>
        <pt x="-13" y="-47" on="1"/>
        <pt x="-3" y="-35" on="0"/>
        <pt x="2" y="-35" on="1"/>
        <pt x="10" y="-35" on="0"/>
        <pt x="14" y="-41" on="1"/>
        <pt x="30" y="-61" on="0"/>
        <pt x="73" y="-61" on="1"/>
        <pt x="86" y="-60" on="1"/>
        <pt x="202" y="-52" on="0"/>
        <pt x="399" y="-50" on="1"/>
        <pt x="465" y="-50" on="1"/>
        <pt x="480" y="-50" on="0"/>
        <pt x="480" y="-43" on="1"/>
        <pt x="475" y="-31" on="1"/>
        <pt x="412" y="50" on="0"/>
        <pt x="357" y="50" on="1"/>
        <pt x="317" y="55" on="0"/>
        <pt x="264" y="55" on="1"/>
        <pt x="159" y="55" on="0"/>
        <pt x="86" y="44" on="1"/>
        <pt x="60" y="40" on="1"/>
        <pt x="52" y="36" on="0"/>
        <pt x="44" y="36" on="0"/>
        <pt x="44" y="39" on="1"/>
        <pt x="49" y="51" on="1"/>
        <pt x="171" y="213" on="1"/>
        <pt x="191" y="238" on="0"/>
        <pt x="207" y="238" on="1"/>
        <pt x="217" y="237" on="1"/>
        <pt x="519" y="263" on="1"/>
        <pt x="541" y="266" on="0"/>
        <pt x="541" y="279" on="1"/>
        <pt x="541" y="295" on="0"/>
        <pt x="503" y="322" on="1"/>
        <pt x="494" y="329" on="0"/>
        <pt x="474" y="344" on="0"/>
        <pt x="417" y="344" on="1"/>
        <pt x="299" y="340" on="1"/>
        <pt x="289" y="338" on="0"/>
        <pt x="284" y="338" on="0"/>
        <pt x="284" y="341" on="1"/>
        <pt x="291" y="352" on="1"/>
        <pt x="404" y="473" on="1"/>
        <pt x="412" y="485" on="1"/>
        <pt x="411" y="487" on="0"/>
        <pt x="411" y="494" on="0"/>
        <pt x="419" y="500" on="0"/>
        <pt x="498" y="512" on="0"/>
        <pt x="702" y="528" on="0"/>
        <pt x="769" y="530" on="1"/>
        <pt x="836" y="533" on="1"/>
        <pt x="854" y="533" on="0"/>
        <pt x="854" y="546" on="1"/>
        <pt x="854" y="599" on="0"/>
        <pt x="767" y="616" on="1"/>
        <pt x="699" y="629" on="0"/>
        <pt x="535" y="629" on="0"/>
        <pt x="412" y="618" on="0"/>
        <pt x="319" y="602" on="0"/>
        <pt x="243" y="585" on="0"/>
        <pt x="198" y="574" on="0"/>
        <pt x="194" y="574" on="1"/>
        <pt x="185" y="574" on="0"/>
        <pt x="172" y="588" on="0"/>
        <pt x="162" y="588" on="1"/>
        <pt x="153" y="586" on="1"/>
        <pt x="36" y="540" on="1"/>
        <pt x="16" y="529" on="0"/>
        <pt x="16" y="518" on="1"/>
        <pt x="16" y="498" on="0"/>
        <pt x="77" y="465" on="0"/>
      </contour>
      <contour>
        <pt x="461" y="671" on="1"/>
        <pt x="461" y="680" on="0"/>
        <pt x="478" y="697" on="1"/>
        <pt x="522" y="723" on="0"/>
        <pt x="588" y="790" on="0"/>
        <pt x="599" y="810" on="1"/>
        <pt x="610" y="830" on="1"/>
        <pt x="620" y="844" on="0"/>
        <pt x="652" y="844" on="0"/>
        <pt x="673" y="808" on="0"/>
        <pt x="673" y="789" on="1"/>
        <pt x="671" y="766" on="1"/>
        <pt x="650" y="727" on="0"/>
        <pt x="602" y="700" on="1"/>
        <pt x="526" y="656" on="0"/>
        <pt x="476" y="656" on="1"/>
        <pt x="461" y="656" on="0"/>
      </contour>
    </TTGlyph>
    <TTGlyph name="Ecircumflex" xMin="-57" yMin="-61" xMax="854" yMax="848">
      <contour>
        <pt x="126" y="465" on="1"/>
        <pt x="214" y="465" on="0"/>
        <pt x="284" y="476" on="1"/>
        <pt x="310" y="480" on="1"/>
        <pt x="314" y="481" on="0"/>
        <pt x="326" y="481" on="0"/>
        <pt x="326" y="478" on="1"/>
        <pt x="326" y="473" on="0"/>
        <pt x="316" y="468" on="1"/>
        <pt x="292" y="455" on="0"/>
        <pt x="204" y="370" on="1"/>
        <pt x="175" y="342" on="1"/>
        <pt x="160" y="323" on="0"/>
        <pt x="142" y="321" on="1"/>
        <pt x="88" y="307" on="1"/>
        <pt x="53" y="298" on="0"/>
        <pt x="53" y="271" on="0"/>
        <pt x="74" y="256" on="0"/>
        <pt x="95" y="256" on="0"/>
        <pt x="95" y="251" on="1"/>
        <pt x="90" y="242" on="1"/>
        <pt x="50" y="204" on="0"/>
        <pt x="-20" y="103" on="0"/>
        <pt x="-35" y="72" on="1"/>
        <pt x="-50" y="40" on="1"/>
        <pt x="-57" y="25" on="0"/>
        <pt x="-57" y="-8" on="0"/>
        <pt x="-38" y="-37" on="0"/>
        <pt x="-20" y="-49" on="0"/>
        <pt x="-16" y="-49" on="1"/>
        <pt x="-13" y="-47" on="1"/>
        <pt x="-3" y="-35" on="0"/>
        <pt x="2" y="-35" on="1"/>
        <pt x="10" y="-35" on="0"/>
        <pt x="14" y="-41" on="1"/>
        <pt x="30" y="-61" on="0"/>
        <pt x="73" y="-61" on="1"/>
        <pt x="86" y="-60" on="1"/>
        <pt x="202" y="-52" on="0"/>
        <pt x="399" y="-50" on="1"/>
        <pt x="465" y="-50" on="1"/>
        <pt x="480" y="-50" on="0"/>
        <pt x="480" y="-43" on="1"/>
        <pt x="475" y="-31" on="1"/>
        <pt x="412" y="50" on="0"/>
        <pt x="357" y="50" on="1"/>
        <pt x="317" y="55" on="0"/>
        <pt x="264" y="55" on="1"/>
        <pt x="159" y="55" on="0"/>
        <pt x="86" y="44" on="1"/>
        <pt x="60" y="40" on="1"/>
        <pt x="52" y="36" on="0"/>
        <pt x="44" y="36" on="0"/>
        <pt x="44" y="39" on="1"/>
        <pt x="49" y="51" on="1"/>
        <pt x="171" y="213" on="1"/>
        <pt x="191" y="238" on="0"/>
        <pt x="207" y="238" on="1"/>
        <pt x="217" y="237" on="1"/>
        <pt x="519" y="263" on="1"/>
        <pt x="541" y="266" on="0"/>
        <pt x="541" y="279" on="1"/>
        <pt x="541" y="295" on="0"/>
        <pt x="503" y="322" on="1"/>
        <pt x="494" y="329" on="0"/>
        <pt x="474" y="344" on="0"/>
        <pt x="417" y="344" on="1"/>
        <pt x="299" y="340" on="1"/>
        <pt x="289" y="338" on="0"/>
        <pt x="284" y="338" on="0"/>
        <pt x="284" y="341" on="1"/>
        <pt x="291" y="352" on="1"/>
        <pt x="404" y="473" on="1"/>
        <pt x="412" y="485" on="1"/>
        <pt x="411" y="487" on="0"/>
        <pt x="411" y="494" on="0"/>
        <pt x="419" y="500" on="0"/>
        <pt x="498" y="512" on="0"/>
        <pt x="702" y="528" on="0"/>
        <pt x="769" y="530" on="1"/>
        <pt x="836" y="533" on="1"/>
        <pt x="854" y="533" on="0"/>
        <pt x="854" y="546" on="1"/>
        <pt x="854" y="599" on="0"/>
        <pt x="767" y="616" on="1"/>
        <pt x="699" y="629" on="0"/>
        <pt x="535" y="629" on="0"/>
        <pt x="412" y="618" on="0"/>
        <pt x="319" y="602" on="0"/>
        <pt x="243" y="585" on="0"/>
        <pt x="198" y="574" on="0"/>
        <pt x="194" y="574" on="1"/>
        <pt x="185" y="574" on="0"/>
        <pt x="172" y="588" on="0"/>
        <pt x="162" y="588" on="1"/>
        <pt x="153" y="586" on="1"/>
        <pt x="36" y="540" on="1"/>
        <pt x="16" y="529" on="0"/>
        <pt x="16" y="518" on="1"/>
        <pt x="16" y="498" on="0"/>
        <pt x="77" y="465" on="0"/>
      </contour>
      <contour>
        <pt x="651" y="787" on="1"/>
        <pt x="651" y="749" on="0"/>
        <pt x="680" y="686" on="1"/>
        <pt x="679" y="674" on="0"/>
        <pt x="649" y="674" on="1"/>
        <pt x="631" y="674" on="0"/>
        <pt x="574" y="750" on="0"/>
        <pt x="574" y="760" on="1"/>
        <pt x="533" y="727" on="0"/>
        <pt x="400" y="676" on="0"/>
        <pt x="367" y="676" on="1"/>
        <pt x="356" y="676" on="0"/>
        <pt x="343" y="686" on="0"/>
        <pt x="343" y="691" on="1"/>
        <pt x="343" y="710" on="0"/>
        <pt x="356" y="710" on="1"/>
        <pt x="402" y="720" on="0"/>
        <pt x="503" y="789" on="0"/>
        <pt x="569" y="848" on="0"/>
        <pt x="584" y="848" on="0"/>
        <pt x="592" y="844" on="1"/>
        <pt x="611" y="837" on="0"/>
        <pt x="611" y="834" on="1"/>
        <pt x="617" y="836" on="0"/>
        <pt x="629" y="836" on="1"/>
        <pt x="658" y="833" on="0"/>
        <pt x="658" y="818" on="1"/>
      </contour>
    </TTGlyph>
    <TTGlyph name="Edieresis" xMin="-57" yMin="-61" xMax="854" yMax="787">
      <contour>
        <pt x="16" y="514" on="1"/>
        <pt x="16" y="529" on="0"/>
        <pt x="36" y="540" on="1"/>
        <pt x="153" y="586" on="1"/>
        <pt x="157" y="588" on="0"/>
        <pt x="172" y="588" on="0"/>
        <pt x="184" y="574" on="0"/>
        <pt x="198" y="574" on="0"/>
        <pt x="243" y="585" on="0"/>
        <pt x="319" y="602" on="0"/>
        <pt x="366" y="610" on="1"/>
        <pt x="476" y="629" on="0"/>
        <pt x="595" y="629" on="1"/>
        <pt x="736" y="629" on="0"/>
        <pt x="797" y="608" on="1"/>
        <pt x="821" y="599" on="0"/>
        <pt x="854" y="568" on="0"/>
        <pt x="854" y="546" on="1"/>
        <pt x="854" y="533" on="0"/>
        <pt x="836" y="533" on="1"/>
        <pt x="586" y="526" on="0"/>
        <pt x="427" y="501" on="1"/>
        <pt x="411" y="499" on="0"/>
        <pt x="411" y="490" on="1"/>
        <pt x="411" y="487" on="0"/>
        <pt x="412" y="482" on="0"/>
        <pt x="404" y="473" on="1"/>
        <pt x="291" y="352" on="1"/>
        <pt x="284" y="345" on="0"/>
        <pt x="284" y="338" on="0"/>
        <pt x="289" y="338" on="0"/>
        <pt x="299" y="340" on="1"/>
        <pt x="364" y="344" on="0"/>
        <pt x="474" y="344" on="0"/>
        <pt x="482" y="338" on="1"/>
        <pt x="526" y="305" on="0"/>
        <pt x="541" y="285" on="0"/>
        <pt x="541" y="279" on="1"/>
        <pt x="541" y="266" on="0"/>
        <pt x="519" y="263" on="1"/>
        <pt x="255" y="237" on="0"/>
        <pt x="213" y="238" on="0"/>
        <pt x="207" y="238" on="1"/>
        <pt x="191" y="238" on="0"/>
        <pt x="171" y="213" on="1"/>
        <pt x="49" y="51" on="1"/>
        <pt x="44" y="43" on="0"/>
        <pt x="44" y="36" on="0"/>
        <pt x="52" y="36" on="0"/>
        <pt x="60" y="40" on="1"/>
        <pt x="154" y="55" on="0"/>
        <pt x="317" y="55" on="0"/>
        <pt x="357" y="50" on="1"/>
        <pt x="412" y="50" on="0"/>
        <pt x="475" y="-31" on="1"/>
        <pt x="480" y="-38" on="0"/>
        <pt x="480" y="-50" on="0"/>
        <pt x="465" y="-50" on="1"/>
        <pt x="216" y="-50" on="0"/>
        <pt x="86" y="-60" on="1"/>
        <pt x="81" y="-61" on="0"/>
        <pt x="73" y="-61" on="1"/>
        <pt x="30" y="-61" on="0"/>
        <pt x="14" y="-41" on="1"/>
        <pt x="11" y="-35" on="0"/>
        <pt x="-3" y="-35" on="0"/>
        <pt x="-14" y="-49" on="0"/>
        <pt x="-20" y="-49" on="0"/>
        <pt x="-38" y="-37" on="0"/>
        <pt x="-57" y="-8" on="0"/>
        <pt x="-57" y="25" on="0"/>
        <pt x="-44" y="53" on="0"/>
        <pt x="-23" y="97" on="0"/>
        <pt x="50" y="204" on="0"/>
        <pt x="90" y="242" on="1"/>
        <pt x="95" y="247" on="0"/>
        <pt x="95" y="256" on="0"/>
        <pt x="74" y="256" on="0"/>
        <pt x="53" y="271" on="0"/>
        <pt x="53" y="298" on="0"/>
        <pt x="88" y="307" on="1"/>
        <pt x="142" y="321" on="1"/>
        <pt x="143" y="321" on="0"/>
        <pt x="143" y="321" on="1"/>
        <pt x="159" y="321" on="0"/>
        <pt x="175" y="342" on="1"/>
        <pt x="291" y="455" on="0"/>
        <pt x="317" y="468" on="1"/>
        <pt x="326" y="474" on="0"/>
        <pt x="326" y="481" on="0"/>
        <pt x="314" y="481" on="0"/>
        <pt x="310" y="480" on="1"/>
        <pt x="217" y="465" on="0"/>
        <pt x="107" y="465" on="0"/>
        <pt x="57" y="475" on="0"/>
        <pt x="45" y="482" on="1"/>
        <pt x="19" y="499" on="0"/>
        <pt x="17" y="509" on="1"/>
      </contour>
      <contour>
        <pt x="485" y="787" on="1"/>
        <pt x="495" y="787" on="0"/>
        <pt x="498" y="783" on="1"/>
        <pt x="512" y="766" on="0"/>
        <pt x="512" y="745" on="0"/>
        <pt x="500" y="730" on="0"/>
        <pt x="483" y="711" on="0"/>
        <pt x="432" y="678" on="0"/>
        <pt x="408" y="678" on="1"/>
        <pt x="390" y="681" on="0"/>
        <pt x="390" y="700" on="1"/>
        <pt x="390" y="730" on="0"/>
        <pt x="462" y="787" on="0"/>
      </contour>
      <contour>
        <pt x="652" y="787" on="1"/>
        <pt x="662" y="787" on="0"/>
        <pt x="665" y="783" on="1"/>
        <pt x="679" y="766" on="0"/>
        <pt x="679" y="745" on="0"/>
        <pt x="667" y="730" on="0"/>
        <pt x="650" y="711" on="0"/>
        <pt x="599" y="678" on="0"/>
        <pt x="575" y="678" on="1"/>
        <pt x="557" y="681" on="0"/>
        <pt x="557" y="700" on="1"/>
        <pt x="557" y="730" on="0"/>
        <pt x="629" y="787" on="0"/>
      </contour>
    </TTGlyph>
    <TTGlyph name="Egrave" xMin="-57" yMin="-61" xMax="854" yMax="885">
      <contour>
        <pt x="16" y="514" on="1"/>
        <pt x="16" y="529" on="0"/>
        <pt x="36" y="540" on="1"/>
        <pt x="153" y="586" on="1"/>
        <pt x="157" y="588" on="0"/>
        <pt x="172" y="588" on="0"/>
        <pt x="184" y="574" on="0"/>
        <pt x="198" y="574" on="0"/>
        <pt x="243" y="585" on="0"/>
        <pt x="319" y="602" on="0"/>
        <pt x="366" y="610" on="1"/>
        <pt x="476" y="629" on="0"/>
        <pt x="595" y="629" on="1"/>
        <pt x="736" y="629" on="0"/>
        <pt x="797" y="608" on="1"/>
        <pt x="821" y="599" on="0"/>
        <pt x="854" y="568" on="0"/>
        <pt x="854" y="546" on="1"/>
        <pt x="854" y="533" on="0"/>
        <pt x="836" y="533" on="1"/>
        <pt x="586" y="526" on="0"/>
        <pt x="427" y="501" on="1"/>
        <pt x="411" y="499" on="0"/>
        <pt x="411" y="490" on="1"/>
        <pt x="411" y="487" on="0"/>
        <pt x="412" y="482" on="0"/>
        <pt x="404" y="473" on="1"/>
        <pt x="291" y="352" on="1"/>
        <pt x="284" y="345" on="0"/>
        <pt x="284" y="338" on="0"/>
        <pt x="289" y="338" on="0"/>
        <pt x="299" y="340" on="1"/>
        <pt x="364" y="344" on="0"/>
        <pt x="474" y="344" on="0"/>
        <pt x="482" y="338" on="1"/>
        <pt x="526" y="305" on="0"/>
        <pt x="541" y="285" on="0"/>
        <pt x="541" y="279" on="1"/>
        <pt x="541" y="266" on="0"/>
        <pt x="519" y="263" on="1"/>
        <pt x="255" y="237" on="0"/>
        <pt x="213" y="238" on="0"/>
        <pt x="207" y="238" on="1"/>
        <pt x="191" y="238" on="0"/>
        <pt x="171" y="213" on="1"/>
        <pt x="49" y="51" on="1"/>
        <pt x="44" y="43" on="0"/>
        <pt x="44" y="36" on="0"/>
        <pt x="52" y="36" on="0"/>
        <pt x="60" y="40" on="1"/>
        <pt x="154" y="55" on="0"/>
        <pt x="317" y="55" on="0"/>
        <pt x="357" y="50" on="1"/>
        <pt x="412" y="50" on="0"/>
        <pt x="475" y="-31" on="1"/>
        <pt x="480" y="-38" on="0"/>
        <pt x="480" y="-50" on="0"/>
        <pt x="465" y="-50" on="1"/>
        <pt x="216" y="-50" on="0"/>
        <pt x="86" y="-60" on="1"/>
        <pt x="81" y="-61" on="0"/>
        <pt x="73" y="-61" on="1"/>
        <pt x="30" y="-61" on="0"/>
        <pt x="14" y="-41" on="1"/>
        <pt x="11" y="-35" on="0"/>
        <pt x="-3" y="-35" on="0"/>
        <pt x="-14" y="-49" on="0"/>
        <pt x="-20" y="-49" on="0"/>
        <pt x="-38" y="-37" on="0"/>
        <pt x="-57" y="-8" on="0"/>
        <pt x="-57" y="25" on="0"/>
        <pt x="-44" y="53" on="0"/>
        <pt x="-23" y="97" on="0"/>
        <pt x="50" y="204" on="0"/>
        <pt x="90" y="242" on="1"/>
        <pt x="95" y="247" on="0"/>
        <pt x="95" y="256" on="0"/>
        <pt x="74" y="256" on="0"/>
        <pt x="53" y="271" on="0"/>
        <pt x="53" y="298" on="0"/>
        <pt x="88" y="307" on="1"/>
        <pt x="142" y="321" on="1"/>
        <pt x="143" y="321" on="0"/>
        <pt x="143" y="321" on="1"/>
        <pt x="159" y="321" on="0"/>
        <pt x="175" y="342" on="1"/>
        <pt x="291" y="455" on="0"/>
        <pt x="317" y="468" on="1"/>
        <pt x="326" y="474" on="0"/>
        <pt x="326" y="481" on="0"/>
        <pt x="314" y="481" on="0"/>
        <pt x="310" y="480" on="1"/>
        <pt x="217" y="465" on="0"/>
        <pt x="107" y="465" on="0"/>
        <pt x="57" y="475" on="0"/>
        <pt x="45" y="482" on="1"/>
        <pt x="19" y="499" on="0"/>
        <pt x="17" y="509" on="1"/>
      </contour>
      <contour>
        <pt x="577" y="702" on="1"/>
        <pt x="587" y="688" on="0"/>
        <pt x="587" y="673" on="1"/>
        <pt x="583" y="662" on="0"/>
        <pt x="571" y="662" on="1"/>
        <pt x="558" y="665" on="0"/>
        <pt x="497" y="698" on="0"/>
        <pt x="418" y="776" on="0"/>
        <pt x="409" y="819" on="1"/>
        <pt x="414" y="846" on="1"/>
        <pt x="427" y="885" on="0"/>
        <pt x="456" y="885" on="1"/>
        <pt x="475" y="885" on="0"/>
        <pt x="484" y="865" on="1"/>
        <pt x="491" y="832" on="0"/>
        <pt x="542" y="739" on="0"/>
      </contour>
    </TTGlyph>
    <TTGlyph name="Eth" xMin="-132" yMin="-76" xMax="767" yMax="644">
      <contour>
        <pt x="767" y="434" on="1"/>
        <pt x="767" y="374" on="0"/>
        <pt x="670" y="204" on="0"/>
        <pt x="518" y="46" on="0"/>
        <pt x="302" y="-66" on="0"/>
        <pt x="198" y="-67" on="1"/>
        <pt x="192" y="-67" on="0"/>
        <pt x="165" y="-56" on="0"/>
        <pt x="156" y="-48" on="1"/>
        <pt x="134" y="-27" on="0"/>
        <pt x="134" y="14" on="1"/>
        <pt x="141" y="51" on="0"/>
        <pt x="165" y="74" on="1"/>
        <pt x="173" y="82" on="0"/>
        <pt x="173" y="84" on="1"/>
        <pt x="172" y="84" on="1"/>
        <pt x="170" y="84" on="0"/>
        <pt x="162" y="79" on="1"/>
        <pt x="-19" y="-56" on="1"/>
        <pt x="-37" y="-76" on="0"/>
        <pt x="-54" y="-76" on="1"/>
        <pt x="-59" y="-76" on="0"/>
        <pt x="-65" y="-73" on="1"/>
        <pt x="-89" y="-50" on="1"/>
        <pt x="-92" y="-48" on="0"/>
        <pt x="-92" y="-31" on="0"/>
        <pt x="-83" y="-14" on="1"/>
        <pt x="-47" y="57" on="0"/>
        <pt x="56" y="184" on="1"/>
        <pt x="-2" y="175" on="0"/>
        <pt x="-31" y="174" on="0"/>
        <pt x="-50" y="185" on="0"/>
        <pt x="-51" y="192" on="1"/>
        <pt x="-51" y="199" on="0"/>
        <pt x="-18" y="209" on="1"/>
        <pt x="101" y="237" on="1"/>
        <pt x="236" y="391" on="0"/>
        <pt x="399" y="513" on="1"/>
        <pt x="420" y="533" on="0"/>
        <pt x="439" y="533" on="1"/>
        <pt x="444" y="533" on="0"/>
        <pt x="456" y="526" on="1"/>
        <pt x="472" y="518" on="0"/>
        <pt x="472" y="502" on="0"/>
        <pt x="467" y="498" on="1"/>
        <pt x="397" y="430" on="1"/>
        <pt x="324" y="355" on="0"/>
        <pt x="247" y="272" on="1"/>
        <pt x="276" y="279" on="1"/>
        <pt x="326" y="288" on="0"/>
        <pt x="341" y="288" on="1"/>
        <pt x="356" y="283" on="1"/>
        <pt x="402" y="268" on="0"/>
        <pt x="404" y="260" on="1"/>
        <pt x="404" y="253" on="0"/>
        <pt x="384" y="249" on="1"/>
        <pt x="289" y="228" on="0"/>
        <pt x="190" y="209" on="1"/>
        <pt x="111" y="122" on="0"/>
        <pt x="85" y="85" on="1"/>
        <pt x="77" y="76" on="0"/>
        <pt x="77" y="69" on="0"/>
        <pt x="82" y="69" on="0"/>
        <pt x="85" y="72" on="1"/>
        <pt x="164" y="125" on="0"/>
        <pt x="259" y="169" on="1"/>
        <pt x="266" y="173" on="0"/>
        <pt x="277" y="173" on="0"/>
        <pt x="280" y="169" on="1"/>
        <pt x="299" y="146" on="1"/>
        <pt x="303" y="140" on="0"/>
        <pt x="303" y="129" on="0"/>
        <pt x="299" y="126" on="1"/>
        <pt x="288" y="114" on="1"/>
        <pt x="229" y="56" on="0"/>
        <pt x="227" y="40" on="1"/>
        <pt x="228" y="35" on="0"/>
        <pt x="232" y="35" on="1"/>
        <pt x="291" y="35" on="0"/>
        <pt x="521" y="177" on="0"/>
        <pt x="711" y="372" on="0"/>
        <pt x="711" y="436" on="1"/>
        <pt x="711" y="458" on="0"/>
        <pt x="666" y="504" on="0"/>
        <pt x="641" y="518" on="1"/>
        <pt x="579" y="551" on="0"/>
        <pt x="395" y="551" on="0"/>
        <pt x="227" y="510" on="0"/>
        <pt x="98" y="450" on="0"/>
        <pt x="-7" y="383" on="0"/>
        <pt x="-63" y="328" on="0"/>
        <pt x="-63" y="315" on="1"/>
        <pt x="-63" y="312" on="0"/>
        <pt x="-60" y="312" on="1"/>
        <pt x="-29" y="312" on="0"/>
        <pt x="144" y="398" on="0"/>
        <pt x="172" y="425" on="1"/>
        <pt x="197" y="443" on="0"/>
        <pt x="204" y="443" on="1"/>
        <pt x="208" y="443" on="0"/>
        <pt x="208" y="428" on="0"/>
        <pt x="182" y="390" on="0"/>
        <pt x="132" y="337" on="0"/>
        <pt x="72" y="286" on="0"/>
        <pt x="-6" y="250" on="0"/>
        <pt x="-66" y="250" on="0"/>
        <pt x="-132" y="303" on="0"/>
        <pt x="-132" y="343" on="1"/>
        <pt x="-132" y="422" on="0"/>
        <pt x="70" y="566" on="0"/>
        <pt x="337" y="644" on="0"/>
        <pt x="525" y="644" on="0"/>
        <pt x="645" y="608" on="0"/>
        <pt x="710" y="558" on="0"/>
        <pt x="732" y="526" on="1"/>
        <pt x="764" y="478" on="0"/>
      </contour>
    </TTGlyph>
    <TTGlyph name="Euro" xMin="-4" yMin="-44" xMax="938" yMax="676">
      <contour>
        <pt x="494" y="305" on="1"/>
        <pt x="453" y="296" on="0"/>
        <pt x="323" y="288" on="1"/>
        <pt x="303" y="287" on="1"/>
        <pt x="301" y="283" on="0"/>
        <pt x="266" y="233" on="1"/>
        <pt x="417" y="238" on="1"/>
        <pt x="447" y="237" on="0"/>
        <pt x="454" y="230" on="1"/>
        <pt x="454" y="213" on="0"/>
        <pt x="429" y="205" on="1"/>
        <pt x="378" y="195" on="0"/>
        <pt x="239" y="187" on="1"/>
        <pt x="197" y="111" on="0"/>
        <pt x="197" y="70" on="1"/>
        <pt x="197" y="48" on="0"/>
        <pt x="218" y="48" on="1"/>
        <pt x="236" y="48" on="0"/>
        <pt x="344" y="80" on="0"/>
        <pt x="549" y="176" on="0"/>
        <pt x="644" y="243" on="1"/>
        <pt x="651" y="249" on="0"/>
        <pt x="656" y="249" on="0"/>
        <pt x="656" y="241" on="0"/>
        <pt x="621" y="181" on="0"/>
        <pt x="550" y="95" on="0"/>
        <pt x="460" y="14" on="0"/>
        <pt x="333" y="-44" on="0"/>
        <pt x="226" y="-44" on="0"/>
        <pt x="165" y="-6" on="0"/>
        <pt x="151" y="22" on="1"/>
        <pt x="122" y="78" on="0"/>
        <pt x="120" y="123" on="1"/>
        <pt x="119" y="142" on="1"/>
        <pt x="119" y="159" on="0"/>
        <pt x="122" y="177" on="1"/>
        <pt x="18" y="173" on="1"/>
        <pt x="14" y="172" on="0"/>
        <pt x="0" y="172" on="0"/>
        <pt x="-4" y="178" on="1"/>
        <pt x="-4" y="187" on="0"/>
        <pt x="36" y="212" on="1"/>
        <pt x="50" y="221" on="1"/>
        <pt x="65" y="226" on="0"/>
        <pt x="133" y="228" on="1"/>
        <pt x="141" y="255" on="0"/>
        <pt x="152" y="276" on="1"/>
        <pt x="83" y="273" on="1"/>
        <pt x="79" y="272" on="0"/>
        <pt x="65" y="272" on="0"/>
        <pt x="61" y="278" on="1"/>
        <pt x="61" y="287" on="0"/>
        <pt x="102" y="312" on="1"/>
        <pt x="115" y="321" on="1"/>
        <pt x="125" y="324" on="0"/>
        <pt x="180" y="327" on="1"/>
        <pt x="269" y="470" on="0"/>
        <pt x="620" y="676" on="0"/>
        <pt x="778" y="676" on="1"/>
        <pt x="837" y="676" on="0"/>
        <pt x="938" y="627" on="0"/>
        <pt x="938" y="528" on="0"/>
        <pt x="825" y="413" on="0"/>
        <pt x="668" y="332" on="0"/>
        <pt x="609" y="332" on="1"/>
        <pt x="582" y="332" on="0"/>
        <pt x="524" y="362" on="0"/>
        <pt x="524" y="389" on="1"/>
        <pt x="524" y="404" on="0"/>
        <pt x="548" y="415" on="1"/>
        <pt x="633" y="449" on="0"/>
        <pt x="676" y="481" on="1"/>
        <pt x="685" y="491" on="0"/>
        <pt x="694" y="491" on="0"/>
        <pt x="694" y="483" on="1"/>
        <pt x="694" y="469" on="0"/>
        <pt x="660" y="450" on="1"/>
        <pt x="636" y="432" on="0"/>
        <pt x="636" y="428" on="0"/>
        <pt x="637" y="428" on="1"/>
        <pt x="657" y="428" on="0"/>
        <pt x="861" y="582" on="0"/>
        <pt x="861" y="604" on="1"/>
        <pt x="861" y="618" on="0"/>
        <pt x="834" y="618" on="1"/>
        <pt x="700" y="618" on="0"/>
        <pt x="443" y="455" on="0"/>
        <pt x="340" y="333" on="1"/>
        <pt x="482" y="338" on="1"/>
        <pt x="512" y="337" on="0"/>
        <pt x="519" y="330" on="1"/>
        <pt x="519" y="313" on="0"/>
      </contour>
    </TTGlyph>
    <TTGlyph name="F" xMin="-66" yMin="-63" xMax="851" yMax="611">
      <contour>
        <pt x="-4" y="493" on="0"/>
        <pt x="-4" y="523" on="0"/>
        <pt x="14" y="538" on="0"/>
        <pt x="44" y="552" on="0"/>
        <pt x="78" y="565" on="0"/>
        <pt x="118" y="576" on="0"/>
        <pt x="132" y="580" on="1"/>
        <pt x="172" y="591" on="0"/>
        <pt x="194" y="591" on="0"/>
        <pt x="194" y="583" on="0"/>
        <pt x="180" y="571" on="0"/>
        <pt x="180" y="569" on="0"/>
        <pt x="187" y="569" on="0"/>
        <pt x="193" y="571" on="1"/>
        <pt x="385" y="611" on="0"/>
        <pt x="744" y="611" on="0"/>
        <pt x="813" y="553" on="1"/>
        <pt x="815" y="551" on="0"/>
        <pt x="826" y="542" on="1"/>
        <pt x="851" y="518" on="0"/>
        <pt x="851" y="515" on="1"/>
        <pt x="851" y="506" on="0"/>
        <pt x="830" y="506" on="1"/>
        <pt x="587" y="506" on="0"/>
        <pt x="427" y="489" on="1"/>
        <pt x="411" y="489" on="0"/>
        <pt x="411" y="484" on="1"/>
        <pt x="411" y="482" on="0"/>
        <pt x="425" y="473" on="0"/>
        <pt x="425" y="455" on="0"/>
        <pt x="412" y="447" on="1"/>
        <pt x="285" y="330" on="1"/>
        <pt x="277" y="325" on="0"/>
        <pt x="277" y="318" on="0"/>
        <pt x="284" y="318" on="1"/>
        <pt x="300" y="320" on="1"/>
        <pt x="346" y="324" on="0"/>
        <pt x="387" y="324" on="1"/>
        <pt x="537" y="324" on="0"/>
        <pt x="537" y="257" on="1"/>
        <pt x="537" y="252" on="0"/>
        <pt x="534" y="249" on="0"/>
        <pt x="485" y="246" on="0"/>
        <pt x="206" y="206" on="0"/>
        <pt x="162" y="192" on="0"/>
        <pt x="150" y="179" on="1"/>
        <pt x="21" y="10" on="0"/>
        <pt x="5" y="-31" on="1"/>
        <pt x="4" y="-31" on="0"/>
        <pt x="-1" y="-63" on="0"/>
        <pt x="-3" y="-63" on="1"/>
        <pt x="-12" y="-63" on="0"/>
        <pt x="-66" y="-28" on="0"/>
        <pt x="-66" y="0" on="0"/>
        <pt x="-59" y="26" on="0"/>
        <pt x="-48" y="59" on="0"/>
        <pt x="7" y="154" on="0"/>
        <pt x="48" y="197" on="1"/>
        <pt x="50" y="197" on="0"/>
        <pt x="50" y="204" on="0"/>
        <pt x="26" y="249" on="0"/>
        <pt x="26" y="253" on="1"/>
        <pt x="26" y="273" on="0"/>
        <pt x="54" y="284" on="0"/>
        <pt x="123" y="296" on="1"/>
        <pt x="136" y="298" on="1"/>
        <pt x="137" y="298" on="1"/>
        <pt x="145" y="298" on="0"/>
        <pt x="168" y="321" on="1"/>
        <pt x="323" y="459" on="0"/>
        <pt x="350" y="473" on="1"/>
        <pt x="360" y="478" on="0"/>
        <pt x="360" y="484" on="0"/>
        <pt x="348" y="484" on="0"/>
        <pt x="344" y="483" on="1"/>
        <pt x="174" y="459" on="0"/>
        <pt x="59" y="459" on="1"/>
        <pt x="29" y="459" on="0"/>
      </contour>
    </TTGlyph>
    <TTGlyph name="G" xMin="-181" yMin="-416" xMax="771" yMax="622">
      <contour>
        <pt x="737" y="556" on="1"/>
        <pt x="767" y="546" on="0"/>
        <pt x="770" y="536" on="1"/>
        <pt x="771" y="532" on="1"/>
        <pt x="771" y="511" on="0"/>
        <pt x="729" y="473" on="1"/>
        <pt x="558" y="281" on="0"/>
        <pt x="486" y="176" on="1"/>
        <pt x="465" y="146" on="0"/>
        <pt x="389" y="31" on="0"/>
        <pt x="342" y="-38" on="0"/>
        <pt x="265" y="-143" on="0"/>
        <pt x="206" y="-211" on="0"/>
        <pt x="121" y="-295" on="0"/>
        <pt x="82" y="-323" on="1"/>
        <pt x="-6" y="-386" on="0"/>
        <pt x="-107" y="-416" on="1"/>
        <pt x="-133" y="-416" on="0"/>
        <pt x="-180" y="-391" on="0"/>
        <pt x="-181" y="-368" on="1"/>
        <pt x="-180" y="-314" on="0"/>
        <pt x="-14" y="-155" on="0"/>
        <pt x="126" y="-113" on="1"/>
        <pt x="146" y="-108" on="0"/>
        <pt x="154" y="-98" on="1"/>
        <pt x="440" y="243" on="1"/>
        <pt x="455" y="263" on="1"/>
        <pt x="457" y="267" on="0"/>
        <pt x="457" y="270" on="0"/>
        <pt x="454" y="270" on="0"/>
        <pt x="368" y="183" on="0"/>
        <pt x="305" y="115" on="0"/>
        <pt x="203" y="20" on="0"/>
        <pt x="56" y="-73" on="0"/>
        <pt x="6" y="-73" on="1"/>
        <pt x="-60" y="-73" on="0"/>
        <pt x="-76" y="14" on="1"/>
        <pt x="-79" y="34" on="0"/>
        <pt x="-79" y="54" on="1"/>
        <pt x="-79" y="144" on="0"/>
        <pt x="76" y="351" on="0"/>
        <pt x="301" y="512" on="0"/>
        <pt x="561" y="621" on="0"/>
        <pt x="662" y="622" on="1"/>
        <pt x="663" y="622" on="1"/>
        <pt x="695" y="622" on="0"/>
        <pt x="738" y="579" on="0"/>
        <pt x="738" y="563" on="1"/>
        <pt x="738" y="558" on="0"/>
      </contour>
      <contour>
        <pt x="-131" y="-364" on="1"/>
        <pt x="-131" y="-370" on="0"/>
        <pt x="-126" y="-370" on="1"/>
        <pt x="-124" y="-370" on="1"/>
        <pt x="-99" y="-370" on="0"/>
        <pt x="104" y="-179" on="0"/>
        <pt x="122" y="-133" on="1"/>
        <pt x="122" y="-131" on="0"/>
        <pt x="120" y="-131" on="1"/>
        <pt x="53" y="-155" on="0"/>
        <pt x="-131" y="-340" on="0"/>
      </contour>
      <contour>
        <pt x="700" y="539" on="1"/>
        <pt x="706" y="545" on="0"/>
        <pt x="706" y="552" on="0"/>
        <pt x="697" y="552" on="1"/>
        <pt x="636" y="552" on="0"/>
        <pt x="447" y="469" on="0"/>
        <pt x="250" y="333" on="0"/>
        <pt x="61" y="134" on="0"/>
        <pt x="6" y="30" on="1"/>
        <pt x="3" y="26" on="0"/>
        <pt x="3" y="19" on="0"/>
        <pt x="8" y="19" on="1"/>
        <pt x="64" y="19" on="0"/>
        <pt x="483" y="346" on="0"/>
      </contour>
    </TTGlyph>
    <TTGlyph name="H" xMin="-10" yMin="-16" xMax="901" yMax="701">
      <contour>
        <pt x="373" y="359" on="1"/>
        <pt x="474" y="370" on="1"/>
        <pt x="476" y="370" on="1"/>
        <pt x="502" y="370" on="0"/>
        <pt x="519" y="387" on="1"/>
        <pt x="772" y="647" on="0"/>
        <pt x="853" y="695" on="1"/>
        <pt x="861" y="701" on="0"/>
        <pt x="875" y="701" on="0"/>
        <pt x="879" y="697" on="1"/>
        <pt x="901" y="681" on="0"/>
        <pt x="901" y="672" on="0"/>
        <pt x="898" y="669" on="1"/>
        <pt x="637" y="413" on="0"/>
        <pt x="637" y="393" on="1"/>
        <pt x="637" y="388" on="0"/>
        <pt x="645" y="388" on="1"/>
        <pt x="705" y="387" on="0"/>
        <pt x="717" y="375" on="0"/>
        <pt x="729" y="373" on="1"/>
        <pt x="745" y="373" on="0"/>
        <pt x="811" y="350" on="0"/>
        <pt x="811" y="331" on="1"/>
        <pt x="811" y="326" on="0"/>
        <pt x="802" y="323" on="0"/>
        <pt x="732" y="313" on="0"/>
        <pt x="622" y="299" on="0"/>
        <pt x="557" y="291" on="0"/>
        <pt x="531" y="286" on="0"/>
        <pt x="524" y="274" on="1"/>
        <pt x="378" y="84" on="0"/>
        <pt x="322" y="-5" on="1"/>
        <pt x="320" y="-16" on="0"/>
        <pt x="300" y="-16" on="0"/>
        <pt x="279" y="22" on="0"/>
        <pt x="279" y="45" on="1"/>
        <pt x="279" y="103" on="0"/>
        <pt x="398" y="254" on="1"/>
        <pt x="405" y="260" on="0"/>
        <pt x="405" y="264" on="1"/>
        <pt x="405" y="266" on="0"/>
        <pt x="401" y="266" on="1"/>
        <pt x="396" y="266" on="1"/>
        <pt x="266" y="244" on="1"/>
        <pt x="252" y="244" on="0"/>
        <pt x="243" y="232" on="1"/>
        <pt x="110" y="50" on="0"/>
        <pt x="91" y="16" on="1"/>
        <pt x="88" y="4" on="0"/>
        <pt x="67" y="4" on="0"/>
        <pt x="37" y="35" on="0"/>
        <pt x="37" y="75" on="0"/>
        <pt x="90" y="182" on="0"/>
        <pt x="119" y="217" on="1"/>
        <pt x="124" y="224" on="0"/>
        <pt x="124" y="232" on="0"/>
        <pt x="117" y="232" on="1"/>
        <pt x="70" y="234" on="1"/>
        <pt x="53" y="235" on="0"/>
        <pt x="-10" y="294" on="0"/>
        <pt x="-10" y="317" on="1"/>
        <pt x="-10" y="326" on="0"/>
        <pt x="0" y="326" on="1"/>
        <pt x="72" y="318" on="0"/>
        <pt x="123" y="318" on="0"/>
        <pt x="215" y="334" on="1"/>
        <pt x="224" y="337" on="0"/>
        <pt x="239" y="354" on="1"/>
        <pt x="541" y="668" on="0"/>
        <pt x="578" y="668" on="1"/>
        <pt x="584" y="668" on="0"/>
        <pt x="603" y="648" on="0"/>
        <pt x="603" y="637" on="0"/>
        <pt x="599" y="633" on="1"/>
        <pt x="394" y="409" on="0"/>
        <pt x="362" y="372" on="0"/>
        <pt x="362" y="359" on="0"/>
      </contour>
    </TTGlyph>
    <TTGlyph name="I" xMin="-151" yMin="-61" xMax="646" yMax="721">
      <contour>
        <pt x="552" y="721" on="1"/>
        <pt x="646" y="721" on="0"/>
        <pt x="646" y="648" on="1"/>
        <pt x="646" y="581" on="0"/>
        <pt x="453" y="327" on="0"/>
        <pt x="326" y="206" on="1"/>
        <pt x="176" y="63" on="0"/>
        <pt x="62" y="-12" on="1"/>
        <pt x="45" y="-23" on="0"/>
        <pt x="-42" y="-61" on="0"/>
        <pt x="-74" y="-61" on="1"/>
        <pt x="-91" y="-61" on="0"/>
        <pt x="-141" y="-34" on="1"/>
        <pt x="-151" y="-27" on="0"/>
        <pt x="-151" y="-19" on="1"/>
        <pt x="-151" y="-6" on="0"/>
        <pt x="-115" y="-2" on="1"/>
        <pt x="-64" y="3" on="0"/>
        <pt x="180" y="184" on="0"/>
        <pt x="422" y="406" on="0"/>
        <pt x="608" y="616" on="0"/>
        <pt x="608" y="649" on="1"/>
        <pt x="608" y="657" on="0"/>
        <pt x="600" y="657" on="1"/>
        <pt x="550" y="657" on="0"/>
        <pt x="310" y="523" on="0"/>
        <pt x="102" y="344" on="0"/>
        <pt x="102" y="292" on="1"/>
        <pt x="102" y="290" on="0"/>
        <pt x="105" y="290" on="1"/>
        <pt x="130" y="290" on="0"/>
        <pt x="297" y="414" on="0"/>
        <pt x="334" y="456" on="1"/>
        <pt x="344" y="466" on="0"/>
        <pt x="350" y="466" on="1"/>
        <pt x="358" y="465" on="0"/>
        <pt x="358" y="453" on="0"/>
        <pt x="329" y="402" on="0"/>
        <pt x="276" y="332" on="0"/>
        <pt x="212" y="265" on="0"/>
        <pt x="132" y="218" on="0"/>
        <pt x="63" y="218" on="0"/>
        <pt x="33" y="274" on="0"/>
        <pt x="33" y="303" on="1"/>
        <pt x="33" y="371" on="0"/>
        <pt x="150" y="526" on="0"/>
        <pt x="314" y="643" on="0"/>
        <pt x="492" y="721" on="0"/>
      </contour>
    </TTGlyph>
    <TTGlyph name="Iacute" xMin="-188" yMin="-61" xMax="649" yMax="941">
      <contour>
        <pt x="292" y="402" on="0"/>
        <pt x="321" y="453" on="0"/>
        <pt x="321" y="464" on="0"/>
        <pt x="307" y="466" on="0"/>
        <pt x="297" y="456" on="1"/>
        <pt x="260" y="414" on="0"/>
        <pt x="93" y="290" on="0"/>
        <pt x="68" y="290" on="1"/>
        <pt x="65" y="290" on="0"/>
        <pt x="65" y="292" on="1"/>
        <pt x="65" y="344" on="0"/>
        <pt x="273" y="523" on="0"/>
        <pt x="513" y="657" on="0"/>
        <pt x="563" y="657" on="1"/>
        <pt x="571" y="657" on="0"/>
        <pt x="571" y="649" on="1"/>
        <pt x="571" y="616" on="0"/>
        <pt x="385" y="406" on="0"/>
        <pt x="143" y="184" on="0"/>
        <pt x="-101" y="3" on="0"/>
        <pt x="-152" y="-2" on="1"/>
        <pt x="-188" y="-6" on="0"/>
        <pt x="-188" y="-19" on="1"/>
        <pt x="-188" y="-26" on="0"/>
        <pt x="-178" y="-34" on="1"/>
        <pt x="-128" y="-61" on="0"/>
        <pt x="-111" y="-61" on="1"/>
        <pt x="-79" y="-61" on="0"/>
        <pt x="3" y="-27" on="0"/>
        <pt x="28" y="-10" on="1"/>
        <pt x="53" y="8" on="1"/>
        <pt x="162" y="85" on="0"/>
        <pt x="416" y="327" on="0"/>
        <pt x="609" y="581" on="0"/>
        <pt x="609" y="648" on="1"/>
        <pt x="609" y="721" on="0"/>
        <pt x="515" y="721" on="1"/>
        <pt x="455" y="721" on="0"/>
        <pt x="277" y="643" on="0"/>
        <pt x="113" y="526" on="0"/>
        <pt x="-4" y="371" on="0"/>
        <pt x="-4" y="303" on="1"/>
        <pt x="-4" y="274" on="0"/>
        <pt x="26" y="218" on="0"/>
        <pt x="95" y="218" on="0"/>
        <pt x="175" y="265" on="0"/>
        <pt x="239" y="332" on="0"/>
      </contour>
      <contour>
        <pt x="437" y="768" on="1"/>
        <pt x="437" y="777" on="0"/>
        <pt x="454" y="794" on="1"/>
        <pt x="498" y="820" on="0"/>
        <pt x="564" y="887" on="0"/>
        <pt x="575" y="907" on="1"/>
        <pt x="586" y="927" on="1"/>
        <pt x="596" y="941" on="0"/>
        <pt x="628" y="941" on="0"/>
        <pt x="649" y="905" on="0"/>
        <pt x="649" y="886" on="1"/>
        <pt x="647" y="863" on="1"/>
        <pt x="626" y="824" on="0"/>
        <pt x="578" y="796" on="1"/>
        <pt x="502" y="753" on="0"/>
        <pt x="452" y="753" on="1"/>
        <pt x="437" y="753" on="0"/>
      </contour>
    </TTGlyph>
    <TTGlyph name="Icircumflex" xMin="-188" yMin="-61" xMax="686" yMax="927">
      <contour>
        <pt x="292" y="402" on="0"/>
        <pt x="321" y="453" on="0"/>
        <pt x="321" y="464" on="0"/>
        <pt x="307" y="466" on="0"/>
        <pt x="297" y="456" on="1"/>
        <pt x="260" y="414" on="0"/>
        <pt x="93" y="290" on="0"/>
        <pt x="68" y="290" on="1"/>
        <pt x="65" y="290" on="0"/>
        <pt x="65" y="292" on="1"/>
        <pt x="65" y="344" on="0"/>
        <pt x="273" y="523" on="0"/>
        <pt x="513" y="657" on="0"/>
        <pt x="563" y="657" on="1"/>
        <pt x="571" y="657" on="0"/>
        <pt x="571" y="649" on="1"/>
        <pt x="571" y="616" on="0"/>
        <pt x="385" y="406" on="0"/>
        <pt x="143" y="184" on="0"/>
        <pt x="-101" y="3" on="0"/>
        <pt x="-152" y="-2" on="1"/>
        <pt x="-188" y="-6" on="0"/>
        <pt x="-188" y="-19" on="1"/>
        <pt x="-188" y="-26" on="0"/>
        <pt x="-178" y="-34" on="1"/>
        <pt x="-128" y="-61" on="0"/>
        <pt x="-111" y="-61" on="1"/>
        <pt x="-79" y="-61" on="0"/>
        <pt x="3" y="-27" on="0"/>
        <pt x="28" y="-10" on="1"/>
        <pt x="53" y="8" on="1"/>
        <pt x="162" y="85" on="0"/>
        <pt x="416" y="327" on="0"/>
        <pt x="609" y="581" on="0"/>
        <pt x="609" y="648" on="1"/>
        <pt x="609" y="721" on="0"/>
        <pt x="515" y="721" on="1"/>
        <pt x="455" y="721" on="0"/>
        <pt x="277" y="643" on="0"/>
        <pt x="113" y="526" on="0"/>
        <pt x="-4" y="371" on="0"/>
        <pt x="-4" y="303" on="1"/>
        <pt x="-4" y="274" on="0"/>
        <pt x="26" y="218" on="0"/>
        <pt x="95" y="218" on="0"/>
        <pt x="175" y="265" on="0"/>
        <pt x="239" y="332" on="0"/>
      </contour>
      <contour>
        <pt x="657" y="866" on="1"/>
        <pt x="657" y="828" on="0"/>
        <pt x="686" y="765" on="1"/>
        <pt x="685" y="753" on="0"/>
        <pt x="655" y="753" on="1"/>
        <pt x="637" y="753" on="0"/>
        <pt x="580" y="830" on="0"/>
        <pt x="580" y="839" on="1"/>
        <pt x="539" y="806" on="0"/>
        <pt x="406" y="755" on="0"/>
        <pt x="373" y="755" on="1"/>
        <pt x="362" y="755" on="0"/>
        <pt x="349" y="765" on="0"/>
        <pt x="349" y="770" on="1"/>
        <pt x="349" y="789" on="0"/>
        <pt x="362" y="789" on="1"/>
        <pt x="408" y="799" on="0"/>
        <pt x="509" y="868" on="0"/>
        <pt x="575" y="927" on="0"/>
        <pt x="590" y="927" on="0"/>
        <pt x="598" y="924" on="1"/>
        <pt x="617" y="916" on="0"/>
        <pt x="617" y="913" on="1"/>
        <pt x="623" y="915" on="0"/>
        <pt x="635" y="915" on="1"/>
        <pt x="664" y="912" on="0"/>
        <pt x="664" y="897" on="1"/>
      </contour>
    </TTGlyph>
    <TTGlyph name="Idieresis" xMin="-188" yMin="-61" xMax="648" yMax="863">
      <contour>
        <pt x="515" y="721" on="1"/>
        <pt x="609" y="721" on="0"/>
        <pt x="609" y="648" on="1"/>
        <pt x="609" y="581" on="0"/>
        <pt x="416" y="327" on="0"/>
        <pt x="289" y="206" on="1"/>
        <pt x="139" y="63" on="0"/>
        <pt x="26" y="-12" on="1"/>
        <pt x="8" y="-23" on="0"/>
        <pt x="-79" y="-61" on="0"/>
        <pt x="-111" y="-61" on="1"/>
        <pt x="-128" y="-61" on="0"/>
        <pt x="-178" y="-34" on="1"/>
        <pt x="-188" y="-27" on="0"/>
        <pt x="-188" y="-19" on="1"/>
        <pt x="-188" y="-6" on="0"/>
        <pt x="-152" y="-2" on="1"/>
        <pt x="-101" y="3" on="0"/>
        <pt x="143" y="184" on="0"/>
        <pt x="385" y="406" on="0"/>
        <pt x="571" y="616" on="0"/>
        <pt x="571" y="649" on="1"/>
        <pt x="571" y="657" on="0"/>
        <pt x="563" y="657" on="1"/>
        <pt x="513" y="657" on="0"/>
        <pt x="273" y="523" on="0"/>
        <pt x="65" y="344" on="0"/>
        <pt x="65" y="292" on="1"/>
        <pt x="65" y="290" on="0"/>
        <pt x="68" y="290" on="1"/>
        <pt x="93" y="290" on="0"/>
        <pt x="260" y="414" on="0"/>
        <pt x="297" y="456" on="1"/>
        <pt x="307" y="466" on="0"/>
        <pt x="313" y="466" on="1"/>
        <pt x="321" y="465" on="0"/>
        <pt x="321" y="453" on="0"/>
        <pt x="292" y="402" on="0"/>
        <pt x="239" y="332" on="0"/>
        <pt x="175" y="265" on="0"/>
        <pt x="95" y="218" on="0"/>
        <pt x="26" y="218" on="0"/>
        <pt x="-4" y="274" on="0"/>
        <pt x="-4" y="303" on="1"/>
        <pt x="-4" y="371" on="0"/>
        <pt x="113" y="526" on="0"/>
        <pt x="277" y="643" on="0"/>
        <pt x="455" y="721" on="0"/>
      </contour>
      <contour>
        <pt x="454" y="863" on="1"/>
        <pt x="464" y="863" on="0"/>
        <pt x="467" y="859" on="1"/>
        <pt x="481" y="842" on="0"/>
        <pt x="481" y="821" on="0"/>
        <pt x="469" y="806" on="0"/>
        <pt x="452" y="787" on="0"/>
        <pt x="401" y="754" on="0"/>
        <pt x="377" y="754" on="1"/>
        <pt x="359" y="757" on="0"/>
        <pt x="359" y="776" on="1"/>
        <pt x="359" y="806" on="0"/>
        <pt x="431" y="863" on="0"/>
      </contour>
      <contour>
        <pt x="621" y="863" on="1"/>
        <pt x="631" y="863" on="0"/>
        <pt x="634" y="859" on="1"/>
        <pt x="648" y="842" on="0"/>
        <pt x="648" y="821" on="0"/>
        <pt x="636" y="806" on="0"/>
        <pt x="619" y="787" on="0"/>
        <pt x="568" y="754" on="0"/>
        <pt x="544" y="754" on="1"/>
        <pt x="526" y="757" on="0"/>
        <pt x="526" y="776" on="1"/>
        <pt x="526" y="806" on="0"/>
        <pt x="598" y="863" on="0"/>
      </contour>
    </TTGlyph>
    <TTGlyph name="Igrave" xMin="-188" yMin="-61" xMax="609" yMax="981">
      <contour>
        <pt x="515" y="721" on="1"/>
        <pt x="609" y="721" on="0"/>
        <pt x="609" y="648" on="1"/>
        <pt x="609" y="581" on="0"/>
        <pt x="416" y="327" on="0"/>
        <pt x="289" y="206" on="1"/>
        <pt x="139" y="63" on="0"/>
        <pt x="26" y="-12" on="1"/>
        <pt x="8" y="-23" on="0"/>
        <pt x="-79" y="-61" on="0"/>
        <pt x="-111" y="-61" on="1"/>
        <pt x="-128" y="-61" on="0"/>
        <pt x="-178" y="-34" on="1"/>
        <pt x="-188" y="-27" on="0"/>
        <pt x="-188" y="-19" on="1"/>
        <pt x="-188" y="-6" on="0"/>
        <pt x="-152" y="-2" on="1"/>
        <pt x="-101" y="3" on="0"/>
        <pt x="143" y="184" on="0"/>
        <pt x="385" y="406" on="0"/>
        <pt x="571" y="616" on="0"/>
        <pt x="571" y="649" on="1"/>
        <pt x="571" y="657" on="0"/>
        <pt x="563" y="657" on="1"/>
        <pt x="513" y="657" on="0"/>
        <pt x="273" y="523" on="0"/>
        <pt x="65" y="344" on="0"/>
        <pt x="65" y="292" on="1"/>
        <pt x="65" y="290" on="0"/>
        <pt x="68" y="290" on="1"/>
        <pt x="93" y="290" on="0"/>
        <pt x="260" y="414" on="0"/>
        <pt x="297" y="456" on="1"/>
        <pt x="307" y="466" on="0"/>
        <pt x="313" y="466" on="1"/>
        <pt x="321" y="465" on="0"/>
        <pt x="321" y="453" on="0"/>
        <pt x="292" y="402" on="0"/>
        <pt x="239" y="332" on="0"/>
        <pt x="175" y="265" on="0"/>
        <pt x="95" y="218" on="0"/>
        <pt x="26" y="218" on="0"/>
        <pt x="-4" y="274" on="0"/>
        <pt x="-4" y="303" on="1"/>
        <pt x="-4" y="371" on="0"/>
        <pt x="113" y="526" on="0"/>
        <pt x="277" y="643" on="0"/>
        <pt x="455" y="721" on="0"/>
      </contour>
      <contour>
        <pt x="513" y="798" on="1"/>
        <pt x="523" y="784" on="0"/>
        <pt x="523" y="769" on="1"/>
        <pt x="519" y="758" on="0"/>
        <pt x="507" y="758" on="1"/>
        <pt x="494" y="761" on="0"/>
        <pt x="433" y="794" on="0"/>
        <pt x="354" y="872" on="0"/>
        <pt x="345" y="915" on="1"/>
        <pt x="350" y="942" on="1"/>
        <pt x="363" y="981" on="0"/>
        <pt x="392" y="981" on="1"/>
        <pt x="411" y="981" on="0"/>
        <pt x="420" y="961" on="1"/>
        <pt x="427" y="928" on="0"/>
        <pt x="478" y="835" on="0"/>
      </contour>
    </TTGlyph>
    <TTGlyph name="J" xMin="-193" yMin="-245" xMax="670" yMax="718">
      <contour>
        <pt x="587" y="718" on="1"/>
        <pt x="620" y="718" on="0"/>
        <pt x="670" y="685" on="0"/>
        <pt x="670" y="632" on="0"/>
        <pt x="657" y="606" on="1"/>
        <pt x="623" y="537" on="0"/>
        <pt x="369" y="155" on="0"/>
        <pt x="273" y="44" on="1"/>
        <pt x="269" y="40" on="0"/>
        <pt x="208" y="-29" on="0"/>
        <pt x="159" y="-81" on="0"/>
        <pt x="74" y="-157" on="0"/>
        <pt x="1" y="-208" on="0"/>
        <pt x="-90" y="-245" on="0"/>
        <pt x="-130" y="-245" on="1"/>
        <pt x="-193" y="-245" on="0"/>
        <pt x="-193" y="-201" on="1"/>
        <pt x="-193" y="-152" on="0"/>
        <pt x="-76" y="-27" on="0"/>
        <pt x="75" y="59" on="0"/>
        <pt x="124" y="59" on="1"/>
        <pt x="130" y="59" on="0"/>
        <pt x="130" y="49" on="0"/>
        <pt x="122" y="43" on="0"/>
        <pt x="101" y="33" on="1"/>
        <pt x="42" y="3" on="0"/>
        <pt x="-139" y="-175" on="0"/>
        <pt x="-139" y="-208" on="1"/>
        <pt x="-139" y="-212" on="0"/>
        <pt x="-135" y="-212" on="1"/>
        <pt x="-93" y="-212" on="0"/>
        <pt x="46" y="-64" on="1"/>
        <pt x="180" y="79" on="0"/>
        <pt x="276" y="197" on="1"/>
        <pt x="420" y="371" on="0"/>
        <pt x="609" y="604" on="0"/>
        <pt x="619" y="627" on="1"/>
        <pt x="628" y="639" on="0"/>
        <pt x="628" y="650" on="0"/>
        <pt x="623" y="650" on="1"/>
        <pt x="559" y="650" on="0"/>
        <pt x="382" y="548" on="0"/>
        <pt x="235" y="413" on="0"/>
        <pt x="131" y="280" on="0"/>
        <pt x="131" y="249" on="1"/>
        <pt x="131" y="245" on="0"/>
        <pt x="134" y="245" on="1"/>
        <pt x="166" y="245" on="0"/>
        <pt x="358" y="407" on="1"/>
        <pt x="377" y="427" on="0"/>
        <pt x="387" y="427" on="0"/>
        <pt x="387" y="420" on="0"/>
        <pt x="374" y="401" on="1"/>
        <pt x="216" y="172" on="0"/>
        <pt x="127" y="172" on="1"/>
        <pt x="95" y="172" on="0"/>
        <pt x="58" y="225" on="0"/>
        <pt x="58" y="314" on="0"/>
        <pt x="151" y="466" on="0"/>
        <pt x="295" y="612" on="0"/>
        <pt x="494" y="718" on="0"/>
      </contour>
    </TTGlyph>
    <TTGlyph name="K" xMin="-102" yMin="-82" xMax="826" yMax="671">
      <contour>
        <pt x="439" y="638" on="1"/>
        <pt x="444" y="644" on="0"/>
        <pt x="460" y="644" on="0"/>
        <pt x="467" y="636" on="1"/>
        <pt x="477" y="625" on="1"/>
        <pt x="482" y="621" on="0"/>
        <pt x="482" y="612" on="0"/>
        <pt x="459" y="586" on="0"/>
        <pt x="388" y="507" on="1"/>
        <pt x="231" y="334" on="0"/>
        <pt x="208" y="304" on="1"/>
        <pt x="196" y="292" on="0"/>
        <pt x="196" y="287" on="0"/>
        <pt x="200" y="287" on="0"/>
        <pt x="208" y="290" on="1"/>
        <pt x="307" y="318" on="0"/>
        <pt x="637" y="509" on="0"/>
        <pt x="637" y="545" on="1"/>
        <pt x="637" y="547" on="0"/>
        <pt x="628" y="547" on="0"/>
        <pt x="606" y="537" on="0"/>
        <pt x="586" y="537" on="0"/>
        <pt x="586" y="548" on="1"/>
        <pt x="586" y="556" on="0"/>
        <pt x="600" y="561" on="1"/>
        <pt x="638" y="575" on="0"/>
        <pt x="766" y="664" on="1"/>
        <pt x="773" y="671" on="0"/>
        <pt x="791" y="671" on="0"/>
        <pt x="826" y="633" on="0"/>
        <pt x="826" y="615" on="1"/>
        <pt x="826" y="500" on="0"/>
        <pt x="649" y="404" on="1"/>
        <pt x="497" y="320" on="0"/>
        <pt x="251" y="243" on="1"/>
        <pt x="234" y="238" on="0"/>
        <pt x="234" y="233" on="1"/>
        <pt x="234" y="216" on="0"/>
        <pt x="321" y="106" on="0"/>
        <pt x="440" y="-6" on="0"/>
        <pt x="509" y="-31" on="0"/>
        <pt x="509" y="-51" on="1"/>
        <pt x="509" y="-55" on="0"/>
        <pt x="501" y="-59" on="1"/>
        <pt x="454" y="-82" on="0"/>
        <pt x="392" y="-82" on="0"/>
        <pt x="331" y="-45" on="0"/>
        <pt x="272" y="26" on="0"/>
        <pt x="227" y="90" on="0"/>
        <pt x="167" y="183" on="0"/>
        <pt x="144" y="214" on="0"/>
        <pt x="133" y="214" on="0"/>
        <pt x="130" y="210" on="1"/>
        <pt x="56" y="122" on="0"/>
        <pt x="-16" y="19" on="0"/>
        <pt x="-40" y="-40" on="1"/>
        <pt x="-41" y="-49" on="0"/>
        <pt x="-48" y="-49" on="1"/>
        <pt x="-57" y="-49" on="0"/>
        <pt x="-98" y="-5" on="0"/>
        <pt x="-102" y="19" on="1"/>
        <pt x="-102" y="72" on="0"/>
        <pt x="22" y="234" on="1"/>
        <pt x="82" y="314" on="0"/>
        <pt x="303" y="531" on="0"/>
      </contour>
    </TTGlyph>
    <TTGlyph name="L" xMin="-212" yMin="-147" xMax="895" yMax="672">
      <contour>
        <pt x="189" y="100" on="1"/>
        <pt x="261" y="182" on="0"/>
        <pt x="489" y="458" on="0"/>
        <pt x="597" y="574" on="0"/>
        <pt x="636" y="604" on="1"/>
        <pt x="727" y="672" on="0"/>
        <pt x="821" y="672" on="1"/>
        <pt x="842" y="672" on="0"/>
        <pt x="895" y="638" on="0"/>
        <pt x="895" y="602" on="1"/>
        <pt x="895" y="567" on="0"/>
        <pt x="828" y="494" on="1"/>
        <pt x="795" y="458" on="0"/>
        <pt x="670" y="383" on="0"/>
        <pt x="593" y="360" on="1"/>
        <pt x="564" y="355" on="0"/>
        <pt x="537" y="355" on="0"/>
        <pt x="537" y="361" on="0"/>
        <pt x="544" y="365" on="1"/>
        <pt x="628" y="411" on="0"/>
        <pt x="837" y="597" on="0"/>
        <pt x="837" y="626" on="1"/>
        <pt x="837" y="630" on="0"/>
        <pt x="826" y="630" on="0"/>
        <pt x="813" y="626" on="0"/>
        <pt x="797" y="622" on="0"/>
        <pt x="745" y="593" on="0"/>
        <pt x="688" y="550" on="0"/>
        <pt x="603" y="461" on="0"/>
        <pt x="560" y="403" on="1"/>
        <pt x="395" y="172" on="0"/>
        <pt x="346" y="119" on="1"/>
        <pt x="338" y="110" on="0"/>
        <pt x="326" y="97" on="1"/>
        <pt x="351" y="94" on="0"/>
        <pt x="451" y="86" on="0"/>
        <pt x="486" y="81" on="0"/>
        <pt x="554" y="65" on="0"/>
        <pt x="574" y="53" on="1"/>
        <pt x="626" y="21" on="0"/>
        <pt x="674" y="-34" on="1"/>
        <pt x="685" y="-46" on="0"/>
        <pt x="685" y="-54" on="0"/>
        <pt x="682" y="-54" on="1"/>
        <pt x="677" y="-54" on="0"/>
        <pt x="669" y="-50" on="1"/>
        <pt x="654" y="-46" on="0"/>
        <pt x="597" y="-32" on="0"/>
        <pt x="409" y="-10" on="0"/>
        <pt x="252" y="-10" on="0"/>
        <pt x="216" y="-11" on="1"/>
        <pt x="163" y="-61" on="0"/>
        <pt x="-29" y="-147" on="0"/>
        <pt x="-126" y="-147" on="0"/>
        <pt x="-212" y="-96" on="0"/>
        <pt x="-212" y="-53" on="1"/>
        <pt x="-212" y="-22" on="0"/>
        <pt x="-165" y="15" on="1"/>
        <pt x="-57" y="100" on="0"/>
      </contour>
      <contour>
        <pt x="-157" y="-82" on="1"/>
        <pt x="-157" y="-92" on="0"/>
        <pt x="-133" y="-95" on="1"/>
        <pt x="-102" y="-95" on="0"/>
        <pt x="-58" y="-88" on="0"/>
        <pt x="27" y="-50" on="0"/>
        <pt x="74" y="-13" on="1"/>
        <pt x="10" y="-13" on="0"/>
        <pt x="-157" y="-59" on="0"/>
      </contour>
    </TTGlyph>
    <TTGlyph name="Lslash" xMin="-281" yMin="-147" xMax="826" yMax="672">
      <contour>
        <pt x="218" y="214" on="1"/>
        <pt x="122" y="198" on="0"/>
        <pt x="96" y="198" on="0"/>
        <pt x="77" y="209" on="0"/>
        <pt x="76" y="216" on="1"/>
        <pt x="76" y="223" on="0"/>
        <pt x="109" y="233" on="1"/>
        <pt x="264" y="270" on="1"/>
        <pt x="429" y="480" on="0"/>
        <pt x="487" y="535" on="1"/>
        <pt x="572" y="617" on="0"/>
        <pt x="609" y="634" on="1"/>
        <pt x="691" y="672" on="0"/>
        <pt x="752" y="672" on="1"/>
        <pt x="773" y="672" on="0"/>
        <pt x="826" y="638" on="0"/>
        <pt x="826" y="602" on="1"/>
        <pt x="826" y="567" on="0"/>
        <pt x="759" y="494" on="1"/>
        <pt x="726" y="458" on="0"/>
        <pt x="601" y="383" on="0"/>
        <pt x="524" y="360" on="1"/>
        <pt x="495" y="355" on="0"/>
        <pt x="468" y="355" on="0"/>
        <pt x="468" y="361" on="0"/>
        <pt x="475" y="365" on="1"/>
        <pt x="559" y="411" on="0"/>
        <pt x="768" y="597" on="0"/>
        <pt x="768" y="626" on="1"/>
        <pt x="768" y="630" on="0"/>
        <pt x="757" y="630" on="0"/>
        <pt x="744" y="626" on="0"/>
        <pt x="728" y="622" on="0"/>
        <pt x="676" y="593" on="0"/>
        <pt x="619" y="550" on="0"/>
        <pt x="534" y="461" on="0"/>
        <pt x="459" y="360" on="0"/>
        <pt x="421" y="306" on="1"/>
        <pt x="451" y="312" on="0"/>
        <pt x="468" y="312" on="1"/>
        <pt x="484" y="307" on="1"/>
        <pt x="529" y="292" on="0"/>
        <pt x="531" y="284" on="1"/>
        <pt x="531" y="277" on="0"/>
        <pt x="451" y="259" on="0"/>
        <pt x="376" y="244" on="1"/>
        <pt x="299" y="143" on="0"/>
        <pt x="269" y="110" on="0"/>
        <pt x="257" y="97" on="1"/>
        <pt x="282" y="94" on="0"/>
        <pt x="382" y="86" on="0"/>
        <pt x="417" y="81" on="0"/>
        <pt x="485" y="65" on="0"/>
        <pt x="504" y="53" on="1"/>
        <pt x="557" y="20" on="0"/>
        <pt x="605" y="-34" on="1"/>
        <pt x="616" y="-46" on="0"/>
        <pt x="616" y="-54" on="0"/>
        <pt x="613" y="-54" on="1"/>
        <pt x="608" y="-54" on="0"/>
        <pt x="600" y="-50" on="1"/>
        <pt x="585" y="-46" on="0"/>
        <pt x="528" y="-32" on="0"/>
        <pt x="340" y="-10" on="0"/>
        <pt x="183" y="-10" on="0"/>
        <pt x="147" y="-11" on="1"/>
        <pt x="94" y="-61" on="0"/>
        <pt x="-98" y="-147" on="0"/>
        <pt x="-195" y="-147" on="0"/>
        <pt x="-281" y="-96" on="0"/>
        <pt x="-281" y="-53" on="1"/>
        <pt x="-281" y="-22" on="0"/>
        <pt x="-234" y="15" on="1"/>
        <pt x="-126" y="100" on="0"/>
        <pt x="120" y="100" on="1"/>
      </contour>
      <contour>
        <pt x="-226" y="-82" on="1"/>
        <pt x="-226" y="-92" on="0"/>
        <pt x="-202" y="-95" on="1"/>
        <pt x="-171" y="-95" on="0"/>
        <pt x="-127" y="-88" on="0"/>
        <pt x="-42" y="-50" on="0"/>
        <pt x="5" y="-13" on="1"/>
        <pt x="-59" y="-13" on="0"/>
        <pt x="-226" y="-59" on="0"/>
      </contour>
    </TTGlyph>
    <TTGlyph name="M" xMin="-215" yMin="-119" xMax="993" yMax="677">
      <contour>
        <pt x="909" y="649" on="1"/>
        <pt x="923" y="645" on="1"/>
        <pt x="930" y="645" on="0"/>
        <pt x="950" y="666" on="0"/>
        <pt x="965" y="666" on="0"/>
        <pt x="993" y="649" on="0"/>
        <pt x="993" y="642" on="1"/>
        <pt x="993" y="626" on="0"/>
        <pt x="847" y="449" on="0"/>
        <pt x="673" y="247" on="0"/>
        <pt x="527" y="42" on="0"/>
        <pt x="527" y="2" on="1"/>
        <pt x="527" y="-66" on="0"/>
        <pt x="537" y="-102" on="1"/>
        <pt x="540" y="-112" on="1"/>
        <pt x="540" y="-119" on="0"/>
        <pt x="506" y="-119" on="0"/>
        <pt x="487" y="-114" on="0"/>
        <pt x="474" y="-106" on="1"/>
        <pt x="450" y="-90" on="0"/>
        <pt x="440" y="-21" on="1"/>
        <pt x="440" y="12" on="0"/>
        <pt x="452" y="69" on="0"/>
        <pt x="497" y="149" on="0"/>
        <pt x="540" y="213" on="0"/>
        <pt x="594" y="278" on="1"/>
        <pt x="665" y="363" on="0"/>
        <pt x="841" y="560" on="0"/>
        <pt x="858" y="579" on="0"/>
        <pt x="858" y="583" on="0"/>
        <pt x="745" y="482" on="0"/>
        <pt x="468" y="222" on="0"/>
        <pt x="435" y="183" on="1"/>
        <pt x="304" y="33" on="0"/>
        <pt x="274" y="-12" on="1"/>
        <pt x="269" y="-25" on="0"/>
        <pt x="244" y="-25" on="0"/>
        <pt x="234" y="-8" on="1"/>
        <pt x="217" y="21" on="0"/>
        <pt x="217" y="65" on="1"/>
        <pt x="237" y="138" on="0"/>
        <pt x="353" y="361" on="0"/>
        <pt x="424" y="469" on="1"/>
        <pt x="471" y="530" on="1"/>
        <pt x="478" y="541" on="0"/>
        <pt x="478" y="544" on="1"/>
        <pt x="477" y="545" on="1"/>
        <pt x="476" y="545" on="0"/>
        <pt x="324" y="381" on="0"/>
        <pt x="310" y="365" on="1"/>
        <pt x="96" y="131" on="1"/>
        <pt x="-31" y="-8" on="0"/>
        <pt x="-87" y="-37" on="1"/>
        <pt x="-184" y="-69" on="0"/>
        <pt x="-204" y="-73" on="1"/>
        <pt x="-215" y="-73" on="0"/>
        <pt x="-215" y="-65" on="0"/>
        <pt x="-205" y="-56" on="1"/>
        <pt x="-59" y="93" on="0"/>
        <pt x="-22" y="129" on="1"/>
        <pt x="-14" y="134" on="0"/>
        <pt x="232" y="375" on="0"/>
        <pt x="513" y="633" on="0"/>
        <pt x="572" y="665" on="1"/>
        <pt x="611" y="677" on="0"/>
        <pt x="650" y="677" on="0"/>
        <pt x="650" y="666" on="1"/>
        <pt x="650" y="659" on="0"/>
        <pt x="641" y="650" on="1"/>
        <pt x="490" y="434" on="0"/>
        <pt x="464" y="377" on="1"/>
        <pt x="403" y="262" on="1"/>
        <pt x="400" y="255" on="0"/>
        <pt x="400" y="252" on="1"/>
        <pt x="400" y="246" on="0"/>
        <pt x="402" y="248" on="1"/>
        <pt x="481" y="312" on="0"/>
        <pt x="738" y="544" on="0"/>
        <pt x="874" y="649" on="0"/>
      </contour>
    </TTGlyph>
    <TTGlyph name="N" xMin="-374" yMin="-217" xMax="970" yMax="671">
      <contour>
        <pt x="486" y="647" on="1"/>
        <pt x="515" y="671" on="0"/>
        <pt x="589" y="671" on="0"/>
        <pt x="589" y="656" on="1"/>
        <pt x="589" y="650" on="0"/>
        <pt x="580" y="638" on="1"/>
        <pt x="572" y="620" on="0"/>
        <pt x="505" y="502" on="1"/>
        <pt x="330" y="196" on="0"/>
        <pt x="330" y="94" on="1"/>
        <pt x="330" y="86" on="0"/>
        <pt x="334" y="86" on="1"/>
        <pt x="340" y="86" on="0"/>
        <pt x="354" y="106" on="1"/>
        <pt x="395" y="177" on="0"/>
        <pt x="523" y="361" on="0"/>
        <pt x="637" y="501" on="0"/>
        <pt x="781" y="623" on="0"/>
        <pt x="840" y="638" on="1"/>
        <pt x="938" y="654" on="0"/>
        <pt x="967" y="654" on="1"/>
        <pt x="970" y="653" on="0"/>
        <pt x="970" y="646" on="0"/>
        <pt x="959" y="640" on="1"/>
        <pt x="846" y="577" on="0"/>
        <pt x="511" y="224" on="0"/>
        <pt x="376" y="38" on="1"/>
        <pt x="340" y="-23" on="0"/>
        <pt x="300" y="-53" on="0"/>
        <pt x="272" y="-53" on="1"/>
        <pt x="220" y="-53" on="0"/>
        <pt x="220" y="57" on="1"/>
        <pt x="220" y="105" on="0"/>
        <pt x="239" y="155" on="1"/>
        <pt x="309" y="342" on="0"/>
        <pt x="370" y="423" on="1"/>
        <pt x="404" y="473" on="0"/>
        <pt x="404" y="478" on="1"/>
        <pt x="404" y="481" on="0"/>
        <pt x="392" y="466" on="1"/>
        <pt x="143" y="153" on="0"/>
        <pt x="40" y="56" on="1"/>
        <pt x="-31" y="-18" on="0"/>
        <pt x="-211" y="-174" on="0"/>
        <pt x="-265" y="-203" on="1"/>
        <pt x="-282" y="-217" on="0"/>
        <pt x="-320" y="-217" on="0"/>
        <pt x="-374" y="-185" on="0"/>
        <pt x="-374" y="-164" on="1"/>
        <pt x="-374" y="-153" on="0"/>
        <pt x="-362" y="-144" on="1"/>
        <pt x="-198" y="-6" on="1"/>
        <pt x="-183" y="7" on="0"/>
        <pt x="-176" y="7" on="0"/>
        <pt x="-176" y="0" on="0"/>
        <pt x="-182" y="-12" on="0"/>
        <pt x="-195" y="-26" on="0"/>
        <pt x="-202" y="-32" on="1"/>
        <pt x="-219" y="-50" on="1"/>
        <pt x="-250" y="-81" on="0"/>
        <pt x="-250" y="-88" on="0"/>
        <pt x="-246" y="-88" on="0"/>
        <pt x="-238" y="-82" on="1"/>
        <pt x="-142" y="-16" on="0"/>
        <pt x="220" y="349" on="0"/>
        <pt x="353" y="498" on="1"/>
      </contour>
    </TTGlyph>
    <TTGlyph name="Ntilde" xMin="-443" yMin="-217" xMax="901" yMax="812">
      <contour>
        <pt x="417" y="647" on="1"/>
        <pt x="446" y="671" on="0"/>
        <pt x="520" y="671" on="0"/>
        <pt x="520" y="656" on="1"/>
        <pt x="520" y="650" on="0"/>
        <pt x="511" y="638" on="1"/>
        <pt x="503" y="620" on="0"/>
        <pt x="436" y="502" on="1"/>
        <pt x="261" y="196" on="0"/>
        <pt x="261" y="94" on="1"/>
        <pt x="261" y="86" on="0"/>
        <pt x="265" y="86" on="1"/>
        <pt x="271" y="86" on="0"/>
        <pt x="285" y="106" on="1"/>
        <pt x="326" y="177" on="0"/>
        <pt x="454" y="361" on="0"/>
        <pt x="568" y="501" on="0"/>
        <pt x="712" y="623" on="0"/>
        <pt x="771" y="638" on="1"/>
        <pt x="869" y="654" on="0"/>
        <pt x="898" y="654" on="1"/>
        <pt x="901" y="653" on="0"/>
        <pt x="901" y="646" on="0"/>
        <pt x="890" y="640" on="1"/>
        <pt x="777" y="577" on="0"/>
        <pt x="442" y="224" on="0"/>
        <pt x="307" y="38" on="1"/>
        <pt x="271" y="-23" on="0"/>
        <pt x="231" y="-53" on="0"/>
        <pt x="203" y="-53" on="1"/>
        <pt x="151" y="-53" on="0"/>
        <pt x="151" y="57" on="1"/>
        <pt x="151" y="105" on="0"/>
        <pt x="170" y="155" on="1"/>
        <pt x="240" y="342" on="0"/>
        <pt x="301" y="423" on="1"/>
        <pt x="335" y="473" on="0"/>
        <pt x="335" y="478" on="1"/>
        <pt x="335" y="481" on="0"/>
        <pt x="323" y="466" on="1"/>
        <pt x="74" y="153" on="0"/>
        <pt x="-29" y="56" on="1"/>
        <pt x="-100" y="-18" on="0"/>
        <pt x="-280" y="-174" on="0"/>
        <pt x="-334" y="-203" on="1"/>
        <pt x="-351" y="-217" on="0"/>
        <pt x="-389" y="-217" on="0"/>
        <pt x="-443" y="-185" on="0"/>
        <pt x="-443" y="-164" on="1"/>
        <pt x="-443" y="-153" on="0"/>
        <pt x="-431" y="-144" on="1"/>
        <pt x="-267" y="-6" on="1"/>
        <pt x="-252" y="7" on="0"/>
        <pt x="-245" y="7" on="0"/>
        <pt x="-245" y="0" on="0"/>
        <pt x="-251" y="-12" on="0"/>
        <pt x="-264" y="-26" on="0"/>
        <pt x="-270" y="-32" on="1"/>
        <pt x="-288" y="-50" on="1"/>
        <pt x="-319" y="-81" on="0"/>
        <pt x="-319" y="-88" on="0"/>
        <pt x="-314" y="-88" on="0"/>
        <pt x="-307" y="-82" on="1"/>
        <pt x="-211" y="-16" on="0"/>
        <pt x="151" y="349" on="0"/>
        <pt x="284" y="498" on="1"/>
      </contour>
      <contour>
        <pt x="510" y="741" on="0"/>
        <pt x="526" y="755" on="0"/>
        <pt x="554" y="776" on="0"/>
        <pt x="626" y="812" on="0"/>
        <pt x="666" y="812" on="0"/>
        <pt x="760" y="770" on="0"/>
        <pt x="801" y="770" on="1"/>
        <pt x="818" y="770" on="0"/>
        <pt x="844" y="794" on="1"/>
        <pt x="852" y="802" on="1"/>
        <pt x="867" y="802" on="0"/>
        <pt x="867" y="792" on="1"/>
        <pt x="867" y="781" on="0"/>
        <pt x="839" y="750" on="0"/>
        <pt x="825" y="740" on="1"/>
        <pt x="791" y="716" on="0"/>
        <pt x="740" y="716" on="1"/>
        <pt x="722" y="716" on="0"/>
        <pt x="631" y="754" on="0"/>
        <pt x="602" y="754" on="1"/>
        <pt x="587" y="754" on="0"/>
        <pt x="526" y="733" on="0"/>
        <pt x="510" y="733" on="0"/>
        <pt x="510" y="735" on="1"/>
      </contour>
    </TTGlyph>
    <TTGlyph name="O" xMin="-18" yMin="-52" xMax="746" yMax="681">
      <contour>
        <pt x="562" y="635" on="1"/>
        <pt x="634" y="681" on="0"/>
        <pt x="684" y="681" on="1"/>
        <pt x="730" y="681" on="0"/>
        <pt x="742" y="646" on="1"/>
        <pt x="746" y="634" on="0"/>
        <pt x="746" y="627" on="1"/>
        <pt x="746" y="589" on="0"/>
        <pt x="660" y="427" on="0"/>
        <pt x="518" y="238" on="0"/>
        <pt x="354" y="64" on="0"/>
        <pt x="176" y="-52" on="0"/>
        <pt x="109" y="-52" on="1"/>
        <pt x="62" y="-52" on="0"/>
        <pt x="-18" y="28" on="0"/>
        <pt x="-18" y="143" on="0"/>
        <pt x="46" y="286" on="0"/>
        <pt x="159" y="432" on="0"/>
        <pt x="295" y="559" on="0"/>
        <pt x="456" y="639" on="0"/>
        <pt x="529" y="639" on="1"/>
        <pt x="549" y="639" on="0"/>
      </contour>
      <contour>
        <pt x="83" y="24" on="1"/>
        <pt x="134" y="24" on="0"/>
        <pt x="430" y="284" on="0"/>
        <pt x="681" y="567" on="0"/>
        <pt x="681" y="602" on="1"/>
        <pt x="681" y="605" on="0"/>
        <pt x="677" y="605" on="1"/>
        <pt x="643" y="605" on="0"/>
        <pt x="520" y="525" on="0"/>
        <pt x="408" y="425" on="0"/>
        <pt x="327" y="347" on="0"/>
        <pt x="315" y="329" on="0"/>
        <pt x="311" y="329" on="1"/>
        <pt x="309" y="329" on="0"/>
        <pt x="309" y="334" on="1"/>
        <pt x="311" y="349" on="1"/>
        <pt x="322" y="385" on="0"/>
        <pt x="378" y="466" on="1"/>
        <pt x="397" y="494" on="1"/>
        <pt x="404" y="507" on="0"/>
        <pt x="404" y="512" on="0"/>
        <pt x="402" y="512" on="1"/>
        <pt x="394" y="512" on="0"/>
        <pt x="375" y="495" on="1"/>
        <pt x="300" y="427" on="0"/>
        <pt x="184" y="288" on="0"/>
        <pt x="123" y="187" on="0"/>
        <pt x="104" y="141" on="1"/>
        <pt x="74" y="71" on="0"/>
        <pt x="74" y="24" on="0"/>
      </contour>
    </TTGlyph>
    <TTGlyph name="OE" xMin="-82" yMin="-61" xMax="1327" yMax="681">
      <contour>
        <pt x="498" y="635" on="1"/>
        <pt x="570" y="681" on="0"/>
        <pt x="620" y="681" on="1"/>
        <pt x="666" y="681" on="0"/>
        <pt x="678" y="646" on="1"/>
        <pt x="682" y="634" on="0"/>
        <pt x="682" y="608" on="0"/>
        <pt x="669" y="574" on="1"/>
        <pt x="673" y="574" on="0"/>
        <pt x="750" y="592" on="0"/>
        <pt x="798" y="602" on="1"/>
        <pt x="928" y="629" on="0"/>
        <pt x="1068" y="629" on="1"/>
        <pt x="1209" y="629" on="0"/>
        <pt x="1270" y="608" on="1"/>
        <pt x="1294" y="599" on="0"/>
        <pt x="1327" y="568" on="0"/>
        <pt x="1327" y="546" on="1"/>
        <pt x="1327" y="533" on="0"/>
        <pt x="1309" y="533" on="1"/>
        <pt x="1059" y="526" on="0"/>
        <pt x="900" y="501" on="1"/>
        <pt x="884" y="499" on="0"/>
        <pt x="884" y="490" on="1"/>
        <pt x="884" y="487" on="0"/>
        <pt x="885" y="482" on="0"/>
        <pt x="877" y="473" on="1"/>
        <pt x="764" y="352" on="1"/>
        <pt x="757" y="345" on="0"/>
        <pt x="757" y="338" on="0"/>
        <pt x="762" y="338" on="0"/>
        <pt x="772" y="340" on="1"/>
        <pt x="837" y="344" on="0"/>
        <pt x="947" y="344" on="0"/>
        <pt x="955" y="338" on="1"/>
        <pt x="999" y="305" on="0"/>
        <pt x="1014" y="285" on="0"/>
        <pt x="1014" y="279" on="1"/>
        <pt x="1014" y="266" on="0"/>
        <pt x="992" y="263" on="1"/>
        <pt x="728" y="237" on="0"/>
        <pt x="686" y="238" on="0"/>
        <pt x="680" y="238" on="1"/>
        <pt x="664" y="238" on="0"/>
        <pt x="644" y="213" on="1"/>
        <pt x="522" y="51" on="1"/>
        <pt x="517" y="43" on="0"/>
        <pt x="517" y="36" on="0"/>
        <pt x="525" y="36" on="0"/>
        <pt x="533" y="40" on="1"/>
        <pt x="627" y="55" on="0"/>
        <pt x="790" y="55" on="0"/>
        <pt x="830" y="50" on="1"/>
        <pt x="885" y="50" on="0"/>
        <pt x="948" y="-31" on="1"/>
        <pt x="953" y="-38" on="0"/>
        <pt x="953" y="-50" on="0"/>
        <pt x="938" y="-50" on="1"/>
        <pt x="689" y="-50" on="0"/>
        <pt x="559" y="-60" on="1"/>
        <pt x="554" y="-61" on="0"/>
        <pt x="546" y="-61" on="1"/>
        <pt x="503" y="-61" on="0"/>
        <pt x="487" y="-41" on="1"/>
        <pt x="484" y="-35" on="0"/>
        <pt x="470" y="-35" on="0"/>
        <pt x="459" y="-49" on="0"/>
        <pt x="453" y="-49" on="0"/>
        <pt x="435" y="-37" on="0"/>
        <pt x="416" y="-8" on="0"/>
        <pt x="416" y="25" on="0"/>
        <pt x="429" y="53" on="0"/>
        <pt x="450" y="97" on="0"/>
        <pt x="523" y="204" on="0"/>
        <pt x="563" y="242" on="1"/>
        <pt x="568" y="247" on="0"/>
        <pt x="568" y="256" on="0"/>
        <pt x="547" y="256" on="0"/>
        <pt x="526" y="271" on="0"/>
        <pt x="526" y="298" on="0"/>
        <pt x="561" y="307" on="1"/>
        <pt x="615" y="321" on="1"/>
        <pt x="616" y="321" on="0"/>
        <pt x="616" y="321" on="1"/>
        <pt x="632" y="321" on="0"/>
        <pt x="648" y="342" on="1"/>
        <pt x="764" y="455" on="0"/>
        <pt x="790" y="468" on="1"/>
        <pt x="799" y="474" on="0"/>
        <pt x="799" y="481" on="0"/>
        <pt x="787" y="481" on="0"/>
        <pt x="783" y="480" on="1"/>
        <pt x="691" y="465" on="0"/>
        <pt x="614" y="465" on="1"/>
        <pt x="513" y="295" on="0"/>
        <pt x="350" y="129" on="1"/>
        <pt x="272" y="50" on="0"/>
        <pt x="108" y="-52" on="0"/>
        <pt x="-2" y="-52" on="0"/>
        <pt x="-82" y="28" on="0"/>
        <pt x="-82" y="143" on="0"/>
        <pt x="-18" y="286" on="0"/>
        <pt x="95" y="432" on="0"/>
        <pt x="231" y="559" on="0"/>
        <pt x="392" y="639" on="0"/>
        <pt x="465" y="639" on="1"/>
        <pt x="485" y="639" on="0"/>
      </contour>
      <contour>
        <pt x="19" y="24" on="1"/>
        <pt x="70" y="24" on="0"/>
        <pt x="366" y="284" on="0"/>
        <pt x="617" y="567" on="0"/>
        <pt x="617" y="602" on="1"/>
        <pt x="617" y="605" on="0"/>
        <pt x="613" y="605" on="1"/>
        <pt x="579" y="605" on="0"/>
        <pt x="456" y="525" on="0"/>
        <pt x="344" y="425" on="0"/>
        <pt x="263" y="347" on="0"/>
        <pt x="251" y="329" on="0"/>
        <pt x="247" y="329" on="1"/>
        <pt x="245" y="329" on="0"/>
        <pt x="245" y="334" on="1"/>
        <pt x="247" y="349" on="1"/>
        <pt x="258" y="385" on="0"/>
        <pt x="314" y="466" on="1"/>
        <pt x="333" y="494" on="1"/>
        <pt x="340" y="507" on="0"/>
        <pt x="340" y="512" on="0"/>
        <pt x="338" y="512" on="1"/>
        <pt x="330" y="512" on="0"/>
        <pt x="311" y="495" on="1"/>
        <pt x="236" y="427" on="0"/>
        <pt x="120" y="288" on="0"/>
        <pt x="59" y="187" on="0"/>
        <pt x="40" y="141" on="1"/>
        <pt x="10" y="71" on="0"/>
        <pt x="10" y="24" on="0"/>
      </contour>
    </TTGlyph>
    <TTGlyph name="Oacute" xMin="-82" yMin="-52" xMax="682" yMax="897">
      <contour>
        <pt x="498" y="635" on="1"/>
        <pt x="570" y="681" on="0"/>
        <pt x="620" y="681" on="1"/>
        <pt x="666" y="681" on="0"/>
        <pt x="678" y="646" on="1"/>
        <pt x="682" y="634" on="0"/>
        <pt x="682" y="627" on="1"/>
        <pt x="682" y="589" on="0"/>
        <pt x="596" y="427" on="0"/>
        <pt x="454" y="238" on="0"/>
        <pt x="290" y="64" on="0"/>
        <pt x="112" y="-52" on="0"/>
        <pt x="45" y="-52" on="1"/>
        <pt x="-2" y="-52" on="0"/>
        <pt x="-82" y="28" on="0"/>
        <pt x="-82" y="143" on="0"/>
        <pt x="-18" y="286" on="0"/>
        <pt x="95" y="432" on="0"/>
        <pt x="231" y="559" on="0"/>
        <pt x="392" y="639" on="0"/>
        <pt x="465" y="639" on="1"/>
        <pt x="485" y="639" on="0"/>
      </contour>
      <contour>
        <pt x="19" y="24" on="1"/>
        <pt x="70" y="24" on="0"/>
        <pt x="366" y="284" on="0"/>
        <pt x="617" y="567" on="0"/>
        <pt x="617" y="602" on="1"/>
        <pt x="617" y="605" on="0"/>
        <pt x="613" y="605" on="1"/>
        <pt x="579" y="605" on="0"/>
        <pt x="456" y="525" on="0"/>
        <pt x="344" y="425" on="0"/>
        <pt x="263" y="347" on="0"/>
        <pt x="251" y="329" on="0"/>
        <pt x="247" y="329" on="1"/>
        <pt x="245" y="329" on="0"/>
        <pt x="245" y="334" on="1"/>
        <pt x="247" y="349" on="1"/>
        <pt x="258" y="385" on="0"/>
        <pt x="314" y="466" on="1"/>
        <pt x="333" y="494" on="1"/>
        <pt x="340" y="507" on="0"/>
        <pt x="340" y="512" on="0"/>
        <pt x="338" y="512" on="1"/>
        <pt x="330" y="512" on="0"/>
        <pt x="311" y="495" on="1"/>
        <pt x="236" y="427" on="0"/>
        <pt x="120" y="288" on="0"/>
        <pt x="59" y="187" on="0"/>
        <pt x="40" y="141" on="1"/>
        <pt x="10" y="71" on="0"/>
        <pt x="10" y="24" on="0"/>
      </contour>
      <contour>
        <pt x="440" y="724" on="1"/>
        <pt x="440" y="735" on="0"/>
        <pt x="457" y="750" on="1"/>
        <pt x="501" y="776" on="0"/>
        <pt x="567" y="843" on="0"/>
        <pt x="578" y="863" on="1"/>
        <pt x="589" y="883" on="1"/>
        <pt x="599" y="897" on="0"/>
        <pt x="631" y="897" on="0"/>
        <pt x="652" y="861" on="0"/>
        <pt x="652" y="842" on="1"/>
        <pt x="650" y="819" on="1"/>
        <pt x="629" y="780" on="0"/>
        <pt x="581" y="752" on="1"/>
        <pt x="505" y="709" on="0"/>
        <pt x="455" y="709" on="1"/>
        <pt x="440" y="709" on="0"/>
      </contour>
    </TTGlyph>
    <TTGlyph name="Ocircumflex" xMin="-82" yMin="-52" xMax="733" yMax="882">
      <contour>
        <pt x="498" y="635" on="1"/>
        <pt x="570" y="681" on="0"/>
        <pt x="620" y="681" on="1"/>
        <pt x="666" y="681" on="0"/>
        <pt x="678" y="646" on="1"/>
        <pt x="682" y="634" on="0"/>
        <pt x="682" y="627" on="1"/>
        <pt x="682" y="589" on="0"/>
        <pt x="596" y="427" on="0"/>
        <pt x="454" y="238" on="0"/>
        <pt x="290" y="64" on="0"/>
        <pt x="112" y="-52" on="0"/>
        <pt x="45" y="-52" on="1"/>
        <pt x="-2" y="-52" on="0"/>
        <pt x="-82" y="28" on="0"/>
        <pt x="-82" y="143" on="0"/>
        <pt x="-18" y="286" on="0"/>
        <pt x="95" y="432" on="0"/>
        <pt x="231" y="559" on="0"/>
        <pt x="392" y="639" on="0"/>
        <pt x="465" y="639" on="1"/>
        <pt x="485" y="639" on="0"/>
      </contour>
      <contour>
        <pt x="19" y="24" on="1"/>
        <pt x="70" y="24" on="0"/>
        <pt x="366" y="284" on="0"/>
        <pt x="617" y="567" on="0"/>
        <pt x="617" y="602" on="1"/>
        <pt x="617" y="605" on="0"/>
        <pt x="613" y="605" on="1"/>
        <pt x="579" y="605" on="0"/>
        <pt x="456" y="525" on="0"/>
        <pt x="344" y="425" on="0"/>
        <pt x="263" y="347" on="0"/>
        <pt x="251" y="329" on="0"/>
        <pt x="247" y="329" on="1"/>
        <pt x="245" y="329" on="0"/>
        <pt x="245" y="334" on="1"/>
        <pt x="247" y="349" on="1"/>
        <pt x="258" y="385" on="0"/>
        <pt x="314" y="466" on="1"/>
        <pt x="333" y="494" on="1"/>
        <pt x="340" y="507" on="0"/>
        <pt x="340" y="512" on="0"/>
        <pt x="338" y="512" on="1"/>
        <pt x="330" y="512" on="0"/>
        <pt x="311" y="495" on="1"/>
        <pt x="236" y="427" on="0"/>
        <pt x="120" y="288" on="0"/>
        <pt x="59" y="187" on="0"/>
        <pt x="40" y="141" on="1"/>
        <pt x="10" y="71" on="0"/>
        <pt x="10" y="24" on="0"/>
      </contour>
      <contour>
        <pt x="704" y="821" on="1"/>
        <pt x="704" y="783" on="0"/>
        <pt x="733" y="720" on="1"/>
        <pt x="732" y="708" on="0"/>
        <pt x="702" y="708" on="1"/>
        <pt x="684" y="708" on="0"/>
        <pt x="627" y="784" on="0"/>
        <pt x="627" y="794" on="1"/>
        <pt x="586" y="761" on="0"/>
        <pt x="453" y="710" on="0"/>
        <pt x="420" y="710" on="1"/>
        <pt x="409" y="710" on="0"/>
        <pt x="396" y="720" on="0"/>
        <pt x="396" y="725" on="1"/>
        <pt x="396" y="744" on="0"/>
        <pt x="409" y="744" on="1"/>
        <pt x="455" y="754" on="0"/>
        <pt x="556" y="823" on="0"/>
        <pt x="622" y="882" on="0"/>
        <pt x="637" y="882" on="0"/>
        <pt x="646" y="878" on="1"/>
        <pt x="664" y="871" on="0"/>
        <pt x="664" y="868" on="1"/>
        <pt x="670" y="870" on="0"/>
        <pt x="682" y="870" on="1"/>
        <pt x="711" y="867" on="0"/>
        <pt x="711" y="852" on="1"/>
      </contour>
    </TTGlyph>
    <TTGlyph name="Odieresis" xMin="-82" yMin="-52" xMax="695" yMax="821">
      <contour>
        <pt x="498" y="635" on="1"/>
        <pt x="570" y="681" on="0"/>
        <pt x="620" y="681" on="1"/>
        <pt x="666" y="681" on="0"/>
        <pt x="678" y="646" on="1"/>
        <pt x="682" y="634" on="0"/>
        <pt x="682" y="627" on="1"/>
        <pt x="682" y="589" on="0"/>
        <pt x="596" y="427" on="0"/>
        <pt x="454" y="238" on="0"/>
        <pt x="290" y="64" on="0"/>
        <pt x="112" y="-52" on="0"/>
        <pt x="45" y="-52" on="1"/>
        <pt x="-2" y="-52" on="0"/>
        <pt x="-82" y="28" on="0"/>
        <pt x="-82" y="143" on="0"/>
        <pt x="-18" y="286" on="0"/>
        <pt x="95" y="432" on="0"/>
        <pt x="231" y="559" on="0"/>
        <pt x="392" y="639" on="0"/>
        <pt x="465" y="639" on="1"/>
        <pt x="485" y="639" on="0"/>
      </contour>
      <contour>
        <pt x="19" y="24" on="1"/>
        <pt x="70" y="24" on="0"/>
        <pt x="366" y="284" on="0"/>
        <pt x="617" y="567" on="0"/>
        <pt x="617" y="602" on="1"/>
        <pt x="617" y="605" on="0"/>
        <pt x="613" y="605" on="1"/>
        <pt x="579" y="605" on="0"/>
        <pt x="456" y="525" on="0"/>
        <pt x="344" y="425" on="0"/>
        <pt x="263" y="347" on="0"/>
        <pt x="251" y="329" on="0"/>
        <pt x="247" y="329" on="1"/>
        <pt x="245" y="329" on="0"/>
        <pt x="245" y="334" on="1"/>
        <pt x="247" y="349" on="1"/>
        <pt x="258" y="385" on="0"/>
        <pt x="314" y="466" on="1"/>
        <pt x="333" y="494" on="1"/>
        <pt x="340" y="507" on="0"/>
        <pt x="340" y="512" on="0"/>
        <pt x="338" y="512" on="1"/>
        <pt x="330" y="512" on="0"/>
        <pt x="311" y="495" on="1"/>
        <pt x="236" y="427" on="0"/>
        <pt x="120" y="288" on="0"/>
        <pt x="59" y="187" on="0"/>
        <pt x="40" y="141" on="1"/>
        <pt x="10" y="71" on="0"/>
        <pt x="10" y="24" on="0"/>
      </contour>
      <contour>
        <pt x="501" y="821" on="1"/>
        <pt x="511" y="821" on="0"/>
        <pt x="514" y="817" on="1"/>
        <pt x="528" y="800" on="0"/>
        <pt x="528" y="779" on="0"/>
        <pt x="516" y="764" on="0"/>
        <pt x="499" y="745" on="0"/>
        <pt x="448" y="712" on="0"/>
        <pt x="424" y="712" on="1"/>
        <pt x="406" y="715" on="0"/>
        <pt x="406" y="734" on="1"/>
        <pt x="406" y="764" on="0"/>
        <pt x="478" y="821" on="0"/>
      </contour>
      <contour>
        <pt x="668" y="821" on="1"/>
        <pt x="678" y="821" on="0"/>
        <pt x="681" y="817" on="1"/>
        <pt x="695" y="800" on="0"/>
        <pt x="695" y="779" on="0"/>
        <pt x="683" y="764" on="0"/>
        <pt x="666" y="745" on="0"/>
        <pt x="615" y="712" on="0"/>
        <pt x="591" y="712" on="1"/>
        <pt x="573" y="715" on="0"/>
        <pt x="573" y="734" on="1"/>
        <pt x="573" y="764" on="0"/>
        <pt x="645" y="821" on="0"/>
      </contour>
    </TTGlyph>
    <TTGlyph name="Ograve" xMin="-82" yMin="-52" xMax="682" yMax="935">
      <contour>
        <pt x="498" y="635" on="1"/>
        <pt x="570" y="681" on="0"/>
        <pt x="620" y="681" on="1"/>
        <pt x="666" y="681" on="0"/>
        <pt x="678" y="646" on="1"/>
        <pt x="682" y="634" on="0"/>
        <pt x="682" y="627" on="1"/>
        <pt x="682" y="589" on="0"/>
        <pt x="596" y="427" on="0"/>
        <pt x="454" y="238" on="0"/>
        <pt x="290" y="64" on="0"/>
        <pt x="112" y="-52" on="0"/>
        <pt x="45" y="-52" on="1"/>
        <pt x="-2" y="-52" on="0"/>
        <pt x="-82" y="28" on="0"/>
        <pt x="-82" y="143" on="0"/>
        <pt x="-18" y="286" on="0"/>
        <pt x="95" y="432" on="0"/>
        <pt x="231" y="559" on="0"/>
        <pt x="392" y="639" on="0"/>
        <pt x="465" y="639" on="1"/>
        <pt x="485" y="639" on="0"/>
      </contour>
      <contour>
        <pt x="19" y="24" on="1"/>
        <pt x="70" y="24" on="0"/>
        <pt x="366" y="284" on="0"/>
        <pt x="617" y="567" on="0"/>
        <pt x="617" y="602" on="1"/>
        <pt x="617" y="605" on="0"/>
        <pt x="613" y="605" on="1"/>
        <pt x="579" y="605" on="0"/>
        <pt x="456" y="525" on="0"/>
        <pt x="344" y="425" on="0"/>
        <pt x="263" y="347" on="0"/>
        <pt x="251" y="329" on="0"/>
        <pt x="247" y="329" on="1"/>
        <pt x="245" y="329" on="0"/>
        <pt x="245" y="334" on="1"/>
        <pt x="247" y="349" on="1"/>
        <pt x="258" y="385" on="0"/>
        <pt x="314" y="466" on="1"/>
        <pt x="333" y="494" on="1"/>
        <pt x="340" y="507" on="0"/>
        <pt x="340" y="512" on="0"/>
        <pt x="338" y="512" on="1"/>
        <pt x="330" y="512" on="0"/>
        <pt x="311" y="495" on="1"/>
        <pt x="236" y="427" on="0"/>
        <pt x="120" y="288" on="0"/>
        <pt x="59" y="187" on="0"/>
        <pt x="40" y="141" on="1"/>
        <pt x="10" y="71" on="0"/>
        <pt x="10" y="24" on="0"/>
      </contour>
      <contour>
        <pt x="595" y="752" on="1"/>
        <pt x="605" y="738" on="0"/>
        <pt x="605" y="723" on="1"/>
        <pt x="601" y="712" on="0"/>
        <pt x="589" y="712" on="1"/>
        <pt x="576" y="715" on="0"/>
        <pt x="515" y="748" on="0"/>
        <pt x="436" y="826" on="0"/>
        <pt x="427" y="869" on="1"/>
        <pt x="432" y="896" on="1"/>
        <pt x="445" y="935" on="0"/>
        <pt x="474" y="935" on="1"/>
        <pt x="493" y="935" on="0"/>
        <pt x="502" y="915" on="1"/>
        <pt x="509" y="882" on="0"/>
        <pt x="560" y="789" on="0"/>
      </contour>
    </TTGlyph>
    <TTGlyph name="Oslash" xMin="-125" yMin="-96" xMax="765" yMax="739">
      <contour>
        <pt x="762" y="739" on="1"/>
        <pt x="765" y="732" on="1"/>
        <pt x="763" y="725" on="0"/>
        <pt x="731" y="696" on="0"/>
        <pt x="677" y="648" on="1"/>
        <pt x="682" y="627" on="1"/>
        <pt x="682" y="589" on="0"/>
        <pt x="596" y="427" on="0"/>
        <pt x="454" y="238" on="0"/>
        <pt x="290" y="64" on="0"/>
        <pt x="112" y="-52" on="0"/>
        <pt x="45" y="-52" on="1"/>
        <pt x="2" y="-52" on="0"/>
        <pt x="-33" y="-20" on="1"/>
        <pt x="-55" y="-45" on="0"/>
        <pt x="-81" y="-78" on="1"/>
        <pt x="-88" y="-96" on="0"/>
        <pt x="-100" y="-96" on="1"/>
        <pt x="-104" y="-96" on="0"/>
        <pt x="-115" y="-92" on="1"/>
        <pt x="-125" y="-92" on="0"/>
        <pt x="-125" y="-86" on="1"/>
        <pt x="-124" y="-79" on="0"/>
        <pt x="-50" y="-2" on="1"/>
        <pt x="-82" y="37" on="0"/>
        <pt x="-82" y="143" on="0"/>
        <pt x="-18" y="286" on="0"/>
        <pt x="95" y="432" on="0"/>
        <pt x="231" y="559" on="0"/>
        <pt x="392" y="639" on="0"/>
        <pt x="465" y="639" on="1"/>
        <pt x="485" y="639" on="0"/>
        <pt x="498" y="635" on="1"/>
        <pt x="570" y="681" on="0"/>
        <pt x="620" y="681" on="1"/>
        <pt x="646" y="681" on="0"/>
        <pt x="661" y="669" on="1"/>
        <pt x="746" y="739" on="0"/>
      </contour>
      <contour>
        <pt x="333" y="494" on="1"/>
        <pt x="340" y="507" on="0"/>
        <pt x="340" y="512" on="0"/>
        <pt x="330" y="512" on="0"/>
        <pt x="311" y="495" on="1"/>
        <pt x="231" y="423" on="0"/>
        <pt x="111" y="279" on="0"/>
        <pt x="80" y="222" on="1"/>
        <pt x="26" y="122" on="0"/>
        <pt x="13" y="61" on="1"/>
        <pt x="339" y="387" on="0"/>
        <pt x="577" y="597" on="1"/>
        <pt x="527" y="577" on="0"/>
        <pt x="368" y="450" on="0"/>
        <pt x="264" y="348" on="0"/>
        <pt x="251" y="329" on="0"/>
        <pt x="247" y="329" on="1"/>
        <pt x="245" y="329" on="0"/>
        <pt x="245" y="334" on="1"/>
        <pt x="247" y="349" on="1"/>
        <pt x="258" y="385" on="0"/>
        <pt x="314" y="466" on="1"/>
      </contour>
      <contour>
        <pt x="19" y="24" on="1"/>
        <pt x="68" y="24" on="0"/>
        <pt x="346" y="265" on="0"/>
        <pt x="595" y="540" on="0"/>
        <pt x="614" y="590" on="1"/>
        <pt x="139" y="158" on="0"/>
        <pt x="12" y="28" on="1"/>
        <pt x="13" y="24" on="0"/>
      </contour>
    </TTGlyph>
    <TTGlyph name="Otilde" xMin="-82" yMin="-52" xMax="800" yMax="831">
      <contour>
        <pt x="498" y="635" on="1"/>
        <pt x="570" y="681" on="0"/>
        <pt x="620" y="681" on="1"/>
        <pt x="666" y="681" on="0"/>
        <pt x="678" y="646" on="1"/>
        <pt x="682" y="634" on="0"/>
        <pt x="682" y="627" on="1"/>
        <pt x="682" y="589" on="0"/>
        <pt x="596" y="427" on="0"/>
        <pt x="454" y="238" on="0"/>
        <pt x="290" y="64" on="0"/>
        <pt x="112" y="-52" on="0"/>
        <pt x="45" y="-52" on="1"/>
        <pt x="-2" y="-52" on="0"/>
        <pt x="-82" y="28" on="0"/>
        <pt x="-82" y="143" on="0"/>
        <pt x="-18" y="286" on="0"/>
        <pt x="95" y="432" on="0"/>
        <pt x="231" y="559" on="0"/>
        <pt x="392" y="639" on="0"/>
        <pt x="465" y="639" on="1"/>
        <pt x="485" y="639" on="0"/>
      </contour>
      <contour>
        <pt x="19" y="24" on="1"/>
        <pt x="70" y="24" on="0"/>
        <pt x="366" y="284" on="0"/>
        <pt x="617" y="567" on="0"/>
        <pt x="617" y="602" on="1"/>
        <pt x="617" y="605" on="0"/>
        <pt x="613" y="605" on="1"/>
        <pt x="579" y="605" on="0"/>
        <pt x="456" y="525" on="0"/>
        <pt x="344" y="425" on="0"/>
        <pt x="263" y="347" on="0"/>
        <pt x="251" y="329" on="0"/>
        <pt x="247" y="329" on="1"/>
        <pt x="245" y="329" on="0"/>
        <pt x="245" y="334" on="1"/>
        <pt x="247" y="349" on="1"/>
        <pt x="258" y="385" on="0"/>
        <pt x="314" y="466" on="1"/>
        <pt x="333" y="494" on="1"/>
        <pt x="340" y="507" on="0"/>
        <pt x="340" y="512" on="0"/>
        <pt x="338" y="512" on="1"/>
        <pt x="330" y="512" on="0"/>
        <pt x="311" y="495" on="1"/>
        <pt x="236" y="427" on="0"/>
        <pt x="120" y="288" on="0"/>
        <pt x="59" y="187" on="0"/>
        <pt x="40" y="141" on="1"/>
        <pt x="10" y="71" on="0"/>
        <pt x="10" y="24" on="0"/>
      </contour>
      <contour>
        <pt x="443" y="760" on="0"/>
        <pt x="459" y="774" on="0"/>
        <pt x="487" y="795" on="0"/>
        <pt x="559" y="831" on="0"/>
        <pt x="587" y="831" on="1"/>
        <pt x="598" y="831" on="0"/>
        <pt x="692" y="789" on="0"/>
        <pt x="734" y="789" on="1"/>
        <pt x="751" y="789" on="0"/>
        <pt x="776" y="813" on="1"/>
        <pt x="785" y="821" on="1"/>
        <pt x="800" y="821" on="0"/>
        <pt x="800" y="811" on="1"/>
        <pt x="800" y="800" on="0"/>
        <pt x="772" y="769" on="0"/>
        <pt x="758" y="759" on="1"/>
        <pt x="724" y="735" on="0"/>
        <pt x="673" y="735" on="1"/>
        <pt x="655" y="735" on="0"/>
        <pt x="564" y="773" on="0"/>
        <pt x="535" y="773" on="1"/>
        <pt x="520" y="773" on="0"/>
        <pt x="459" y="752" on="0"/>
        <pt x="443" y="752" on="0"/>
        <pt x="443" y="754" on="1"/>
      </contour>
    </TTGlyph>
    <TTGlyph name="P" xMin="-24" yMin="-41" xMax="782" yMax="688">
      <contour>
        <pt x="684" y="640" on="1"/>
        <pt x="727" y="616" on="0"/>
        <pt x="782" y="534" on="0"/>
        <pt x="782" y="432" on="0"/>
        <pt x="654" y="300" on="0"/>
        <pt x="471" y="207" on="0"/>
        <pt x="336" y="207" on="0"/>
        <pt x="306" y="263" on="1"/>
        <pt x="134" y="32" on="0"/>
        <pt x="112" y="-17" on="1"/>
        <pt x="113" y="-22" on="0"/>
        <pt x="113" y="-41" on="0"/>
        <pt x="91" y="-41" on="0"/>
        <pt x="56" y="-4" on="0"/>
        <pt x="56" y="30" on="1"/>
        <pt x="56" y="40" on="0"/>
        <pt x="57" y="46" on="1"/>
        <pt x="66" y="112" on="0"/>
        <pt x="415" y="500" on="0"/>
        <pt x="492" y="542" on="1"/>
        <pt x="508" y="550" on="0"/>
        <pt x="524" y="550" on="0"/>
        <pt x="541" y="540" on="0"/>
        <pt x="541" y="526" on="0"/>
        <pt x="537" y="522" on="1"/>
        <pt x="462" y="444" on="0"/>
        <pt x="447" y="427" on="1"/>
        <pt x="328" y="289" on="1"/>
        <pt x="326" y="286" on="0"/>
        <pt x="326" y="283" on="1"/>
        <pt x="326" y="276" on="0"/>
        <pt x="335" y="276" on="1"/>
        <pt x="375" y="276" on="0"/>
        <pt x="512" y="322" on="0"/>
        <pt x="646" y="391" on="0"/>
        <pt x="744" y="484" on="0"/>
        <pt x="744" y="524" on="1"/>
        <pt x="744" y="557" on="0"/>
        <pt x="618" y="589" on="0"/>
        <pt x="473" y="589" on="0"/>
        <pt x="305" y="548" on="0"/>
        <pt x="180" y="488" on="0"/>
        <pt x="80" y="423" on="0"/>
        <pt x="29" y="374" on="0"/>
        <pt x="29" y="359" on="0"/>
        <pt x="43" y="359" on="0"/>
        <pt x="74" y="369" on="1"/>
        <pt x="174" y="402" on="0"/>
        <pt x="270" y="458" on="1"/>
        <pt x="277" y="462" on="0"/>
        <pt x="282" y="462" on="0"/>
        <pt x="282" y="457" on="0"/>
        <pt x="257" y="424" on="0"/>
        <pt x="213" y="377" on="0"/>
        <pt x="161" y="333" on="0"/>
        <pt x="96" y="302" on="0"/>
        <pt x="35" y="302" on="0"/>
        <pt x="-24" y="351" on="0"/>
        <pt x="-24" y="436" on="0"/>
        <pt x="60" y="536" on="0"/>
        <pt x="197" y="626" on="0"/>
        <pt x="401" y="688" on="0"/>
        <pt x="595" y="688" on="0"/>
      </contour>
    </TTGlyph>
    <TTGlyph name="Q" xMin="-225" yMin="-87" xMax="679" yMax="627">
      <contour>
        <pt x="42" y="356" on="1"/>
        <pt x="43" y="409" on="0"/>
        <pt x="158" y="535" on="0"/>
        <pt x="349" y="627" on="0"/>
        <pt x="443" y="627" on="1"/>
        <pt x="500" y="627" on="0"/>
        <pt x="589" y="598" on="0"/>
        <pt x="638" y="556" on="0"/>
        <pt x="654" y="529" on="1"/>
        <pt x="679" y="485" on="0"/>
        <pt x="679" y="440" on="1"/>
        <pt x="679" y="365" on="0"/>
        <pt x="480" y="178" on="0"/>
        <pt x="310" y="84" on="1"/>
        <pt x="286" y="70" on="0"/>
        <pt x="286" y="64" on="1"/>
        <pt x="286" y="61" on="0"/>
        <pt x="353" y="61" on="0"/>
        <pt x="464" y="39" on="0"/>
        <pt x="584" y="-27" on="0"/>
        <pt x="622" y="-78" on="1"/>
        <pt x="625" y="-81" on="0"/>
        <pt x="625" y="-87" on="0"/>
        <pt x="618" y="-87" on="0"/>
        <pt x="511" y="-64" on="0"/>
        <pt x="327" y="-41" on="0"/>
        <pt x="158" y="-41" on="0"/>
        <pt x="61" y="-44" on="0"/>
        <pt x="-14" y="-53" on="0"/>
        <pt x="-46" y="-59" on="0"/>
        <pt x="-84" y="-69" on="1"/>
        <pt x="-141" y="-84" on="0"/>
        <pt x="-163" y="-84" on="0"/>
        <pt x="-225" y="-55" on="0"/>
        <pt x="-225" y="-36" on="1"/>
        <pt x="-225" y="-27" on="0"/>
        <pt x="-213" y="-19" on="1"/>
        <pt x="-184" y="-1" on="0"/>
        <pt x="20" y="47" on="0"/>
        <pt x="77" y="50" on="1"/>
        <pt x="88" y="50" on="0"/>
        <pt x="257" y="140" on="0"/>
        <pt x="460" y="267" on="0"/>
        <pt x="624" y="429" on="0"/>
        <pt x="624" y="488" on="1"/>
        <pt x="624" y="537" on="0"/>
        <pt x="523" y="537" on="1"/>
        <pt x="487" y="537" on="0"/>
        <pt x="382" y="513" on="0"/>
        <pt x="292" y="477" on="0"/>
        <pt x="173" y="400" on="0"/>
        <pt x="120" y="347" on="1"/>
        <pt x="93" y="319" on="0"/>
        <pt x="93" y="303" on="1"/>
        <pt x="93" y="292" on="0"/>
        <pt x="109" y="292" on="1"/>
        <pt x="147" y="293" on="0"/>
        <pt x="322" y="370" on="0"/>
        <pt x="371" y="426" on="1"/>
        <pt x="389" y="448" on="0"/>
        <pt x="395" y="448" on="1"/>
        <pt x="401" y="444" on="0"/>
        <pt x="401" y="440" on="1"/>
        <pt x="401" y="376" on="0"/>
        <pt x="211" y="228" on="0"/>
        <pt x="142" y="228" on="1"/>
        <pt x="130" y="228" on="0"/>
        <pt x="90" y="247" on="0"/>
        <pt x="64" y="271" on="0"/>
        <pt x="42" y="322" on="0"/>
      </contour>
    </TTGlyph>
    <TTGlyph name="R" xMin="-51" yMin="-41" xMax="850" yMax="690">
      <contour>
        <pt x="-51" y="371" on="1"/>
        <pt x="-51" y="402" on="0"/>
        <pt x="-3" y="460" on="0"/>
        <pt x="55" y="514" on="0"/>
        <pt x="168" y="589" on="0"/>
        <pt x="296" y="648" on="0"/>
        <pt x="482" y="690" on="0"/>
        <pt x="581" y="690" on="1"/>
        <pt x="667" y="690" on="0"/>
        <pt x="752" y="657" on="1"/>
        <pt x="795" y="640" on="0"/>
        <pt x="850" y="575" on="0"/>
        <pt x="850" y="532" on="1"/>
        <pt x="850" y="465" on="0"/>
        <pt x="688" y="331" on="0"/>
        <pt x="486" y="249" on="1"/>
        <pt x="466" y="244" on="0"/>
        <pt x="466" y="235" on="1"/>
        <pt x="466" y="232" on="0"/>
        <pt x="470" y="228" on="1"/>
        <pt x="612" y="64" on="0"/>
        <pt x="704" y="-1" on="1"/>
        <pt x="715" y="-10" on="0"/>
        <pt x="715" y="-19" on="1"/>
        <pt x="715" y="-41" on="0"/>
        <pt x="585" y="-41" on="0"/>
        <pt x="542" y="1" on="1"/>
        <pt x="360" y="194" on="0"/>
        <pt x="313" y="259" on="1"/>
        <pt x="312" y="263" on="0"/>
        <pt x="307" y="263" on="0"/>
        <pt x="304" y="259" on="1"/>
        <pt x="142" y="60" on="0"/>
        <pt x="117" y="-2" on="1"/>
        <pt x="117" y="-18" on="0"/>
        <pt x="106" y="-18" on="0"/>
        <pt x="82" y="-6" on="0"/>
        <pt x="56" y="28" on="0"/>
        <pt x="56" y="77" on="0"/>
        <pt x="76" y="113" on="1"/>
        <pt x="218" y="319" on="0"/>
        <pt x="376" y="459" on="1"/>
        <pt x="443" y="518" on="0"/>
        <pt x="502" y="551" on="1"/>
        <pt x="511" y="559" on="0"/>
        <pt x="526" y="559" on="0"/>
        <pt x="547" y="545" on="0"/>
        <pt x="547" y="526" on="0"/>
        <pt x="539" y="519" on="1"/>
        <pt x="408" y="387" on="0"/>
        <pt x="359" y="322" on="1"/>
        <pt x="346" y="308" on="0"/>
        <pt x="346" y="298" on="0"/>
        <pt x="351" y="298" on="1"/>
        <pt x="355" y="298" on="1"/>
        <pt x="475" y="331" on="0"/>
        <pt x="549" y="364" on="1"/>
        <pt x="706" y="435" on="0"/>
        <pt x="787" y="514" on="1"/>
        <pt x="804" y="530" on="0"/>
        <pt x="804" y="545" on="1"/>
        <pt x="804" y="568" on="0"/>
        <pt x="727" y="592" on="0"/>
        <pt x="560" y="592" on="0"/>
        <pt x="318" y="542" on="0"/>
        <pt x="78" y="431" on="0"/>
        <pt x="20" y="358" on="1"/>
        <pt x="12" y="349" on="0"/>
        <pt x="12" y="342" on="0"/>
        <pt x="34" y="342" on="0"/>
        <pt x="149" y="392" on="0"/>
        <pt x="190" y="416" on="1"/>
        <pt x="254" y="459" on="0"/>
        <pt x="270" y="459" on="1"/>
        <pt x="276" y="459" on="0"/>
        <pt x="276" y="454" on="0"/>
        <pt x="251" y="424" on="0"/>
        <pt x="206" y="378" on="0"/>
        <pt x="173" y="350" on="1"/>
        <pt x="98" y="285" on="0"/>
        <pt x="35" y="285" on="1"/>
        <pt x="1" y="285" on="0"/>
        <pt x="-42" y="328" on="0"/>
        <pt x="-46" y="350" on="1"/>
      </contour>
    </TTGlyph>
    <TTGlyph name="S" xMin="-191" yMin="-63" xMax="806" yMax="633">
      <contour>
        <pt x="413" y="247" on="1"/>
        <pt x="311" y="243" on="1"/>
        <pt x="217" y="243" on="0"/>
        <pt x="152" y="256" on="0"/>
        <pt x="101" y="274" on="0"/>
        <pt x="86" y="286" on="1"/>
        <pt x="49" y="314" on="0"/>
        <pt x="49" y="361" on="1"/>
        <pt x="49" y="375" on="0"/>
        <pt x="83" y="431" on="0"/>
        <pt x="166" y="508" on="0"/>
        <pt x="281" y="577" on="0"/>
        <pt x="469" y="629" on="0"/>
        <pt x="579" y="633" on="1"/>
        <pt x="618" y="633" on="0"/>
        <pt x="705" y="614" on="0"/>
        <pt x="762" y="588" on="0"/>
        <pt x="806" y="535" on="0"/>
        <pt x="806" y="500" on="1"/>
        <pt x="806" y="472" on="0"/>
        <pt x="752" y="440" on="1"/>
        <pt x="692" y="404" on="0"/>
        <pt x="495" y="404" on="0"/>
        <pt x="495" y="418" on="1"/>
        <pt x="495" y="429" on="0"/>
        <pt x="610" y="459" on="0"/>
        <pt x="726" y="499" on="0"/>
        <pt x="726" y="524" on="1"/>
        <pt x="726" y="537" on="0"/>
        <pt x="682" y="537" on="1"/>
        <pt x="392" y="537" on="0"/>
        <pt x="184" y="387" on="1"/>
        <pt x="145" y="358" on="0"/>
        <pt x="145" y="337" on="1"/>
        <pt x="145" y="304" on="0"/>
        <pt x="353" y="304" on="1"/>
        <pt x="540" y="302" on="0"/>
        <pt x="540" y="204" on="1"/>
        <pt x="540" y="134" on="0"/>
        <pt x="350" y="8" on="0"/>
        <pt x="93" y="-62" on="0"/>
        <pt x="-20" y="-63" on="1"/>
        <pt x="-73" y="-63" on="0"/>
        <pt x="-191" y="-7" on="0"/>
        <pt x="-191" y="33" on="1"/>
        <pt x="-191" y="46" on="0"/>
        <pt x="-169" y="47" on="1"/>
        <pt x="-51" y="60" on="0"/>
        <pt x="-18" y="75" on="1"/>
        <pt x="-10" y="77" on="0"/>
        <pt x="0" y="77" on="0"/>
        <pt x="0" y="75" on="1"/>
        <pt x="0" y="71" on="0"/>
        <pt x="-12" y="62" on="1"/>
        <pt x="-23" y="56" on="0"/>
        <pt x="-36" y="51" on="1"/>
        <pt x="-64" y="41" on="0"/>
        <pt x="-64" y="35" on="0"/>
        <pt x="-24" y="35" on="0"/>
        <pt x="138" y="67" on="0"/>
        <pt x="323" y="117" on="0"/>
        <pt x="465" y="191" on="0"/>
        <pt x="465" y="225" on="1"/>
        <pt x="465" y="247" on="0"/>
      </contour>
    </TTGlyph>
    <TTGlyph name="Scaron" xMin="-191" yMin="-63" xMax="815" yMax="848">
      <contour>
        <pt x="311" y="243" on="1"/>
        <pt x="413" y="247" on="1"/>
        <pt x="465" y="247" on="0"/>
        <pt x="465" y="225" on="1"/>
        <pt x="465" y="191" on="0"/>
        <pt x="323" y="117" on="0"/>
        <pt x="138" y="67" on="0"/>
        <pt x="-24" y="35" on="0"/>
        <pt x="-64" y="35" on="0"/>
        <pt x="-64" y="40" on="0"/>
        <pt x="-50" y="46" on="0"/>
        <pt x="-23" y="56" on="0"/>
        <pt x="-12" y="62" on="1"/>
        <pt x="0" y="71" on="0"/>
        <pt x="0" y="75" on="1"/>
        <pt x="0" y="77" on="0"/>
        <pt x="-5" y="77" on="1"/>
        <pt x="-18" y="75" on="1"/>
        <pt x="-48" y="61" on="0"/>
        <pt x="-138" y="50" on="1"/>
        <pt x="-169" y="47" on="1"/>
        <pt x="-191" y="46" on="0"/>
        <pt x="-191" y="33" on="1"/>
        <pt x="-191" y="-7" on="0"/>
        <pt x="-73" y="-63" on="0"/>
        <pt x="-20" y="-63" on="1"/>
        <pt x="93" y="-62" on="0"/>
        <pt x="350" y="8" on="0"/>
        <pt x="540" y="134" on="0"/>
        <pt x="540" y="204" on="1"/>
        <pt x="540" y="302" on="0"/>
        <pt x="353" y="304" on="1"/>
        <pt x="145" y="304" on="0"/>
        <pt x="145" y="337" on="1"/>
        <pt x="145" y="346" on="0"/>
        <pt x="164" y="371" on="0"/>
        <pt x="174" y="379" on="1"/>
        <pt x="184" y="387" on="1"/>
        <pt x="392" y="537" on="0"/>
        <pt x="682" y="537" on="1"/>
        <pt x="726" y="537" on="0"/>
        <pt x="726" y="524" on="1"/>
        <pt x="726" y="499" on="0"/>
        <pt x="610" y="459" on="0"/>
        <pt x="495" y="429" on="0"/>
        <pt x="495" y="418" on="1"/>
        <pt x="495" y="404" on="0"/>
        <pt x="634" y="404" on="0"/>
        <pt x="726" y="424" on="0"/>
        <pt x="752" y="440" on="1"/>
        <pt x="806" y="472" on="0"/>
        <pt x="806" y="535" on="0"/>
        <pt x="762" y="588" on="0"/>
        <pt x="705" y="614" on="0"/>
        <pt x="668" y="622" on="1"/>
        <pt x="618" y="633" on="0"/>
        <pt x="579" y="633" on="1"/>
        <pt x="469" y="629" on="0"/>
        <pt x="281" y="577" on="0"/>
        <pt x="166" y="508" on="0"/>
        <pt x="83" y="431" on="0"/>
        <pt x="49" y="375" on="0"/>
        <pt x="49" y="337" on="0"/>
        <pt x="70" y="298" on="0"/>
        <pt x="101" y="274" on="0"/>
        <pt x="152" y="256" on="0"/>
        <pt x="192" y="248" on="0"/>
        <pt x="223" y="246" on="1"/>
        <pt x="269" y="243" on="0"/>
      </contour>
      <contour>
        <pt x="507" y="735" on="1"/>
        <pt x="507" y="773" on="0"/>
        <pt x="478" y="836" on="1"/>
        <pt x="479" y="848" on="0"/>
        <pt x="509" y="848" on="1"/>
        <pt x="527" y="848" on="0"/>
        <pt x="584" y="772" on="0"/>
        <pt x="584" y="762" on="1"/>
        <pt x="625" y="795" on="0"/>
        <pt x="758" y="846" on="0"/>
        <pt x="791" y="846" on="1"/>
        <pt x="802" y="846" on="0"/>
        <pt x="815" y="836" on="0"/>
        <pt x="815" y="831" on="1"/>
        <pt x="815" y="812" on="0"/>
        <pt x="802" y="812" on="1"/>
        <pt x="756" y="802" on="0"/>
        <pt x="655" y="733" on="0"/>
        <pt x="589" y="674" on="0"/>
        <pt x="574" y="674" on="0"/>
        <pt x="566" y="678" on="1"/>
        <pt x="547" y="685" on="0"/>
        <pt x="547" y="688" on="1"/>
        <pt x="541" y="686" on="0"/>
        <pt x="529" y="686" on="1"/>
        <pt x="500" y="689" on="0"/>
        <pt x="500" y="704" on="1"/>
      </contour>
    </TTGlyph>
    <TTGlyph name="T" xMin="-63" yMin="-46" xMax="780" yMax="660">
      <contour>
        <pt x="8" y="488" on="0"/>
        <pt x="-63" y="542" on="0"/>
        <pt x="-63" y="576" on="0"/>
        <pt x="-39" y="585" on="1"/>
        <pt x="7" y="605" on="0"/>
        <pt x="54" y="616" on="1"/>
        <pt x="69" y="619" on="1"/>
        <pt x="74" y="621" on="0"/>
        <pt x="78" y="621" on="1"/>
        <pt x="85" y="621" on="0"/>
        <pt x="85" y="606" on="0"/>
        <pt x="101" y="606" on="0"/>
        <pt x="166" y="620" on="1"/>
        <pt x="361" y="660" on="0"/>
        <pt x="535" y="660" on="1"/>
        <pt x="637" y="660" on="0"/>
        <pt x="780" y="611" on="0"/>
        <pt x="780" y="566" on="1"/>
        <pt x="780" y="556" on="0"/>
        <pt x="725" y="556" on="0"/>
        <pt x="648" y="554" on="0"/>
        <pt x="590" y="552" on="1"/>
        <pt x="454" y="546" on="0"/>
        <pt x="454" y="525" on="1"/>
        <pt x="454" y="521" on="0"/>
        <pt x="456" y="519" on="1"/>
        <pt x="456" y="514" on="0"/>
        <pt x="434" y="491" on="0"/>
        <pt x="388" y="441" on="0"/>
        <pt x="262" y="300" on="0"/>
        <pt x="209" y="238" on="1"/>
        <pt x="72" y="76" on="0"/>
        <pt x="20" y="-12" on="1"/>
        <pt x="17" y="-46" on="0"/>
        <pt x="0" y="-46" on="1"/>
        <pt x="-13" y="-46" on="0"/>
        <pt x="-56" y="-6" on="0"/>
        <pt x="-56" y="23" on="1"/>
        <pt x="-56" y="77" on="0"/>
        <pt x="106" y="273" on="0"/>
        <pt x="345" y="490" on="1"/>
        <pt x="356" y="501" on="0"/>
        <pt x="365" y="508" on="1"/>
        <pt x="379" y="519" on="0"/>
        <pt x="379" y="523" on="0"/>
        <pt x="367" y="523" on="0"/>
        <pt x="349" y="521" on="1"/>
        <pt x="43" y="491" on="1"/>
        <pt x="36" y="488" on="0"/>
      </contour>
    </TTGlyph>
    <TTGlyph name="Thorn" xMin="-199" yMin="-41" xMax="607" yMax="700">
      <contour>
        <pt x="430" y="586" on="1"/>
        <pt x="545" y="700" on="0"/>
        <pt x="578" y="700" on="1"/>
        <pt x="586" y="700" on="0"/>
        <pt x="603" y="690" on="0"/>
        <pt x="603" y="676" on="0"/>
        <pt x="599" y="672" on="1"/>
        <pt x="556" y="632" on="0"/>
        <pt x="490" y="563" on="1"/>
        <pt x="607" y="505" on="0"/>
        <pt x="607" y="396" on="1"/>
        <pt x="607" y="345" on="0"/>
        <pt x="479" y="213" on="0"/>
        <pt x="296" y="120" on="0"/>
        <pt x="224" y="120" on="1"/>
        <pt x="165" y="120" on="0"/>
        <pt x="165" y="176" on="1"/>
        <pt x="98" y="86" on="0"/>
        <pt x="34" y="-17" on="1"/>
        <pt x="35" y="-22" on="0"/>
        <pt x="35" y="-41" on="0"/>
        <pt x="13" y="-41" on="0"/>
        <pt x="-22" y="-4" on="0"/>
        <pt x="-22" y="30" on="1"/>
        <pt x="-22" y="40" on="0"/>
        <pt x="-21" y="46" on="1"/>
        <pt x="-15" y="87" on="0"/>
        <pt x="208" y="360" on="0"/>
        <pt x="344" y="501" on="1"/>
        <pt x="266" y="497" on="0"/>
        <pt x="109" y="453" on="0"/>
        <pt x="-7" y="395" on="0"/>
        <pt x="-99" y="333" on="0"/>
        <pt x="-146" y="286" on="0"/>
        <pt x="-146" y="272" on="0"/>
        <pt x="-132" y="272" on="0"/>
        <pt x="-102" y="282" on="1"/>
        <pt x="-1" y="315" on="0"/>
        <pt x="95" y="371" on="1"/>
        <pt x="102" y="375" on="0"/>
        <pt x="107" y="375" on="0"/>
        <pt x="107" y="370" on="0"/>
        <pt x="82" y="337" on="0"/>
        <pt x="38" y="290" on="0"/>
        <pt x="-14" y="246" on="0"/>
        <pt x="-79" y="215" on="0"/>
        <pt x="-140" y="215" on="0"/>
        <pt x="-199" y="264" on="0"/>
        <pt x="-199" y="349" on="0"/>
        <pt x="-115" y="449" on="0"/>
        <pt x="22" y="539" on="0"/>
        <pt x="226" y="601" on="0"/>
        <pt x="332" y="601" on="1"/>
        <pt x="379" y="601" on="0"/>
      </contour>
      <contour>
        <pt x="569" y="437" on="1"/>
        <pt x="569" y="463" on="0"/>
        <pt x="486" y="494" on="0"/>
        <pt x="430" y="499" on="1"/>
        <pt x="293" y="349" on="0"/>
        <pt x="175" y="189" on="1"/>
        <pt x="236" y="195" on="0"/>
        <pt x="419" y="270" on="0"/>
        <pt x="569" y="386" on="0"/>
      </contour>
    </TTGlyph>
    <TTGlyph name="U" xMin="-53" yMin="-156" xMax="909" yMax="689">
      <contour>
        <pt x="494" y="44" on="1"/>
        <pt x="494" y="-12" on="0"/>
        <pt x="520" y="-139" on="0"/>
        <pt x="534" y="-153" on="1"/>
        <pt x="534" y="-156" on="0"/>
        <pt x="527" y="-156" on="1"/>
        <pt x="481" y="-156" on="0"/>
        <pt x="448" y="-120" on="1"/>
        <pt x="388" y="-53" on="0"/>
        <pt x="388" y="56" on="1"/>
        <pt x="388" y="108" on="0"/>
        <pt x="412" y="166" on="1"/>
        <pt x="418" y="179" on="0"/>
        <pt x="445" y="239" on="0"/>
        <pt x="452" y="257" on="1"/>
        <pt x="452" y="258" on="0"/>
        <pt x="450" y="258" on="1"/>
        <pt x="445" y="258" on="0"/>
        <pt x="393" y="199" on="0"/>
        <pt x="311" y="115" on="0"/>
        <pt x="213" y="30" on="0"/>
        <pt x="87" y="-29" on="0"/>
        <pt x="29" y="-29" on="1"/>
        <pt x="-27" y="-29" on="0"/>
        <pt x="-42" y="-4" on="1"/>
        <pt x="-53" y="15" on="0"/>
        <pt x="-53" y="39" on="1"/>
        <pt x="-53" y="89" on="0"/>
        <pt x="50" y="231" on="0"/>
        <pt x="198" y="368" on="0"/>
        <pt x="345" y="496" on="0"/>
        <pt x="449" y="599" on="0"/>
        <pt x="450" y="620" on="1"/>
        <pt x="450" y="630" on="0"/>
        <pt x="435" y="630" on="1"/>
        <pt x="338" y="630" on="0"/>
        <pt x="102" y="497" on="0"/>
        <pt x="5" y="398" on="1"/>
        <pt x="-4" y="389" on="0"/>
        <pt x="-9" y="389" on="1"/>
        <pt x="-12" y="389" on="0"/>
        <pt x="-12" y="394" on="1"/>
        <pt x="-10" y="404" on="1"/>
        <pt x="18" y="478" on="0"/>
        <pt x="128" y="595" on="0"/>
        <pt x="188" y="626" on="1"/>
        <pt x="311" y="689" on="0"/>
        <pt x="387" y="689" on="1"/>
        <pt x="540" y="689" on="0"/>
        <pt x="540" y="593" on="1"/>
        <pt x="540" y="538" on="0"/>
        <pt x="386" y="399" on="1"/>
        <pt x="321" y="341" on="0"/>
        <pt x="256" y="284" on="1"/>
        <pt x="101" y="147" on="0"/>
        <pt x="101" y="99" on="1"/>
        <pt x="101" y="95" on="0"/>
        <pt x="105" y="95" on="1"/>
        <pt x="160" y="95" on="0"/>
        <pt x="515" y="362" on="0"/>
        <pt x="706" y="546" on="1"/>
        <pt x="829" y="665" on="1"/>
        <pt x="838" y="683" on="0"/>
        <pt x="850" y="683" on="1"/>
        <pt x="855" y="683" on="0"/>
        <pt x="881" y="666" on="0"/>
        <pt x="892" y="660" on="0"/>
        <pt x="898" y="656" on="1"/>
        <pt x="909" y="646" on="0"/>
        <pt x="909" y="632" on="0"/>
        <pt x="899" y="623" on="1"/>
        <pt x="663" y="380" on="1"/>
        <pt x="643" y="358" on="1"/>
        <pt x="494" y="194" on="0"/>
      </contour>
    </TTGlyph>
    <TTGlyph name="Uacute" xMin="-99" yMin="-156" xMax="863" yMax="871">
      <contour>
        <pt x="474" y="-139" on="0"/>
        <pt x="448" y="-12" on="0"/>
        <pt x="448" y="100" on="0"/>
        <pt x="481" y="196" on="0"/>
        <pt x="506" y="236" on="1"/>
        <pt x="548" y="304" on="0"/>
        <pt x="597" y="358" on="1"/>
        <pt x="617" y="380" on="1"/>
        <pt x="853" y="623" on="1"/>
        <pt x="863" y="632" on="0"/>
        <pt x="863" y="644" on="0"/>
        <pt x="857" y="651" on="0"/>
        <pt x="846" y="660" on="0"/>
        <pt x="835" y="666" on="0"/>
        <pt x="826" y="672" on="1"/>
        <pt x="809" y="683" on="0"/>
        <pt x="804" y="683" on="1"/>
        <pt x="793" y="683" on="0"/>
        <pt x="783" y="665" on="1"/>
        <pt x="660" y="546" on="1"/>
        <pt x="469" y="362" on="0"/>
        <pt x="114" y="95" on="0"/>
        <pt x="59" y="95" on="1"/>
        <pt x="55" y="95" on="0"/>
        <pt x="55" y="99" on="1"/>
        <pt x="55" y="147" on="0"/>
        <pt x="210" y="284" on="1"/>
        <pt x="275" y="341" on="0"/>
        <pt x="340" y="399" on="1"/>
        <pt x="494" y="538" on="0"/>
        <pt x="494" y="593" on="1"/>
        <pt x="494" y="689" on="0"/>
        <pt x="341" y="689" on="1"/>
        <pt x="265" y="689" on="0"/>
        <pt x="142" y="626" on="1"/>
        <pt x="82" y="595" on="0"/>
        <pt x="-28" y="478" on="0"/>
        <pt x="-56" y="404" on="1"/>
        <pt x="-58" y="398" on="0"/>
        <pt x="-58" y="389" on="0"/>
        <pt x="-55" y="389" on="1"/>
        <pt x="-50" y="389" on="0"/>
        <pt x="-41" y="398" on="1"/>
        <pt x="56" y="497" on="0"/>
        <pt x="292" y="630" on="0"/>
        <pt x="389" y="630" on="1"/>
        <pt x="404" y="630" on="0"/>
        <pt x="404" y="620" on="1"/>
        <pt x="403" y="599" on="0"/>
        <pt x="299" y="496" on="0"/>
        <pt x="152" y="368" on="0"/>
        <pt x="4" y="231" on="0"/>
        <pt x="-99" y="89" on="0"/>
        <pt x="-99" y="39" on="1"/>
        <pt x="-99" y="-10" on="0"/>
        <pt x="-63" y="-22" on="1"/>
        <pt x="-45" y="-29" on="0"/>
        <pt x="-17" y="-29" on="1"/>
        <pt x="41" y="-29" on="0"/>
        <pt x="167" y="30" on="0"/>
        <pt x="265" y="114" on="0"/>
        <pt x="347" y="199" on="0"/>
        <pt x="399" y="258" on="0"/>
        <pt x="404" y="258" on="1"/>
        <pt x="406" y="258" on="0"/>
        <pt x="406" y="257" on="1"/>
        <pt x="399" y="239" on="0"/>
        <pt x="372" y="179" on="0"/>
        <pt x="361" y="153" on="0"/>
        <pt x="354" y="132" on="1"/>
        <pt x="342" y="96" on="0"/>
        <pt x="342" y="10" on="0"/>
        <pt x="369" y="-83" on="0"/>
        <pt x="435" y="-156" on="0"/>
        <pt x="481" y="-156" on="1"/>
        <pt x="488" y="-156" on="0"/>
        <pt x="488" y="-153" on="1"/>
      </contour>
      <contour>
        <pt x="562" y="698" on="1"/>
        <pt x="562" y="709" on="0"/>
        <pt x="579" y="724" on="1"/>
        <pt x="623" y="750" on="0"/>
        <pt x="689" y="817" on="0"/>
        <pt x="700" y="837" on="1"/>
        <pt x="711" y="857" on="1"/>
        <pt x="721" y="871" on="0"/>
        <pt x="753" y="871" on="0"/>
        <pt x="774" y="835" on="0"/>
        <pt x="774" y="816" on="1"/>
        <pt x="772" y="793" on="1"/>
        <pt x="751" y="754" on="0"/>
        <pt x="703" y="726" on="1"/>
        <pt x="627" y="683" on="0"/>
        <pt x="577" y="683" on="1"/>
        <pt x="562" y="683" on="0"/>
      </contour>
    </TTGlyph>
    <TTGlyph name="Ucircumflex" xMin="-99" yMin="-156" xMax="863" yMax="889">
      <contour>
        <pt x="474" y="-139" on="0"/>
        <pt x="448" y="-12" on="0"/>
        <pt x="448" y="100" on="0"/>
        <pt x="481" y="196" on="0"/>
        <pt x="506" y="236" on="1"/>
        <pt x="548" y="304" on="0"/>
        <pt x="597" y="358" on="1"/>
        <pt x="617" y="380" on="1"/>
        <pt x="853" y="623" on="1"/>
        <pt x="863" y="632" on="0"/>
        <pt x="863" y="644" on="0"/>
        <pt x="857" y="651" on="0"/>
        <pt x="846" y="660" on="0"/>
        <pt x="835" y="666" on="0"/>
        <pt x="826" y="672" on="1"/>
        <pt x="809" y="683" on="0"/>
        <pt x="804" y="683" on="1"/>
        <pt x="793" y="683" on="0"/>
        <pt x="783" y="665" on="1"/>
        <pt x="660" y="546" on="1"/>
        <pt x="469" y="362" on="0"/>
        <pt x="114" y="95" on="0"/>
        <pt x="59" y="95" on="1"/>
        <pt x="55" y="95" on="0"/>
        <pt x="55" y="99" on="1"/>
        <pt x="55" y="147" on="0"/>
        <pt x="210" y="284" on="1"/>
        <pt x="275" y="341" on="0"/>
        <pt x="340" y="399" on="1"/>
        <pt x="494" y="538" on="0"/>
        <pt x="494" y="593" on="1"/>
        <pt x="494" y="689" on="0"/>
        <pt x="341" y="689" on="1"/>
        <pt x="265" y="689" on="0"/>
        <pt x="142" y="626" on="1"/>
        <pt x="82" y="595" on="0"/>
        <pt x="-28" y="478" on="0"/>
        <pt x="-56" y="404" on="1"/>
        <pt x="-58" y="398" on="0"/>
        <pt x="-58" y="389" on="0"/>
        <pt x="-55" y="389" on="1"/>
        <pt x="-50" y="389" on="0"/>
        <pt x="-41" y="398" on="1"/>
        <pt x="56" y="497" on="0"/>
        <pt x="292" y="630" on="0"/>
        <pt x="389" y="630" on="1"/>
        <pt x="404" y="630" on="0"/>
        <pt x="404" y="620" on="1"/>
        <pt x="403" y="599" on="0"/>
        <pt x="299" y="496" on="0"/>
        <pt x="152" y="368" on="0"/>
        <pt x="4" y="231" on="0"/>
        <pt x="-99" y="89" on="0"/>
        <pt x="-99" y="39" on="1"/>
        <pt x="-99" y="-10" on="0"/>
        <pt x="-63" y="-22" on="1"/>
        <pt x="-45" y="-29" on="0"/>
        <pt x="-17" y="-29" on="1"/>
        <pt x="41" y="-29" on="0"/>
        <pt x="167" y="30" on="0"/>
        <pt x="265" y="114" on="0"/>
        <pt x="347" y="199" on="0"/>
        <pt x="399" y="258" on="0"/>
        <pt x="404" y="258" on="1"/>
        <pt x="406" y="258" on="0"/>
        <pt x="406" y="257" on="1"/>
        <pt x="399" y="239" on="0"/>
        <pt x="372" y="179" on="0"/>
        <pt x="361" y="153" on="0"/>
        <pt x="354" y="132" on="1"/>
        <pt x="342" y="96" on="0"/>
        <pt x="342" y="10" on="0"/>
        <pt x="369" y="-83" on="0"/>
        <pt x="435" y="-156" on="0"/>
        <pt x="481" y="-156" on="1"/>
        <pt x="488" y="-156" on="0"/>
        <pt x="488" y="-153" on="1"/>
      </contour>
      <contour>
        <pt x="782" y="828" on="1"/>
        <pt x="782" y="790" on="0"/>
        <pt x="811" y="727" on="1"/>
        <pt x="810" y="715" on="0"/>
        <pt x="780" y="715" on="1"/>
        <pt x="762" y="715" on="0"/>
        <pt x="705" y="792" on="0"/>
        <pt x="705" y="801" on="1"/>
        <pt x="664" y="768" on="0"/>
        <pt x="531" y="717" on="0"/>
        <pt x="498" y="717" on="1"/>
        <pt x="487" y="717" on="0"/>
        <pt x="474" y="727" on="0"/>
        <pt x="474" y="732" on="1"/>
        <pt x="474" y="751" on="0"/>
        <pt x="487" y="751" on="1"/>
        <pt x="533" y="761" on="0"/>
        <pt x="634" y="830" on="0"/>
        <pt x="700" y="889" on="0"/>
        <pt x="715" y="889" on="0"/>
        <pt x="724" y="886" on="1"/>
        <pt x="742" y="878" on="0"/>
        <pt x="742" y="875" on="1"/>
        <pt x="748" y="877" on="0"/>
        <pt x="760" y="877" on="1"/>
        <pt x="789" y="874" on="0"/>
        <pt x="789" y="859" on="1"/>
      </contour>
    </TTGlyph>
    <TTGlyph name="Udieresis" xMin="-99" yMin="-156" xMax="863" yMax="829">
      <contour>
        <pt x="448" y="44" on="1"/>
        <pt x="448" y="-12" on="0"/>
        <pt x="474" y="-139" on="0"/>
        <pt x="488" y="-153" on="1"/>
        <pt x="488" y="-156" on="0"/>
        <pt x="481" y="-156" on="1"/>
        <pt x="435" y="-156" on="0"/>
        <pt x="402" y="-120" on="1"/>
        <pt x="342" y="-53" on="0"/>
        <pt x="342" y="56" on="1"/>
        <pt x="342" y="108" on="0"/>
        <pt x="366" y="166" on="1"/>
        <pt x="372" y="179" on="0"/>
        <pt x="399" y="239" on="0"/>
        <pt x="406" y="257" on="1"/>
        <pt x="406" y="258" on="0"/>
        <pt x="404" y="258" on="1"/>
        <pt x="399" y="258" on="0"/>
        <pt x="347" y="199" on="0"/>
        <pt x="265" y="115" on="0"/>
        <pt x="167" y="30" on="0"/>
        <pt x="41" y="-29" on="0"/>
        <pt x="-17" y="-29" on="1"/>
        <pt x="-73" y="-29" on="0"/>
        <pt x="-88" y="-4" on="1"/>
        <pt x="-99" y="15" on="0"/>
        <pt x="-99" y="39" on="1"/>
        <pt x="-99" y="89" on="0"/>
        <pt x="4" y="231" on="0"/>
        <pt x="152" y="368" on="0"/>
        <pt x="299" y="496" on="0"/>
        <pt x="403" y="599" on="0"/>
        <pt x="404" y="620" on="1"/>
        <pt x="404" y="630" on="0"/>
        <pt x="389" y="630" on="1"/>
        <pt x="292" y="630" on="0"/>
        <pt x="56" y="497" on="0"/>
        <pt x="-41" y="398" on="1"/>
        <pt x="-50" y="389" on="0"/>
        <pt x="-55" y="389" on="1"/>
        <pt x="-58" y="389" on="0"/>
        <pt x="-58" y="394" on="1"/>
        <pt x="-56" y="404" on="1"/>
        <pt x="-28" y="478" on="0"/>
        <pt x="82" y="595" on="0"/>
        <pt x="142" y="626" on="1"/>
        <pt x="265" y="689" on="0"/>
        <pt x="341" y="689" on="1"/>
        <pt x="494" y="689" on="0"/>
        <pt x="494" y="593" on="1"/>
        <pt x="494" y="538" on="0"/>
        <pt x="340" y="399" on="1"/>
        <pt x="275" y="341" on="0"/>
        <pt x="210" y="284" on="1"/>
        <pt x="55" y="147" on="0"/>
        <pt x="55" y="99" on="1"/>
        <pt x="55" y="95" on="0"/>
        <pt x="59" y="95" on="1"/>
        <pt x="114" y="95" on="0"/>
        <pt x="469" y="362" on="0"/>
        <pt x="660" y="546" on="1"/>
        <pt x="783" y="665" on="1"/>
        <pt x="792" y="683" on="0"/>
        <pt x="804" y="683" on="1"/>
        <pt x="809" y="683" on="0"/>
        <pt x="835" y="666" on="0"/>
        <pt x="846" y="660" on="0"/>
        <pt x="852" y="656" on="1"/>
        <pt x="863" y="646" on="0"/>
        <pt x="863" y="632" on="0"/>
        <pt x="853" y="623" on="1"/>
        <pt x="617" y="380" on="1"/>
        <pt x="597" y="358" on="1"/>
        <pt x="448" y="194" on="0"/>
      </contour>
      <contour>
        <pt x="605" y="829" on="1"/>
        <pt x="615" y="829" on="0"/>
        <pt x="618" y="825" on="1"/>
        <pt x="632" y="808" on="0"/>
        <pt x="632" y="787" on="0"/>
        <pt x="620" y="772" on="0"/>
        <pt x="603" y="753" on="0"/>
        <pt x="552" y="720" on="0"/>
        <pt x="528" y="720" on="1"/>
        <pt x="510" y="723" on="0"/>
        <pt x="510" y="742" on="1"/>
        <pt x="510" y="772" on="0"/>
        <pt x="582" y="829" on="0"/>
      </contour>
      <contour>
        <pt x="772" y="829" on="1"/>
        <pt x="782" y="829" on="0"/>
        <pt x="785" y="825" on="1"/>
        <pt x="799" y="808" on="0"/>
        <pt x="799" y="787" on="0"/>
        <pt x="787" y="772" on="0"/>
        <pt x="770" y="753" on="0"/>
        <pt x="719" y="720" on="0"/>
        <pt x="695" y="720" on="1"/>
        <pt x="677" y="723" on="0"/>
        <pt x="677" y="742" on="1"/>
        <pt x="677" y="772" on="0"/>
        <pt x="749" y="829" on="0"/>
      </contour>
    </TTGlyph>
    <TTGlyph name="Ugrave" xMin="-99" yMin="-156" xMax="863" yMax="899">
      <contour>
        <pt x="448" y="44" on="1"/>
        <pt x="448" y="-12" on="0"/>
        <pt x="474" y="-139" on="0"/>
        <pt x="488" y="-153" on="1"/>
        <pt x="488" y="-156" on="0"/>
        <pt x="481" y="-156" on="1"/>
        <pt x="435" y="-156" on="0"/>
        <pt x="402" y="-120" on="1"/>
        <pt x="342" y="-53" on="0"/>
        <pt x="342" y="56" on="1"/>
        <pt x="342" y="108" on="0"/>
        <pt x="366" y="166" on="1"/>
        <pt x="372" y="179" on="0"/>
        <pt x="399" y="239" on="0"/>
        <pt x="406" y="257" on="1"/>
        <pt x="406" y="258" on="0"/>
        <pt x="404" y="258" on="1"/>
        <pt x="399" y="258" on="0"/>
        <pt x="347" y="199" on="0"/>
        <pt x="265" y="115" on="0"/>
        <pt x="167" y="30" on="0"/>
        <pt x="41" y="-29" on="0"/>
        <pt x="-17" y="-29" on="1"/>
        <pt x="-73" y="-29" on="0"/>
        <pt x="-88" y="-4" on="1"/>
        <pt x="-99" y="15" on="0"/>
        <pt x="-99" y="39" on="1"/>
        <pt x="-99" y="89" on="0"/>
        <pt x="4" y="231" on="0"/>
        <pt x="152" y="368" on="0"/>
        <pt x="299" y="496" on="0"/>
        <pt x="403" y="599" on="0"/>
        <pt x="404" y="620" on="1"/>
        <pt x="404" y="630" on="0"/>
        <pt x="389" y="630" on="1"/>
        <pt x="292" y="630" on="0"/>
        <pt x="56" y="497" on="0"/>
        <pt x="-41" y="398" on="1"/>
        <pt x="-50" y="389" on="0"/>
        <pt x="-55" y="389" on="1"/>
        <pt x="-58" y="389" on="0"/>
        <pt x="-58" y="394" on="1"/>
        <pt x="-56" y="404" on="1"/>
        <pt x="-28" y="478" on="0"/>
        <pt x="82" y="595" on="0"/>
        <pt x="142" y="626" on="1"/>
        <pt x="265" y="689" on="0"/>
        <pt x="341" y="689" on="1"/>
        <pt x="494" y="689" on="0"/>
        <pt x="494" y="593" on="1"/>
        <pt x="494" y="538" on="0"/>
        <pt x="340" y="399" on="1"/>
        <pt x="275" y="341" on="0"/>
        <pt x="210" y="284" on="1"/>
        <pt x="55" y="147" on="0"/>
        <pt x="55" y="99" on="1"/>
        <pt x="55" y="95" on="0"/>
        <pt x="59" y="95" on="1"/>
        <pt x="114" y="95" on="0"/>
        <pt x="469" y="362" on="0"/>
        <pt x="660" y="546" on="1"/>
        <pt x="783" y="665" on="1"/>
        <pt x="792" y="683" on="0"/>
        <pt x="804" y="683" on="1"/>
        <pt x="809" y="683" on="0"/>
        <pt x="835" y="666" on="0"/>
        <pt x="846" y="660" on="0"/>
        <pt x="852" y="656" on="1"/>
        <pt x="863" y="646" on="0"/>
        <pt x="863" y="632" on="0"/>
        <pt x="853" y="623" on="1"/>
        <pt x="617" y="380" on="1"/>
        <pt x="597" y="358" on="1"/>
        <pt x="448" y="194" on="0"/>
      </contour>
      <contour>
        <pt x="686" y="716" on="1"/>
        <pt x="696" y="702" on="0"/>
        <pt x="696" y="687" on="1"/>
        <pt x="692" y="676" on="0"/>
        <pt x="680" y="676" on="1"/>
        <pt x="667" y="679" on="0"/>
        <pt x="606" y="712" on="0"/>
        <pt x="527" y="790" on="0"/>
        <pt x="518" y="833" on="1"/>
        <pt x="523" y="860" on="1"/>
        <pt x="537" y="898" on="0"/>
        <pt x="565" y="899" on="1"/>
        <pt x="584" y="899" on="0"/>
        <pt x="593" y="879" on="1"/>
        <pt x="600" y="846" on="0"/>
        <pt x="651" y="753" on="0"/>
      </contour>
    </TTGlyph>
    <TTGlyph name="V" xMin="-11" yMin="-68" xMax="939" yMax="659">
      <contour>
        <pt x="333" y="659" on="1"/>
        <pt x="465" y="659" on="0"/>
        <pt x="465" y="551" on="1"/>
        <pt x="465" y="532" on="0"/>
        <pt x="427" y="426" on="0"/>
        <pt x="323" y="253" on="0"/>
        <pt x="253" y="182" on="1"/>
        <pt x="213" y="135" on="0"/>
        <pt x="213" y="128" on="0"/>
        <pt x="216" y="128" on="1"/>
        <pt x="268" y="190" on="0"/>
        <pt x="463" y="390" on="0"/>
        <pt x="612" y="523" on="0"/>
        <pt x="785" y="632" on="0"/>
        <pt x="881" y="632" on="0"/>
        <pt x="939" y="600" on="0"/>
        <pt x="939" y="569" on="1"/>
        <pt x="939" y="551" on="0"/>
        <pt x="927" y="551" on="1"/>
        <pt x="855" y="549" on="0"/>
        <pt x="673" y="456" on="0"/>
        <pt x="506" y="319" on="0"/>
        <pt x="333" y="159" on="0"/>
        <pt x="265" y="91" on="1"/>
        <pt x="106" y="-68" on="0"/>
        <pt x="61" y="-68" on="1"/>
        <pt x="54" y="-68" on="0"/>
        <pt x="48" y="-65" on="1"/>
        <pt x="42" y="-60" on="0"/>
        <pt x="16" y="-43" on="0"/>
        <pt x="0" y="-32" on="0"/>
        <pt x="0" y="-19" on="0"/>
        <pt x="12" y="-6" on="1"/>
        <pt x="128" y="114" on="0"/>
        <pt x="207" y="240" on="1"/>
        <pt x="283" y="362" on="0"/>
        <pt x="338" y="478" on="1"/>
        <pt x="358" y="521" on="1"/>
        <pt x="377" y="561" on="0"/>
        <pt x="377" y="590" on="0"/>
        <pt x="369" y="590" on="1"/>
        <pt x="346" y="590" on="0"/>
        <pt x="199" y="508" on="0"/>
        <pt x="34" y="374" on="0"/>
        <pt x="4" y="317" on="1"/>
        <pt x="-4" y="309" on="0"/>
        <pt x="-11" y="309" on="0"/>
        <pt x="-11" y="315" on="1"/>
        <pt x="-11" y="346" on="0"/>
        <pt x="51" y="460" on="0"/>
        <pt x="145" y="575" on="0"/>
        <pt x="274" y="659" on="0"/>
      </contour>
    </TTGlyph>
    <TTGlyph name="W" xMin="-30" yMin="-32" xMax="1110" yMax="693">
      <contour>
        <pt x="-18" y="348" on="0"/>
        <pt x="-30" y="348" on="0"/>
        <pt x="-30" y="378" on="0"/>
        <pt x="22" y="455" on="0"/>
        <pt x="121" y="544" on="0"/>
        <pt x="243" y="624" on="0"/>
        <pt x="404" y="677" on="0"/>
        <pt x="483" y="677" on="1"/>
        <pt x="491" y="674" on="0"/>
        <pt x="516" y="665" on="0"/>
        <pt x="557" y="636" on="0"/>
        <pt x="557" y="612" on="0"/>
        <pt x="552" y="606" on="1"/>
        <pt x="475" y="536" on="0"/>
        <pt x="284" y="338" on="0"/>
        <pt x="233" y="272" on="1"/>
        <pt x="161" y="178" on="1"/>
        <pt x="155" y="169" on="0"/>
        <pt x="155" y="164" on="1"/>
        <pt x="155" y="163" on="1"/>
        <pt x="171" y="171" on="1"/>
        <pt x="173" y="172" on="0"/>
        <pt x="174" y="173" on="1"/>
        <pt x="539" y="430" on="0"/>
        <pt x="663" y="537" on="1"/>
        <pt x="666" y="541" on="0"/>
        <pt x="676" y="541" on="0"/>
        <pt x="680" y="535" on="0"/>
        <pt x="714" y="504" on="0"/>
        <pt x="714" y="489" on="0"/>
        <pt x="708" y="484" on="1"/>
        <pt x="609" y="390" on="0"/>
        <pt x="403" y="106" on="0"/>
        <pt x="403" y="29" on="1"/>
        <pt x="403" y="20" on="0"/>
        <pt x="412" y="20" on="1"/>
        <pt x="432" y="20" on="0"/>
        <pt x="580" y="128" on="0"/>
        <pt x="769" y="294" on="0"/>
        <pt x="980" y="535" on="0"/>
        <pt x="1047" y="649" on="1"/>
        <pt x="1056" y="668" on="0"/>
        <pt x="1066" y="693" on="0"/>
        <pt x="1087" y="693" on="0"/>
        <pt x="1110" y="634" on="0"/>
        <pt x="1110" y="612" on="1"/>
        <pt x="1110" y="577" on="0"/>
        <pt x="950" y="367" on="0"/>
        <pt x="736" y="143" on="0"/>
        <pt x="496" y="-32" on="0"/>
        <pt x="427" y="-32" on="1"/>
        <pt x="394" y="-32" on="0"/>
        <pt x="329" y="20" on="0"/>
        <pt x="329" y="78" on="1"/>
        <pt x="329" y="150" on="0"/>
        <pt x="372" y="226" on="1"/>
        <pt x="389" y="256" on="0"/>
        <pt x="413" y="280" on="1"/>
        <pt x="436" y="307" on="1"/>
        <pt x="440" y="315" on="1"/>
        <pt x="440" y="316" on="1"/>
        <pt x="440" y="318" on="0"/>
        <pt x="439" y="318" on="1"/>
        <pt x="436" y="318" on="0"/>
        <pt x="430" y="312" on="1"/>
        <pt x="207" y="116" on="0"/>
        <pt x="49" y="-13" on="0"/>
        <pt x="21" y="-13" on="0"/>
        <pt x="12" y="1" on="1"/>
        <pt x="8" y="6" on="0"/>
        <pt x="-1" y="17" on="0"/>
        <pt x="-5" y="22" on="0"/>
        <pt x="-9" y="27" on="0"/>
        <pt x="-10" y="28" on="1"/>
        <pt x="-11" y="33" on="0"/>
        <pt x="-11" y="53" on="0"/>
        <pt x="3" y="91" on="0"/>
        <pt x="16" y="126" on="0"/>
        <pt x="78" y="239" on="0"/>
        <pt x="164" y="354" on="0"/>
        <pt x="330" y="520" on="0"/>
        <pt x="433" y="597" on="1"/>
        <pt x="452" y="612" on="0"/>
        <pt x="452" y="620" on="0"/>
        <pt x="448" y="620" on="1"/>
        <pt x="373" y="620" on="0"/>
        <pt x="24" y="420" on="0"/>
        <pt x="-15" y="357" on="1"/>
      </contour>
    </TTGlyph>
    <TTGlyph name="X" xMin="-225" yMin="-170" xMax="872" yMax="676">
      <contour>
        <pt x="463" y="300" on="1"/>
        <pt x="455" y="293" on="0"/>
        <pt x="436" y="278" on="1"/>
        <pt x="399" y="251" on="0"/>
        <pt x="385" y="227" on="1"/>
        <pt x="338" y="137" on="0"/>
        <pt x="338" y="-95" on="0"/>
        <pt x="373" y="-167" on="1"/>
        <pt x="373" y="-170" on="0"/>
        <pt x="366" y="-170" on="1"/>
        <pt x="320" y="-170" on="0"/>
        <pt x="287" y="-134" on="1"/>
        <pt x="227" y="-67" on="0"/>
        <pt x="227" y="42" on="1"/>
        <pt x="227" y="81" on="0"/>
        <pt x="246" y="138" on="1"/>
        <pt x="247" y="142" on="0"/>
        <pt x="247" y="146" on="0"/>
        <pt x="244" y="146" on="0"/>
        <pt x="239" y="141" on="1"/>
        <pt x="235" y="141" on="0"/>
        <pt x="229" y="135" on="1"/>
        <pt x="229" y="137" on="0"/>
        <pt x="171" y="93" on="0"/>
        <pt x="80" y="25" on="0"/>
        <pt x="-20" y="-44" on="0"/>
        <pt x="-119" y="-93" on="0"/>
        <pt x="-165" y="-93" on="0"/>
        <pt x="-225" y="-56" on="0"/>
        <pt x="-225" y="-50" on="1"/>
        <pt x="-225" y="-42" on="0"/>
        <pt x="-211" y="-32" on="1"/>
        <pt x="-57" y="68" on="0"/>
        <pt x="-40" y="93" on="1"/>
        <pt x="-32" y="98" on="0"/>
        <pt x="-24" y="98" on="0"/>
        <pt x="-24" y="95" on="1"/>
        <pt x="-24" y="85" on="0"/>
        <pt x="-77" y="34" on="0"/>
        <pt x="-106" y="13" on="1"/>
        <pt x="-111" y="8" on="0"/>
        <pt x="-111" y="3" on="0"/>
        <pt x="-107" y="3" on="0"/>
        <pt x="-101" y="6" on="1"/>
        <pt x="154" y="163" on="0"/>
        <pt x="229" y="218" on="1"/>
        <pt x="260" y="233" on="0"/>
        <pt x="266" y="257" on="1"/>
        <pt x="270" y="275" on="0"/>
        <pt x="312" y="375" on="0"/>
        <pt x="332" y="414" on="1"/>
        <pt x="390" y="523" on="0"/>
        <pt x="456" y="593" on="1"/>
        <pt x="466" y="601" on="0"/>
        <pt x="466" y="607" on="0"/>
        <pt x="463" y="607" on="1"/>
        <pt x="435" y="607" on="0"/>
        <pt x="263" y="538" on="0"/>
        <pt x="62" y="414" on="0"/>
        <pt x="21" y="354" on="1"/>
        <pt x="13" y="347" on="0"/>
        <pt x="4" y="347" on="0"/>
        <pt x="4" y="352" on="1"/>
        <pt x="4" y="388" on="0"/>
        <pt x="94" y="498" on="0"/>
        <pt x="229" y="602" on="0"/>
        <pt x="412" y="676" on="0"/>
        <pt x="494" y="676" on="1"/>
        <pt x="536" y="676" on="0"/>
        <pt x="556" y="645" on="1"/>
        <pt x="563" y="633" on="0"/>
        <pt x="563" y="605" on="0"/>
        <pt x="538" y="567" on="1"/>
        <pt x="453" y="438" on="0"/>
        <pt x="435" y="375" on="1"/>
        <pt x="433" y="370" on="0"/>
        <pt x="433" y="362" on="0"/>
        <pt x="437" y="362" on="0"/>
        <pt x="444" y="367" on="1"/>
        <pt x="777" y="610" on="0"/>
        <pt x="826" y="666" on="1"/>
        <pt x="833" y="676" on="0"/>
        <pt x="846" y="676" on="0"/>
        <pt x="851" y="673" on="1"/>
        <pt x="872" y="652" on="0"/>
        <pt x="872" y="640" on="0"/>
        <pt x="864" y="632" on="1"/>
        <pt x="633" y="435" on="0"/>
      </contour>
    </TTGlyph>
    <TTGlyph name="Y" xMin="-124" yMin="-387" xMax="912" yMax="658">
      <contour>
        <pt x="905" y="637" on="1"/>
        <pt x="912" y="631" on="0"/>
        <pt x="912" y="614" on="0"/>
        <pt x="906" y="608" on="1"/>
        <pt x="791" y="484" on="1"/>
        <pt x="625" y="289" on="0"/>
        <pt x="417" y="-4" on="1"/>
        <pt x="364" y="-93" on="0"/>
        <pt x="235" y="-222" on="1"/>
        <pt x="167" y="-291" on="0"/>
        <pt x="0" y="-387" on="0"/>
        <pt x="-71" y="-387" on="1"/>
        <pt x="-86" y="-387" on="0"/>
        <pt x="-124" y="-351" on="0"/>
        <pt x="-124" y="-318" on="1"/>
        <pt x="-124" y="-274" on="0"/>
        <pt x="-7" y="-157" on="0"/>
        <pt x="151" y="-75" on="0"/>
        <pt x="206" y="-75" on="1"/>
        <pt x="210" y="-75" on="1"/>
        <pt x="399" y="144" on="0"/>
        <pt x="443" y="193" on="1"/>
        <pt x="602" y="368" on="1"/>
        <pt x="603" y="369" on="0"/>
        <pt x="606" y="373" on="0"/>
        <pt x="610" y="378" on="1"/>
        <pt x="618" y="388" on="0"/>
        <pt x="616" y="388" on="1"/>
        <pt x="614" y="388" on="0"/>
        <pt x="599" y="374" on="1"/>
        <pt x="454" y="232" on="1"/>
        <pt x="190" y="-27" on="0"/>
        <pt x="69" y="-27" on="1"/>
        <pt x="40" y="-27" on="0"/>
        <pt x="-13" y="19" on="0"/>
        <pt x="-13" y="61" on="1"/>
        <pt x="-13" y="141" on="0"/>
        <pt x="134" y="288" on="1"/>
        <pt x="401" y="526" on="1"/>
        <pt x="449" y="571" on="0"/>
        <pt x="449" y="585" on="1"/>
        <pt x="449" y="589" on="0"/>
        <pt x="437" y="589" on="0"/>
        <pt x="391" y="581" on="0"/>
        <pt x="294" y="550" on="0"/>
        <pt x="187" y="502" on="0"/>
        <pt x="48" y="410" on="0"/>
        <pt x="-15" y="352" on="1"/>
        <pt x="-25" y="338" on="0"/>
        <pt x="-37" y="338" on="1"/>
        <pt x="-40" y="338" on="1"/>
        <pt x="-44" y="339" on="0"/>
        <pt x="-44" y="343" on="1"/>
        <pt x="-44" y="353" on="0"/>
        <pt x="-29" y="368" on="1"/>
        <pt x="60" y="496" on="0"/>
        <pt x="308" y="658" on="0"/>
        <pt x="407" y="658" on="1"/>
        <pt x="449" y="658" on="0"/>
        <pt x="519" y="613" on="0"/>
        <pt x="519" y="560" on="1"/>
        <pt x="519" y="523" on="0"/>
        <pt x="429" y="408" on="0"/>
        <pt x="300" y="290" on="0"/>
        <pt x="235" y="234" on="1"/>
        <pt x="80" y="99" on="0"/>
        <pt x="80" y="58" on="1"/>
        <pt x="80" y="56" on="0"/>
        <pt x="99" y="56" on="0"/>
        <pt x="160" y="86" on="0"/>
        <pt x="242" y="142" on="0"/>
        <pt x="323" y="201" on="0"/>
        <pt x="422" y="279" on="0"/>
        <pt x="456" y="306" on="1"/>
        <pt x="550" y="381" on="0"/>
        <pt x="579" y="406" on="1"/>
        <pt x="791" y="587" on="1"/>
        <pt x="850" y="645" on="1"/>
        <pt x="860" y="656" on="0"/>
        <pt x="878" y="656" on="0"/>
        <pt x="882" y="653" on="1"/>
      </contour>
      <contour>
        <pt x="184" y="-101" on="1"/>
        <pt x="192" y="-93" on="0"/>
        <pt x="192" y="-90" on="0"/>
        <pt x="190" y="-90" on="1"/>
        <pt x="173" y="-96" on="1"/>
        <pt x="76" y="-148" on="0"/>
        <pt x="-82" y="-320" on="0"/>
        <pt x="-82" y="-349" on="1"/>
        <pt x="-82" y="-352" on="0"/>
        <pt x="-79" y="-352" on="1"/>
        <pt x="-73" y="-350" on="1"/>
        <pt x="-22" y="-320" on="0"/>
        <pt x="107" y="-196" on="0"/>
        <pt x="146" y="-148" on="1"/>
      </contour>
    </TTGlyph>
    <TTGlyph name="Yacute" xMin="-147" yMin="-387" xMax="889" yMax="832">
      <contour>
        <pt x="882" y="637" on="1"/>
        <pt x="889" y="631" on="0"/>
        <pt x="889" y="614" on="0"/>
        <pt x="883" y="608" on="1"/>
        <pt x="768" y="484" on="1"/>
        <pt x="602" y="289" on="0"/>
        <pt x="394" y="-4" on="1"/>
        <pt x="341" y="-93" on="0"/>
        <pt x="212" y="-222" on="1"/>
        <pt x="144" y="-291" on="0"/>
        <pt x="-23" y="-387" on="0"/>
        <pt x="-94" y="-387" on="1"/>
        <pt x="-109" y="-387" on="0"/>
        <pt x="-147" y="-351" on="0"/>
        <pt x="-147" y="-318" on="1"/>
        <pt x="-147" y="-274" on="0"/>
        <pt x="-30" y="-157" on="0"/>
        <pt x="128" y="-75" on="0"/>
        <pt x="183" y="-75" on="1"/>
        <pt x="187" y="-75" on="1"/>
        <pt x="376" y="144" on="0"/>
        <pt x="420" y="193" on="1"/>
        <pt x="579" y="368" on="1"/>
        <pt x="580" y="369" on="0"/>
        <pt x="583" y="373" on="0"/>
        <pt x="586" y="378" on="1"/>
        <pt x="604" y="400" on="0"/>
        <pt x="576" y="374" on="1"/>
        <pt x="431" y="232" on="1"/>
        <pt x="167" y="-27" on="0"/>
        <pt x="46" y="-27" on="1"/>
        <pt x="17" y="-27" on="0"/>
        <pt x="-36" y="19" on="0"/>
        <pt x="-36" y="61" on="1"/>
        <pt x="-36" y="141" on="0"/>
        <pt x="111" y="288" on="1"/>
        <pt x="378" y="526" on="1"/>
        <pt x="426" y="571" on="0"/>
        <pt x="426" y="585" on="1"/>
        <pt x="426" y="589" on="0"/>
        <pt x="414" y="589" on="0"/>
        <pt x="368" y="581" on="0"/>
        <pt x="271" y="550" on="0"/>
        <pt x="164" y="502" on="0"/>
        <pt x="25" y="410" on="0"/>
        <pt x="-38" y="352" on="1"/>
        <pt x="-48" y="338" on="0"/>
        <pt x="-60" y="338" on="1"/>
        <pt x="-63" y="338" on="1"/>
        <pt x="-67" y="339" on="0"/>
        <pt x="-67" y="343" on="1"/>
        <pt x="-67" y="353" on="0"/>
        <pt x="-52" y="368" on="1"/>
        <pt x="37" y="496" on="0"/>
        <pt x="285" y="658" on="0"/>
        <pt x="384" y="658" on="1"/>
        <pt x="426" y="658" on="0"/>
        <pt x="496" y="613" on="0"/>
        <pt x="496" y="560" on="1"/>
        <pt x="496" y="523" on="0"/>
        <pt x="406" y="408" on="0"/>
        <pt x="276" y="290" on="0"/>
        <pt x="212" y="234" on="1"/>
        <pt x="57" y="98" on="0"/>
        <pt x="57" y="58" on="1"/>
        <pt x="57" y="56" on="0"/>
        <pt x="76" y="56" on="0"/>
        <pt x="137" y="86" on="0"/>
        <pt x="219" y="142" on="0"/>
        <pt x="300" y="201" on="0"/>
        <pt x="399" y="279" on="0"/>
        <pt x="432" y="306" on="1"/>
        <pt x="527" y="381" on="0"/>
        <pt x="556" y="406" on="1"/>
        <pt x="768" y="587" on="1"/>
        <pt x="827" y="645" on="1"/>
        <pt x="837" y="656" on="0"/>
        <pt x="854" y="656" on="0"/>
        <pt x="859" y="653" on="1"/>
      </contour>
      <contour>
        <pt x="161" y="-101" on="1"/>
        <pt x="169" y="-93" on="0"/>
        <pt x="169" y="-90" on="0"/>
        <pt x="167" y="-90" on="1"/>
        <pt x="150" y="-96" on="1"/>
        <pt x="53" y="-148" on="0"/>
        <pt x="-105" y="-320" on="0"/>
        <pt x="-105" y="-349" on="1"/>
        <pt x="-105" y="-352" on="0"/>
        <pt x="-102" y="-352" on="1"/>
        <pt x="-96" y="-350" on="1"/>
        <pt x="-45" y="-320" on="0"/>
        <pt x="84" y="-196" on="0"/>
        <pt x="122" y="-148" on="1"/>
      </contour>
      <contour>
        <pt x="564" y="659" on="1"/>
        <pt x="564" y="670" on="0"/>
        <pt x="581" y="685" on="1"/>
        <pt x="625" y="711" on="0"/>
        <pt x="691" y="778" on="0"/>
        <pt x="702" y="798" on="1"/>
        <pt x="713" y="818" on="1"/>
        <pt x="723" y="832" on="0"/>
        <pt x="755" y="832" on="0"/>
        <pt x="776" y="796" on="0"/>
        <pt x="776" y="777" on="1"/>
        <pt x="774" y="754" on="1"/>
        <pt x="753" y="715" on="0"/>
        <pt x="705" y="688" on="1"/>
        <pt x="629" y="644" on="0"/>
        <pt x="579" y="644" on="1"/>
        <pt x="564" y="644" on="0"/>
      </contour>
    </TTGlyph>
    <TTGlyph name="Ydieresis" xMin="-147" yMin="-387" xMax="889" yMax="812">
      <contour>
        <pt x="882" y="637" on="1"/>
        <pt x="889" y="631" on="0"/>
        <pt x="889" y="614" on="0"/>
        <pt x="883" y="608" on="1"/>
        <pt x="768" y="484" on="1"/>
        <pt x="602" y="289" on="0"/>
        <pt x="394" y="-4" on="1"/>
        <pt x="341" y="-93" on="0"/>
        <pt x="212" y="-222" on="1"/>
        <pt x="144" y="-291" on="0"/>
        <pt x="-23" y="-387" on="0"/>
        <pt x="-94" y="-387" on="1"/>
        <pt x="-109" y="-387" on="0"/>
        <pt x="-147" y="-351" on="0"/>
        <pt x="-147" y="-318" on="1"/>
        <pt x="-147" y="-274" on="0"/>
        <pt x="-30" y="-157" on="0"/>
        <pt x="128" y="-75" on="0"/>
        <pt x="183" y="-75" on="1"/>
        <pt x="187" y="-75" on="1"/>
        <pt x="376" y="144" on="0"/>
        <pt x="420" y="193" on="1"/>
        <pt x="579" y="368" on="1"/>
        <pt x="580" y="369" on="0"/>
        <pt x="583" y="373" on="0"/>
        <pt x="586" y="378" on="1"/>
        <pt x="604" y="400" on="0"/>
        <pt x="576" y="374" on="1"/>
        <pt x="431" y="232" on="1"/>
        <pt x="167" y="-27" on="0"/>
        <pt x="46" y="-27" on="1"/>
        <pt x="17" y="-27" on="0"/>
        <pt x="-36" y="19" on="0"/>
        <pt x="-36" y="61" on="1"/>
        <pt x="-36" y="141" on="0"/>
        <pt x="111" y="288" on="1"/>
        <pt x="378" y="526" on="1"/>
        <pt x="426" y="571" on="0"/>
        <pt x="426" y="585" on="1"/>
        <pt x="426" y="589" on="0"/>
        <pt x="414" y="589" on="0"/>
        <pt x="368" y="581" on="0"/>
        <pt x="271" y="550" on="0"/>
        <pt x="164" y="502" on="0"/>
        <pt x="25" y="410" on="0"/>
        <pt x="-38" y="352" on="1"/>
        <pt x="-48" y="338" on="0"/>
        <pt x="-60" y="338" on="1"/>
        <pt x="-63" y="338" on="1"/>
        <pt x="-67" y="339" on="0"/>
        <pt x="-67" y="343" on="1"/>
        <pt x="-67" y="353" on="0"/>
        <pt x="-52" y="368" on="1"/>
        <pt x="37" y="496" on="0"/>
        <pt x="285" y="658" on="0"/>
        <pt x="384" y="658" on="1"/>
        <pt x="426" y="658" on="0"/>
        <pt x="496" y="613" on="0"/>
        <pt x="496" y="560" on="1"/>
        <pt x="496" y="523" on="0"/>
        <pt x="406" y="408" on="0"/>
        <pt x="276" y="290" on="0"/>
        <pt x="212" y="234" on="1"/>
        <pt x="57" y="98" on="0"/>
        <pt x="57" y="58" on="1"/>
        <pt x="57" y="56" on="0"/>
        <pt x="76" y="56" on="0"/>
        <pt x="137" y="86" on="0"/>
        <pt x="219" y="142" on="0"/>
        <pt x="300" y="201" on="0"/>
        <pt x="399" y="279" on="0"/>
        <pt x="432" y="306" on="1"/>
        <pt x="527" y="381" on="0"/>
        <pt x="556" y="406" on="1"/>
        <pt x="768" y="587" on="1"/>
        <pt x="827" y="645" on="1"/>
        <pt x="837" y="656" on="0"/>
        <pt x="854" y="656" on="0"/>
        <pt x="859" y="653" on="1"/>
      </contour>
      <contour>
        <pt x="161" y="-101" on="1"/>
        <pt x="169" y="-93" on="0"/>
        <pt x="169" y="-90" on="0"/>
        <pt x="167" y="-90" on="1"/>
        <pt x="150" y="-96" on="1"/>
        <pt x="53" y="-148" on="0"/>
        <pt x="-105" y="-320" on="0"/>
        <pt x="-105" y="-349" on="1"/>
        <pt x="-105" y="-352" on="0"/>
        <pt x="-102" y="-352" on="1"/>
        <pt x="-96" y="-350" on="1"/>
        <pt x="-45" y="-320" on="0"/>
        <pt x="84" y="-196" on="0"/>
        <pt x="122" y="-148" on="1"/>
      </contour>
      <contour>
        <pt x="577" y="812" on="1"/>
        <pt x="587" y="812" on="0"/>
        <pt x="590" y="808" on="1"/>
        <pt x="604" y="791" on="0"/>
        <pt x="604" y="770" on="0"/>
        <pt x="592" y="755" on="0"/>
        <pt x="575" y="736" on="0"/>
        <pt x="524" y="703" on="0"/>
        <pt x="500" y="703" on="1"/>
        <pt x="482" y="706" on="0"/>
        <pt x="482" y="725" on="1"/>
        <pt x="482" y="755" on="0"/>
        <pt x="554" y="812" on="0"/>
      </contour>
      <contour>
        <pt x="744" y="812" on="1"/>
        <pt x="754" y="812" on="0"/>
        <pt x="757" y="808" on="1"/>
        <pt x="771" y="791" on="0"/>
        <pt x="771" y="770" on="0"/>
        <pt x="759" y="755" on="0"/>
        <pt x="742" y="736" on="0"/>
        <pt x="691" y="703" on="0"/>
        <pt x="667" y="703" on="1"/>
        <pt x="649" y="706" on="0"/>
        <pt x="649" y="725" on="1"/>
        <pt x="649" y="755" on="0"/>
        <pt x="721" y="812" on="0"/>
      </contour>
    </TTGlyph>
    <TTGlyph name="Z" xMin="-132" yMin="-31" xMax="765" yMax="644">
      <contour>
        <pt x="645" y="554" on="1"/>
        <pt x="632" y="552" on="1"/>
        <pt x="450" y="526" on="0"/>
        <pt x="225" y="468" on="0"/>
        <pt x="146" y="468" on="1"/>
        <pt x="91" y="468" on="0"/>
        <pt x="67" y="490" on="1"/>
        <pt x="46" y="510" on="0"/>
        <pt x="41" y="533" on="1"/>
        <pt x="41" y="543" on="0"/>
        <pt x="59" y="557" on="1"/>
        <pt x="139" y="605" on="0"/>
        <pt x="177" y="605" on="1"/>
        <pt x="181" y="605" on="0"/>
        <pt x="181" y="600" on="0"/>
        <pt x="178" y="594" on="1"/>
        <pt x="178" y="591" on="0"/>
        <pt x="181" y="591" on="1"/>
        <pt x="206" y="599" on="0"/>
        <pt x="265" y="615" on="0"/>
        <pt x="468" y="644" on="0"/>
        <pt x="663" y="644" on="0"/>
        <pt x="687" y="626" on="1"/>
        <pt x="754" y="584" on="1"/>
        <pt x="765" y="576" on="0"/>
        <pt x="765" y="557" on="0"/>
        <pt x="735" y="547" on="0"/>
        <pt x="685" y="526" on="0"/>
        <pt x="532" y="449" on="0"/>
        <pt x="379" y="358" on="0"/>
        <pt x="167" y="207" on="0"/>
        <pt x="72" y="123" on="1"/>
        <pt x="49" y="104" on="0"/>
        <pt x="49" y="96" on="0"/>
        <pt x="53" y="96" on="0"/>
        <pt x="63" y="98" on="1"/>
        <pt x="174" y="135" on="0"/>
        <pt x="378" y="135" on="0"/>
        <pt x="522" y="46" on="0"/>
        <pt x="522" y="-16" on="1"/>
        <pt x="522" y="-22" on="0"/>
        <pt x="517" y="-22" on="1"/>
        <pt x="509" y="-20" on="1"/>
        <pt x="505" y="-9" on="0"/>
        <pt x="348" y="6" on="0"/>
        <pt x="278" y="6" on="1"/>
        <pt x="47" y="6" on="0"/>
        <pt x="-59" y="-28" on="1"/>
        <pt x="-66" y="-31" on="0"/>
        <pt x="-75" y="-31" on="1"/>
        <pt x="-97" y="-31" on="0"/>
        <pt x="-109" y="-9" on="1"/>
        <pt x="-132" y="-4" on="0"/>
        <pt x="-132" y="20" on="1"/>
        <pt x="-132" y="79" on="0"/>
        <pt x="127" y="288" on="0"/>
        <pt x="484" y="486" on="0"/>
        <pt x="640" y="545" on="1"/>
        <pt x="649" y="550" on="0"/>
        <pt x="649" y="554" on="0"/>
      </contour>
    </TTGlyph>
    <TTGlyph name="Zcaron" xMin="-132" yMin="-31" xMax="765" yMax="848">
      <contour>
        <pt x="583" y="544" on="1"/>
        <pt x="645" y="554" on="1"/>
        <pt x="649" y="554" on="0"/>
        <pt x="649" y="552" on="1"/>
        <pt x="640" y="545" on="1"/>
        <pt x="484" y="486" on="0"/>
        <pt x="127" y="288" on="0"/>
        <pt x="-132" y="79" on="0"/>
        <pt x="-132" y="20" on="1"/>
        <pt x="-132" y="9" on="0"/>
        <pt x="-120" y="-5" on="0"/>
        <pt x="-109" y="-9" on="1"/>
        <pt x="-97" y="-31" on="0"/>
        <pt x="-75" y="-31" on="1"/>
        <pt x="-59" y="-28" on="1"/>
        <pt x="47" y="6" on="0"/>
        <pt x="278" y="6" on="1"/>
        <pt x="348" y="6" on="0"/>
        <pt x="505" y="-9" on="0"/>
        <pt x="509" y="-20" on="1"/>
        <pt x="517" y="-22" on="1"/>
        <pt x="522" y="-22" on="0"/>
        <pt x="522" y="-16" on="1"/>
        <pt x="522" y="46" on="0"/>
        <pt x="378" y="135" on="0"/>
        <pt x="286" y="135" on="1"/>
        <pt x="236" y="135" on="0"/>
        <pt x="125" y="116" on="0"/>
        <pt x="94" y="107" on="1"/>
        <pt x="63" y="98" on="1"/>
        <pt x="53" y="96" on="0"/>
        <pt x="49" y="96" on="0"/>
        <pt x="49" y="98" on="1"/>
        <pt x="49" y="104" on="0"/>
        <pt x="72" y="123" on="1"/>
        <pt x="167" y="207" on="0"/>
        <pt x="376" y="357" on="0"/>
        <pt x="458" y="404" on="1"/>
        <pt x="632" y="504" on="0"/>
        <pt x="712" y="537" on="1"/>
        <pt x="749" y="552" on="1"/>
        <pt x="765" y="557" on="0"/>
        <pt x="765" y="567" on="1"/>
        <pt x="765" y="577" on="0"/>
        <pt x="754" y="584" on="1"/>
        <pt x="687" y="626" on="1"/>
        <pt x="663" y="644" on="0"/>
        <pt x="468" y="644" on="0"/>
        <pt x="273" y="618" on="0"/>
        <pt x="228" y="605" on="1"/>
        <pt x="184" y="592" on="1"/>
        <pt x="181" y="591" on="1"/>
        <pt x="178" y="594" on="1"/>
        <pt x="181" y="600" on="0"/>
        <pt x="181" y="605" on="0"/>
        <pt x="160" y="605" on="0"/>
        <pt x="101" y="581" on="0"/>
        <pt x="80" y="569" on="1"/>
        <pt x="59" y="557" on="1"/>
        <pt x="41" y="545" on="0"/>
        <pt x="41" y="533" on="1"/>
        <pt x="41" y="527" on="0"/>
        <pt x="57" y="499" on="0"/>
        <pt x="67" y="490" on="1"/>
        <pt x="93" y="468" on="0"/>
        <pt x="226" y="468" on="0"/>
        <pt x="305" y="488" on="1"/>
        <pt x="431" y="521" on="0"/>
      </contour>
      <contour>
        <pt x="428" y="735" on="1"/>
        <pt x="428" y="773" on="0"/>
        <pt x="399" y="836" on="1"/>
        <pt x="400" y="848" on="0"/>
        <pt x="430" y="848" on="1"/>
        <pt x="448" y="848" on="0"/>
        <pt x="505" y="772" on="0"/>
        <pt x="505" y="762" on="1"/>
        <pt x="546" y="795" on="0"/>
        <pt x="679" y="846" on="0"/>
        <pt x="712" y="846" on="1"/>
        <pt x="723" y="846" on="0"/>
        <pt x="736" y="836" on="0"/>
        <pt x="736" y="831" on="1"/>
        <pt x="736" y="812" on="0"/>
        <pt x="723" y="812" on="1"/>
        <pt x="677" y="802" on="0"/>
        <pt x="576" y="733" on="0"/>
        <pt x="510" y="674" on="0"/>
        <pt x="495" y="674" on="0"/>
        <pt x="486" y="678" on="1"/>
        <pt x="468" y="685" on="0"/>
        <pt x="468" y="688" on="1"/>
        <pt x="462" y="686" on="0"/>
        <pt x="450" y="686" on="1"/>
        <pt x="421" y="689" on="0"/>
        <pt x="421" y="704" on="1"/>
      </contour>
    </TTGlyph>
</ttFont>
